<?xml version="1.0" encoding="UTF-8"?>
<!DOCTYPE svg PUBLIC "-//W3C//DTD SVG 1.1//EN" "http://www.w3.org/Graphics/SVG/1.1/DTD/svg11.dtd">
<svg version="1.2" width="210mm" height="297mm" viewBox="0 0 21000 29700" preserveAspectRatio="xMidYMid" fill-rule="evenodd" stroke-width="28.222" stroke-linejoin="round" xmlns="http://www.w3.org/2000/svg" xmlns:ooo="http://xml.openoffice.org/svg/export" xmlns:xlink="http://www.w3.org/1999/xlink" xmlns:presentation="http://sun.com/xmlns/staroffice/presentation" xmlns:smil="http://www.w3.org/2001/SMIL20/" xmlns:anim="urn:oasis:names:tc:opendocument:xmlns:animation:1.0" xml:space="preserve">
 <defs class="ClipPathGroup">
  <clipPath id="presentation_clip_path" clipPathUnits="userSpaceOnUse">
   <rect x="0" y="0" width="21000" height="29700"/>
  </clipPath>
  <clipPath id="presentation_clip_path_shrink" clipPathUnits="userSpaceOnUse">
   <rect x="21" y="29" width="20958" height="29641"/>
  </clipPath>
 </defs>
 <defs class="TextShapeIndex">
  <g ooo:slide="id1" ooo:id-list="id3 id4 id5 id6 id7 id8 id9 id10 id11 id12 id13 id14 id15 id16 id17 id18 id19 id20 id21 id22 id23"/>
 </defs>
 <defs class="EmbeddedBulletChars">
  <g id="bullet-char-template-57356" transform="scale(0.00048828125,-0.00048828125)">
   <path d="M 580,1141 L 1163,571 580,0 -4,571 580,1141 Z"/>
  </g>
  <g id="bullet-char-template-57354" transform="scale(0.00048828125,-0.00048828125)">
   <path d="M 8,1128 L 1137,1128 1137,0 8,0 8,1128 Z"/>
  </g>
  <g id="bullet-char-template-10146" transform="scale(0.00048828125,-0.00048828125)">
   <path d="M 174,0 L 602,739 174,1481 1456,739 174,0 Z M 1358,739 L 309,1346 659,739 1358,739 Z"/>
  </g>
  <g id="bullet-char-template-10132" transform="scale(0.00048828125,-0.00048828125)">
   <path d="M 2015,739 L 1276,0 717,0 1260,543 174,543 174,936 1260,936 717,1481 1274,1481 2015,739 Z"/>
  </g>
  <g id="bullet-char-template-10007" transform="scale(0.00048828125,-0.00048828125)">
   <path d="M 0,-2 C -7,14 -16,27 -25,37 L 356,567 C 262,823 215,952 215,954 215,979 228,992 255,992 264,992 276,990 289,987 310,991 331,999 354,1012 L 381,999 492,748 772,1049 836,1024 860,1049 C 881,1039 901,1025 922,1006 886,937 835,863 770,784 769,783 710,716 594,584 L 774,223 C 774,196 753,168 711,139 L 727,119 C 717,90 699,76 672,76 641,76 570,178 457,381 L 164,-76 C 142,-110 111,-127 72,-127 30,-127 9,-110 8,-76 1,-67 -2,-52 -2,-32 -2,-23 -1,-13 0,-2 Z"/>
  </g>
  <g id="bullet-char-template-10004" transform="scale(0.00048828125,-0.00048828125)">
   <path d="M 285,-33 C 182,-33 111,30 74,156 52,228 41,333 41,471 41,549 55,616 82,672 116,743 169,778 240,778 293,778 328,747 346,684 L 369,508 C 377,444 397,411 428,410 L 1163,1116 C 1174,1127 1196,1133 1229,1133 1271,1133 1292,1118 1292,1087 L 1292,965 C 1292,929 1282,901 1262,881 L 442,47 C 390,-6 338,-33 285,-33 Z"/>
  </g>
  <g id="bullet-char-template-9679" transform="scale(0.00048828125,-0.00048828125)">
   <path d="M 813,0 C 632,0 489,54 383,161 276,268 223,411 223,592 223,773 276,916 383,1023 489,1130 632,1184 813,1184 992,1184 1136,1130 1245,1023 1353,916 1407,772 1407,592 1407,412 1353,268 1245,161 1136,54 992,0 813,0 Z"/>
  </g>
  <g id="bullet-char-template-8226" transform="scale(0.00048828125,-0.00048828125)">
   <path d="M 346,457 C 273,457 209,483 155,535 101,586 74,649 74,723 74,796 101,859 155,911 209,963 273,989 346,989 419,989 480,963 531,910 582,859 608,796 608,723 608,648 583,586 532,535 482,483 420,457 346,457 Z"/>
  </g>
  <g id="bullet-char-template-8211" transform="scale(0.00048828125,-0.00048828125)">
   <path d="M -4,459 L 1135,459 1135,606 -4,606 -4,459 Z"/>
  </g>
  <g id="bullet-char-template-61548" transform="scale(0.00048828125,-0.00048828125)">
   <path d="M 173,740 C 173,903 231,1043 346,1159 462,1274 601,1332 765,1332 928,1332 1067,1274 1183,1159 1299,1043 1357,903 1357,740 1357,577 1299,437 1183,322 1067,206 928,148 765,148 601,148 462,206 346,322 231,437 173,577 173,740 Z"/>
  </g>
 </defs>
 <g>
  <g id="id2" class="Master_Slide">
   <g id="bg-id2" class="Background"/>
   <g id="bo-id2" class="BackgroundObjects"/>
  </g>
 </g>
 <g class="SlideGroup">
  <g>
   <g id="container-id1">
    <g id="id1" class="Slide" clip-path="url(#presentation_clip_path)">
     <g class="Page">
      <g id="bg-id1" class="Background">
       <path fill="rgb(250,247,247)" stroke="none" d="M 10500,29699 L 0,29699 0,0 20999,0 20999,29699 10500,29699 Z"/>
      </g>
      <g class="Group">
       <g class="Group">
        <g class="Group">
         <g class="com.sun.star.drawing.ClosedBezierShape">
          <g id="id3">
           <rect class="BoundingBox" stroke="none" fill="none" x="11879" y="13890" width="732" height="475"/>
           <path fill="rgb(174,115,18)" stroke="none" d="M 11882,14093 C 11911,13843 12284,13851 12609,13973 12435,14267 12105,14496 11934,14276 11888,14217 11874,14166 11882,14093 Z"/>
          </g>
         </g>
         <g class="com.sun.star.drawing.ClosedBezierShape">
          <g id="id4">
           <rect class="BoundingBox" stroke="none" fill="none" x="11165" y="13911" width="727" height="496"/>
           <path fill="rgb(174,115,18)" stroke="none" d="M 11848,14298 C 11712,14527 11392,14357 11165,14094 11445,13888 11833,13812 11885,14098 11898,14175 11889,14230 11848,14298 Z"/>
          </g>
         </g>
         <g class="com.sun.star.drawing.ClosedBezierShape">
          <g id="id5">
           <rect class="BoundingBox" stroke="none" fill="none" x="11263" y="13563" width="722" height="725"/>
           <path fill="rgb(174,115,18)" stroke="none" d="M 11765,14266 C 11463,14383 11285,13983 11263,13563 11685,13575 12112,13790 11948,14103 11904,14187 11853,14232 11765,14266 Z"/>
          </g>
         </g>
         <g class="com.sun.star.drawing.ClosedBezierShape">
          <g id="id6">
           <rect class="BoundingBox" stroke="none" fill="none" x="11740" y="13473" width="677" height="773"/>
           <path fill="rgb(174,115,18)" stroke="none" d="M 11787,14097 C 11607,13839 11975,13585 12396,13473 12470,13872 12341,14320 11991,14234 11896,14211 11840,14173 11787,14097 Z"/>
          </g>
         </g>
         <g class="com.sun.star.drawing.ClosedBezierShape">
          <g id="id7">
           <rect class="BoundingBox" stroke="none" fill="none" x="11525" y="13205" width="667" height="983"/>
           <g>
            <defs>
             <linearGradient id="gradient1" x1="11681" y1="13154" x2="12033" y2="14237" gradientUnits="userSpaceOnUse">
              <stop offset="0.23" style="stop-color:rgb(174,115,18)"/>
              <stop offset="1" style="stop-color:rgb(255,255,255)"/>
             </linearGradient>
            </defs>
            <path style="fill:url(#gradient1)" d="M 11738,14167 L 11707,14156 11678,14143 11653,14129 11630,14112 11609,14093 11591,14073 11575,14051 11561,14027 11550,14002 11541,13976 11529,13919 11525,13857 11529,13792 11540,13723 11557,13651 11581,13578 11611,13503 11646,13428 11685,13353 11778,13205 11844,13263 11906,13325 11964,13389 12017,13456 12065,13524 12105,13592 12139,13661 12164,13728 12182,13794 12190,13858 12190,13889 12188,13918 12184,13947 12176,13975 12166,14002 12153,14027 12137,14051 12118,14074 12096,14095 12071,14115 12042,14133 12011,14149 11975,14163 11942,14174 11909,14182 11892,14184 11876,14186 11859,14186 11843,14186 11809,14183 11774,14177 11738,14167 Z"/>
           </g>
          </g>
         </g>
         <g class="com.sun.star.drawing.ClosedBezierShape">
          <g id="id8">
           <rect class="BoundingBox" stroke="none" fill="none" x="11525" y="13608" width="460" height="579"/>
          </g>
         </g>
         <g class="com.sun.star.drawing.ClosedBezierShape">
          <g id="id9">
           <rect class="BoundingBox" stroke="none" fill="none" x="11740" y="13581" width="453" height="606"/>
          </g>
         </g>
         <g class="com.sun.star.drawing.ClosedBezierShape">
          <g id="id10">
           <rect class="BoundingBox" stroke="none" fill="none" x="11880" y="13890" width="312" height="295"/>
          </g>
         </g>
         <g class="com.sun.star.drawing.ClosedBezierShape">
          <g id="id11">
           <rect class="BoundingBox" stroke="none" fill="none" x="12019" y="13890" width="514" height="358"/>
          </g>
         </g>
         <g class="com.sun.star.drawing.ClosedBezierShape">
          <g id="id12">
           <rect class="BoundingBox" stroke="none" fill="none" x="11485" y="13911" width="546" height="377"/>
          </g>
         </g>
         <g class="com.sun.star.drawing.ClosedBezierShape">
          <g id="id13">
           <rect class="BoundingBox" stroke="none" fill="none" x="11740" y="13741" width="245" height="445"/>
          </g>
         </g>
         <g class="com.sun.star.drawing.ClosedBezierShape">
          <g id="id14">
           <rect class="BoundingBox" stroke="none" fill="none" x="6500" y="13693" width="2509" height="2142"/>
           <path fill="rgb(152,39,24)" stroke="none" d="M 8555,14101 C 8822,14187 9008,14354 9008,14652 9008,14945 8877,15191 8672,15396 8366,15701 7989,15834 7560,15834 7307,15834 7052,15785 6839,15641 6605,15483 6500,15256 6500,14976 6500,14541 6724,14226 7089,14003 7451,13783 7854,13693 8274,13693 8404,13693 8534,13700 8661,13721 L 8685,13725 8555,14101 Z M 8555,14101 L 8555,14101 Z M 7114,15074 L 7151,14995 C 7188,14916 7252,14877 7339,14877 L 7516,14877 C 7586,14877 7655,14872 7725,14862 7900,14837 8044,14756 8158,14622 8265,14497 8341,14331 8397,14175 8321,14158 8244,14148 8168,14148 7994,14148 7825,14185 7680,14284 7529,14387 7440,14533 7397,14709 L 7385,14756 7360,14715 C 7336,14676 7324,14634 7324,14589 7324,14378 7465,14245 7647,14161 7817,14083 7999,14050 8185,14050 8264,14050 8342,14056 8421,14068 L 8433,14070 8488,13886 C 8344,13865 8198,13851 8055,13851 7715,13851 7326,13909 7069,14153 6844,14370 6737,14636 6737,14947 6737,15161 6798,15355 6962,15498 7157,15668 7406,15725 7659,15725 7953,15725 8215,15638 8437,15443 8668,15239 8776,14982 8776,14676 8776,14574 8757,14474 8710,14383 8666,14299 8604,14235 8515,14206 8415,14458 8268,14690 8054,14860 7856,15018 7631,15102 7377,15099 L 7254,15099 C 7210,15098 7165,15113 7125,15132 L 7075,15155 7098,15106 C 7102,15096 7108,15083 7114,15074 Z"/>
          </g>
         </g>
         <g class="com.sun.star.drawing.ClosedBezierShape">
          <g id="id15">
           <rect class="BoundingBox" stroke="none" fill="none" x="8606" y="14122" width="1504" height="2573"/>
           <path fill="rgb(152,39,24)" stroke="none" d="M 9701,14408 C 9928,14414 10109,14500 10109,14757 10109,14901 10068,15040 10008,15169 9947,15298 9867,15417 9767,15519 9668,15619 9519,15747 9370,15747 9301,15747 9250,15717 9250,15644 9250,15614 9259,15585 9274,15559 L 9284,15540 9302,15552 C 9338,15576 9389,15602 9434,15602 9547,15602 9636,15523 9702,15439 9765,15358 9813,15267 9851,15172 9888,15081 9918,14978 9918,14878 9918,14686 9799,14619 9623,14615 L 9612,14645 C 9516,14895 9422,15147 9323,15396 L 8846,16616 8839,16619 C 8788,16641 8727,16657 8674,16673 L 8606,16694 8643,16604 C 8852,16105 9042,15598 9217,15085 L 9235,15030 9265,15025 C 9312,15016 9350,14993 9378,14953 9398,14923 9415,14883 9430,14850 9459,14785 9485,14719 9511,14653 L 9525,14615 9511,14615 C 9437,14613 9360,14620 9285,14630 L 9195,14863 9113,14827 9263,14428 9304,14424 9439,14416 9590,14409 C 9593,14409 9597,14409 9601,14409 L 9703,14122 9799,14122 9701,14408 Z"/>
          </g>
         </g>
         <g class="com.sun.star.drawing.ClosedBezierShape">
          <g id="id16">
           <rect class="BoundingBox" stroke="none" fill="none" x="9916" y="13514" width="1439" height="2297"/>
           <path fill="rgb(152,39,24)" stroke="none" d="M 10409,15119 C 10604,14882 11009,14415 11256,14415 11319,14415 11354,14450 11354,14513 11354,14569 11316,14656 11294,14707 L 11192,14929 C 11126,15076 11060,15224 11001,15375 10984,15416 10938,15531 10938,15575 10938,15588 10943,15590 10956,15590 10993,15590 11060,15555 11091,15538 L 11122,15520 11175,15596 11155,15607 C 11024,15678 10879,15736 10738,15786 L 10668,15810 10670,15780 C 10679,15661 10728,15517 10768,15406 10842,15201 10932,15001 11024,14805 11039,14775 11075,14697 11075,14664 11075,14650 11074,14634 11057,14634 10963,14634 10770,14847 10713,14910 10503,15145 10313,15411 10186,15701 L 10181,15712 10170,15713 C 10098,15722 10029,15743 9965,15776 L 9916,15802 9955,15708 C 10025,15543 10093,15376 10160,15208 L 10545,14240 C 10582,14147 10619,14051 10649,13956 10662,13916 10683,13849 10683,13807 10683,13783 10676,13771 10651,13771 10625,13771 10587,13784 10563,13793 L 10522,13809 10492,13723 10512,13717 C 10644,13672 10775,13617 10897,13547 L 10956,13514 10958,13546 C 10959,13561 10959,13577 10959,13593 10959,13667 10937,13756 10917,13828 10882,13952 10837,14076 10791,14197 10786,14212 10779,14227 10773,14242 10758,14279 10742,14316 10727,14353 10668,14494 10610,14636 10551,14777 L 10409,15119 Z"/>
          </g>
         </g>
         <g class="com.sun.star.drawing.ClosedBezierShape">
          <g id="id17">
           <rect class="BoundingBox" stroke="none" fill="none" x="11250" y="14409" width="691" height="1400"/>
           <path fill="rgb(152,39,24)" stroke="none" d="M 11522,15590 C 11530,15596 11543,15598 11552,15598 11580,15599 11628,15583 11654,15574 L 11671,15567 11708,15652 11689,15660 C 11555,15713 11415,15765 11276,15801 L 11250,15808 11251,15781 C 11263,15563 11389,15277 11483,15082 11529,14987 11575,14890 11616,14792 11629,14762 11659,14689 11661,14656 11662,14636 11658,14625 11637,14623 11622,14622 11604,14625 11588,14629 L 11518,14648 11517,14648 C 11509,14650 11497,14654 11489,14657 L 11470,14663 11441,14570 11496,14557 C 11621,14525 11744,14483 11863,14438 L 11940,14409 11940,14455 C 11940,14606 11799,14915 11736,15052 L 11615,15314 C 11593,15359 11518,15520 11516,15568 11516,15576 11517,15584 11522,15590 Z"/>
          </g>
         </g>
         <g class="com.sun.star.drawing.ClosedBezierShape">
          <g id="id18">
           <rect class="BoundingBox" stroke="none" fill="none" x="11806" y="14366" width="1204" height="1449"/>
           <path fill="rgb(152,39,24)" stroke="none" d="M 12390,14775 C 12512,14634 12743,14390 12910,14390 12939,14390 12968,14400 12994,14413 L 13009,14421 12939,14619 12922,14615 C 12888,14608 12852,14603 12817,14603 12657,14603 12514,14769 12428,14885 12360,14978 12304,15090 12258,15195 12189,15351 12131,15515 12078,15678 L 12056,15743 12045,15746 C 11977,15761 11910,15779 11845,15801 L 11806,15814 11838,15726 11981,15344 C 12034,15202 12087,15058 12134,14913 12150,14861 12184,14758 12184,14703 12184,14684 12180,14673 12160,14673 12141,14673 12077,14705 12060,14714 L 12040,14725 12003,14636 12020,14628 C 12163,14559 12300,14478 12426,14384 L 12451,14366 12458,14396 C 12462,14415 12465,14434 12465,14454 12465,14543 12427,14669 12390,14775 Z"/>
          </g>
         </g>
         <g class="com.sun.star.drawing.ClosedBezierShape">
          <g id="id19">
           <rect class="BoundingBox" stroke="none" fill="none" x="12282" y="14565" width="2903" height="2103"/>
           <path fill="rgb(152,39,24)" stroke="none" d="M 12968,15435 C 12931,15483 12892,15529 12849,15572 12788,15635 12720,15695 12646,15743 12597,15775 12532,15810 12471,15811 12437,15810 12404,15802 12375,15784 12348,15768 12325,15748 12309,15721 12294,15697 12284,15670 12282,15641 12278,15565 12302,15487 12334,15419 12376,15331 12432,15250 12493,15175 12563,15089 12643,15012 12728,14942 12814,14872 12908,14811 13008,14762 13097,14718 13193,14687 13292,14675 13297,14664 13303,14654 13309,14644 13318,14629 13330,14614 13348,14612 L 13349,14612 13350,14612 C 13384,14612 13418,14611 13452,14610 13478,14607 13505,14604 13531,14597 13555,14592 13579,14583 13601,14571 13615,14566 13631,14563 13644,14573 L 13644,14574 13645,14574 C 13653,14583 13656,14595 13657,14607 L 13657,14613 13654,14619 C 13599,14708 13548,14800 13499,14893 13453,14981 13408,15070 13368,15162 13336,15233 13306,15307 13283,15380 13258,15467 13220,15635 13304,15700 13369,15751 13517,15729 13591,15716 13744,15689 13900,15641 14049,15596 14171,15559 14293,15520 14417,15487 14507,15464 14617,15436 14710,15435 14797,15434 14892,15444 14973,15479 15036,15507 15091,15547 15126,15607 15162,15667 15179,15735 15182,15804 15187,15888 15161,15969 15120,16042 15072,16128 15009,16206 14938,16274 14860,16349 14774,16415 14683,16473 14593,16529 14499,16577 14400,16613 14315,16644 14224,16666 14132,16667 14084,16666 14041,16651 14004,16621 13969,16593 13940,16559 13916,16520 13910,16509 13903,16496 13907,16483 13914,16458 13940,16465 13956,16473 L 13959,16474 13961,16476 C 13976,16490 13998,16498 14018,16503 14047,16511 14079,16514 14110,16514 14173,16514 14238,16502 14299,16488 14374,16469 14448,16444 14520,16414 14596,16383 14670,16344 14741,16302 14808,16262 14872,16216 14930,16163 14981,16116 15027,16065 15060,16005 15088,15955 15103,15902 15100,15845 15095,15778 15047,15743 14988,15722 14889,15688 14758,15683 14655,15683 14424,15684 14213,15716 13987,15754 13771,15791 13566,15820 13346,15821 13255,15821 13151,15809 13071,15762 12957,15695 12943,15558 12968,15435 Z M 12968,15435 L 12968,15435 Z M 13260,14752 C 13204,14755 13150,14774 13102,14801 13037,14836 12979,14882 12927,14934 12869,14991 12819,15054 12776,15123 12733,15190 12698,15261 12673,15336 12651,15403 12639,15474 12644,15544 12644,15554 12650,15565 12655,15574 12660,15581 12665,15586 12674,15586 12695,15587 12746,15548 12762,15535 12821,15487 12878,15415 12924,15354 13001,15252 13068,15135 13126,15020 13150,14975 13173,14929 13195,14884 13217,14840 13239,14796 13260,14752 Z"/>
          </g>
         </g>
         <g class="com.sun.star.drawing.ClosedBezierShape">
          <g id="id20">
           <rect class="BoundingBox" stroke="none" fill="none" x="11165" y="13201" width="1445" height="1205"/>
          </g>
         </g>
         <g class="com.sun.star.drawing.ClosedBezierShape">
          <g id="id21">
           <rect class="BoundingBox" stroke="none" fill="none" x="11778" y="14045" width="192" height="186"/>
           <path fill="rgb(255,255,255)" stroke="none" d="M 11898,14045 C 11949,14049 11972,14076 11968,14127 11965,14155 11952,14179 11928,14201 11903,14222 11877,14231 11849,14229 11797,14225 11775,14198 11778,14147 11780,14118 11793,14093 11817,14072 11842,14051 11869,14043 11898,14045 Z"/>
          </g>
         </g>
        </g>
        <g class="com.sun.star.drawing.ClosedBezierShape">
         <g id="id22">
          <rect class="BoundingBox" stroke="none" fill="none" x="9404" y="15899" width="4060" height="416"/>
          <path fill="rgb(67,43,23)" stroke="none" d="M 9404,16222 L 9404,16178 9528,16021 C 9533,16015 9537,16009 9538,16004 9539,15999 9540,15994 9540,15990 9540,15989 9540,15989 9540,15989 L 9540,15988 C 9540,15977 9536,15967 9528,15958 9520,15949 9509,15944 9496,15944 9484,15944 9473,15948 9464,15957 9455,15965 9450,15976 9449,15990 L 9404,15990 C 9404,15964 9413,15943 9430,15925 9448,15907 9468,15899 9492,15899 9519,15899 9541,15907 9559,15925 9577,15943 9586,15965 9586,15990 9586,16000 9584,16010 9581,16020 9578,16029 9573,16038 9566,16046 L 9464,16176 9586,16176 9586,16222 9404,16222 Z M 9404,16222 L 9404,16222 Z M 9886,16222 L 9857,16189 C 9843,16199 9829,16207 9815,16214 9800,16221 9784,16224 9767,16224 9737,16224 9713,16214 9694,16195 9676,16175 9666,16152 9666,16126 9666,16107 9672,16088 9682,16072 9693,16055 9708,16042 9727,16032 9720,16023 9714,16013 9709,16003 9703,15993 9701,15982 9701,15971 9701,15952 9707,15935 9721,15920 9734,15906 9751,15899 9773,15899 9794,15899 9812,15906 9825,15920 9838,15935 9844,15952 9844,15971 9844,15986 9840,15999 9832,16011 9824,16023 9810,16034 9791,16042 L 9859,16126 C 9866,16117 9871,16109 9876,16099 9880,16090 9884,16081 9887,16071 L 9928,16087 C 9926,16091 9925,16095 9923,16098 9921,16102 9920,16107 9918,16111 9913,16119 9909,16127 9903,16135 9898,16144 9892,16151 9886,16157 L 9940,16222 9886,16222 Z M 9886,16222 L 9886,16222 Z M 9830,16156 L 9753,16062 C 9737,16071 9725,16081 9718,16091 9710,16102 9707,16114 9707,16126 9707,16142 9713,16156 9724,16167 9736,16178 9750,16184 9766,16184 9772,16184 9778,16183 9785,16181 9792,16180 9798,16177 9805,16174 9809,16171 9813,16169 9818,16166 9822,16163 9826,16160 9830,16156 Z M 9830,16156 L 9830,16156 Z M 9741,15969 C 9741,15972 9742,15975 9743,15979 9744,15982 9745,15985 9747,15988 9749,15992 9751,15996 9754,15999 9758,16003 9761,16007 9765,16010 9780,16005 9790,15998 9796,15992 9801,15985 9804,15977 9804,15969 9804,15961 9801,15954 9795,15948 9789,15942 9782,15939 9773,15939 9764,15939 9756,15942 9750,15948 9744,15954 9741,15961 9741,15969 Z M 9741,15969 L 9741,15969 Z M 10063,16076 L 10063,16036 10079,16036 C 10094,16036 10106,16031 10115,16023 10123,16014 10128,16003 10128,15990 10128,15977 10123,15966 10114,15957 10105,15949 10094,15944 10081,15944 L 10080,15944 10079,15944 C 10070,15945 10061,15948 10053,15954 10045,15961 10040,15970 10037,15983 L 9992,15983 C 9993,15960 10003,15940 10020,15924 10037,15907 10057,15899 10079,15899 10108,15899 10131,15908 10148,15927 10165,15945 10174,15966 10174,15990 10174,15990 10174,15991 10174,15992 10174,15992 10174,15993 10174,15994 10173,16005 10170,16016 10166,16027 10161,16038 10152,16047 10140,16055 10152,16063 10161,16073 10167,16084 10173,16095 10176,16108 10177,16120 10177,16121 10177,16122 10177,16123 10177,16124 10177,16125 10177,16126 10177,16156 10168,16180 10149,16197 10131,16215 10108,16224 10080,16224 10059,16224 10039,16217 10022,16203 10005,16189 9994,16169 9990,16142 L 10035,16142 C 10040,16153 10045,16162 10053,16169 10060,16175 10070,16178 10083,16178 10096,16178 10107,16174 10117,16165 10127,16156 10131,16143 10131,16128 10131,16112 10127,16099 10117,16090 10107,16081 10096,16076 10082,16076 L 10063,16076 Z M 10063,16076 L 10063,16076 Z M 10341,16222 L 10341,15901 10464,15901 C 10495,15901 10519,15909 10535,15925 10551,15941 10559,15962 10559,15987 10559,16000 10556,16013 10549,16025 10543,16037 10530,16047 10512,16055 L 10512,16056 C 10529,16060 10541,16069 10550,16083 10559,16096 10563,16112 10564,16128 L 10564,16129 C 10564,16130 10564,16130 10564,16131 10564,16158 10555,16180 10537,16197 10520,16213 10499,16222 10475,16222 L 10341,16222 Z M 10341,16222 L 10341,16222 Z M 10463,16079 L 10389,16079 10389,16176 10463,16176 C 10481,16176 10495,16171 10503,16161 10511,16152 10515,16140 10515,16128 10515,16115 10511,16103 10503,16093 10495,16084 10481,16079 10463,16079 Z M 10463,16079 L 10463,16079 Z M 10459,15944 L 10389,15944 10389,16036 10459,16036 C 10477,16036 10490,16031 10498,16022 10506,16013 10511,16003 10511,15990 10511,15978 10506,15967 10498,15958 10490,15949 10477,15944 10459,15944 Z M 10459,15944 L 10459,15944 Z M 10789,16222 L 10789,16081 10663,16081 10663,16222 10614,16222 10614,15901 10663,15901 10663,16038 10789,16038 10789,15901 10837,15901 10837,16222 10789,16222 Z M 10789,16222 L 10789,16222 Z M 10905,16222 L 10905,15901 10953,15901 10953,16066 10954,16066 11086,15901 11143,15901 11041,16027 11154,16222 11096,16222 11009,16064 10953,16124 10953,16222 10905,16222 Z M 10905,16222 L 10905,16222 Z M 11484,16222 L 11460,16150 11338,16150 11313,16222 11262,16222 11378,15901 11418,15901 11536,16222 11484,16222 Z M 11484,16222 L 11484,16222 Z M 11352,16107 L 11446,16107 11399,15967 11398,15967 11352,16107 Z M 11352,16107 L 11352,16107 Z M 11566,16314 L 11566,15993 11611,15993 11611,16017 C 11618,16009 11627,16003 11637,15998 11648,15993 11658,15990 11670,15990 11684,15990 11696,15993 11706,15999 11716,16004 11724,16011 11731,16020 L 11732,16021 11732,16021 C 11738,16029 11742,16039 11744,16050 11746,16061 11747,16080 11747,16108 11747,16135 11746,16154 11744,16165 11742,16176 11738,16185 11732,16193 L 11732,16194 C 11732,16194 11731,16194 11731,16195 11724,16203 11716,16210 11706,16215 11696,16221 11684,16224 11670,16224 11658,16224 11648,16221 11638,16217 11629,16212 11620,16205 11611,16197 L 11611,16314 11566,16314 Z M 11566,16314 L 11566,16314 Z M 11656,16178 C 11677,16178 11690,16171 11695,16157 11699,16143 11701,16127 11701,16109 L 11701,16109 11701,16108 C 11701,16089 11699,16073 11695,16058 11691,16044 11678,16036 11656,16036 11637,16036 11625,16042 11620,16055 11615,16068 11612,16081 11611,16096 11611,16098 11611,16100 11611,16102 11611,16103 11611,16105 11611,16108 11611,16110 11611,16112 11611,16114 11611,16116 11611,16118 11611,16120 11612,16134 11615,16148 11620,16160 11625,16172 11637,16178 11656,16178 Z M 11656,16178 L 11656,16178 Z M 11918,16222 L 11918,16201 11917,16201 C 11912,16209 11905,16215 11897,16218 11888,16222 11876,16224 11861,16224 11835,16224 11816,16217 11801,16204 11787,16191 11780,16174 11780,16155 11780,16136 11787,16121 11799,16107 11811,16093 11830,16086 11854,16086 L 11918,16086 11918,16063 C 11918,16052 11914,16044 11907,16040 11899,16036 11887,16034 11871,16034 11859,16034 11850,16035 11844,16037 11837,16040 11832,16044 11828,16051 L 11792,16024 C 11801,16011 11811,16003 11824,15998 11837,15993 11852,15990 11869,15990 11897,15990 11920,15996 11937,16007 11955,16018 11963,16037 11963,16065 L 11963,16222 11918,16222 Z M 11918,16222 L 11918,16222 Z M 11918,16142 L 11918,16125 11863,16125 C 11849,16125 11840,16128 11833,16133 11827,16137 11823,16144 11823,16152 11823,16160 11827,16167 11833,16172 11840,16178 11851,16181 11867,16181 11886,16181 11899,16179 11906,16175 11914,16170 11918,16159 11918,16142 Z M 11918,16142 L 11918,16142 Z M 12023,16222 L 12023,15993 12068,15993 12068,16017 12069,16017 C 12076,16008 12085,16002 12095,15997 12105,15993 12117,15990 12128,15990 12138,15990 12146,15992 12154,15995 12162,15998 12169,16003 12176,16008 L 12143,16047 C 12140,16046 12138,16044 12136,16043 12134,16041 12132,16040 12130,16039 12127,16038 12124,16038 12122,16037 12119,16036 12116,16036 12113,16036 12102,16036 12092,16040 12082,16047 12073,16055 12068,16067 12068,16084 L 12068,16222 12023,16222 Z M 12023,16222 L 12023,16222 Z M 12200,15993 L 12200,15924 12246,15924 12246,15993 12279,15993 12279,16028 12246,16028 12246,16161 C 12246,16168 12247,16172 12249,16175 12252,16177 12256,16178 12262,16178 L 12279,16178 12279,16222 12255,16222 C 12239,16222 12226,16217 12216,16207 12205,16197 12200,16183 12200,16165 L 12200,16028 12177,16028 12177,15993 12200,15993 Z M 12200,15993 L 12200,15993 Z M 12325,16222 L 12325,15993 12370,15993 12370,16017 12371,16017 C 12378,16008 12387,16002 12397,15997 12407,15993 12418,15990 12430,15990 12446,15990 12459,15993 12468,15999 12478,16005 12486,16012 12494,16020 12504,16010 12515,16002 12526,15997 12537,15993 12551,15990 12566,15990 12568,15990 12570,15991 12572,15991 12574,15991 12576,15991 12578,15991 12594,15994 12609,16002 12622,16015 12635,16028 12642,16046 12642,16069 L 12642,16222 12596,16222 12596,16085 C 12596,16070 12592,16058 12584,16049 12575,16040 12564,16036 12551,16036 12539,16036 12528,16040 12519,16049 12510,16058 12506,16070 12506,16085 L 12506,16222 12460,16222 12460,16085 C 12460,16070 12456,16058 12448,16049 12439,16040 12428,16036 12416,16036 12403,16036 12392,16040 12383,16049 12375,16058 12370,16070 12370,16085 L 12370,16222 12325,16222 Z M 12325,16222 L 12325,16222 Z M 12880,16125 L 12739,16125 C 12739,16144 12744,16158 12754,16167 12764,16176 12777,16181 12793,16181 12795,16181 12796,16181 12798,16181 12800,16181 12802,16181 12804,16180 12810,16179 12817,16177 12824,16173 12831,16170 12837,16165 12843,16159 L 12876,16187 C 12865,16200 12852,16210 12838,16215 12824,16221 12809,16224 12794,16224 12791,16224 12788,16224 12785,16224 12782,16223 12779,16223 12776,16223 12755,16220 12736,16211 12719,16194 12701,16178 12693,16149 12693,16109 12693,16068 12701,16040 12718,16022 12734,16005 12753,15994 12773,15991 12775,15991 12777,15991 12780,15991 12782,15991 12784,15990 12786,15990 12812,15990 12834,15999 12852,16016 12871,16034 12880,16057 12880,16086 L 12880,16125 Z M 12880,16125 L 12880,16125 Z M 12739,16086 L 12834,16086 C 12834,16069 12829,16056 12820,16047 12811,16038 12800,16034 12786,16034 12773,16034 12762,16038 12753,16047 12744,16056 12739,16069 12739,16086 Z M 12739,16086 L 12739,16086 Z M 12928,16222 L 12928,15993 12974,15993 12974,16017 12975,16017 C 12982,16008 12991,16002 13001,15997 13011,15993 13022,15990 13034,15990 13036,15990 13038,15991 13040,15991 13042,15991 13044,15991 13046,15991 13062,15994 13077,16002 13090,16015 13103,16028 13110,16046 13110,16069 L 13110,16222 13064,16222 13064,16085 C 13064,16070 13060,16058 13051,16049 13043,16040 13032,16036 13019,16036 13006,16036 12996,16040 12987,16049 12978,16058 12974,16070 12974,16085 L 12974,16222 12928,16222 Z M 12928,16222 L 12928,16222 Z M 13172,15993 L 13172,15924 13218,15924 13218,15993 13251,15993 13251,16028 13218,16028 13218,16161 C 13218,16168 13219,16172 13221,16175 13224,16177 13228,16178 13234,16178 L 13251,16178 13251,16222 13227,16222 C 13211,16222 13198,16217 13187,16207 13177,16197 13172,16183 13172,16165 L 13172,16028 13149,16028 13149,15993 13172,15993 Z M 13172,15993 L 13172,15993 Z M 13269,16183 L 13301,16152 C 13310,16162 13321,16169 13332,16174 13344,16179 13357,16181 13372,16181 13385,16181 13396,16179 13405,16174 13413,16169 13417,16162 13417,16152 13417,16144 13414,16138 13409,16135 13404,16132 13397,16130 13389,16130 L 13349,16126 C 13330,16125 13315,16118 13302,16107 13290,16095 13283,16080 13283,16060 13283,16037 13292,16020 13308,16008 13324,15996 13344,15990 13368,15990 13388,15990 13405,15993 13420,15999 13434,16004 13446,16012 13458,16021 L 13429,16055 C 13420,16048 13411,16043 13401,16039 13391,16035 13381,16034 13368,16034 13354,16034 13343,16036 13338,16041 13332,16047 13329,16053 13329,16061 13329,16066 13331,16070 13336,16075 13340,16079 13348,16082 13359,16082 L 13397,16085 C 13421,16087 13437,16094 13448,16108 13458,16120 13463,16136 13463,16154 13463,16176 13454,16194 13436,16206 13418,16218 13395,16224 13369,16224 13350,16224 13333,16221 13316,16214 13299,16207 13283,16197 13269,16183 Z"/>
         </g>
        </g>
       </g>
       <g class="com.sun.star.drawing.ClosedBezierShape">
        <g id="id23">
         <rect class="BoundingBox" stroke="none" fill="none" x="7050" y="16883" width="7584" height="368"/>
         <path fill="rgb(27,25,24)" stroke="none" d="M 7050,17164 L 7081,17127 C 7093,17136 7107,17144 7123,17150 7138,17155 7154,17159 7171,17159 7191,17159 7206,17154 7218,17146 7229,17138 7234,17127 7234,17114 7234,17103 7231,17093 7224,17086 7218,17078 7207,17073 7193,17071 7190,17071 7188,17071 7185,17070 7183,17070 7180,17070 7178,17070 7174,17069 7170,17068 7165,17068 7161,17067 7156,17066 7151,17066 7123,17062 7103,17052 7088,17035 7074,17019 7066,16999 7066,16976 7066,16948 7076,16926 7094,16908 7112,16891 7137,16883 7170,16883 7190,16883 7208,16886 7225,16892 7243,16898 7258,16906 7273,16916 L 7246,16955 C 7235,16948 7222,16942 7209,16937 7195,16933 7182,16931 7168,16931 7153,16931 7141,16934 7130,16942 7120,16950 7115,16961 7115,16977 7115,16986 7118,16995 7125,17002 7132,17010 7144,17015 7160,17018 7164,17018 7169,17019 7175,17020 7181,17021 7188,17022 7195,17023 7225,17026 7247,17037 7261,17055 7275,17073 7282,17092 7282,17114 7282,17143 7272,17167 7252,17183 7232,17199 7205,17207 7171,17207 7147,17207 7125,17204 7105,17196 7085,17189 7066,17178 7050,17164 Z M 7050,17164 L 7050,17164 Z M 7599,17108 L 7458,17108 C 7458,17126 7463,17140 7473,17150 7483,17160 7496,17165 7512,17165 7513,17165 7515,17165 7517,17165 7519,17164 7520,17164 7522,17164 7529,17163 7536,17160 7543,17156 7550,17152 7556,17148 7561,17142 L 7594,17171 C 7583,17184 7571,17193 7556,17199 7542,17204 7528,17207 7512,17207 7509,17207 7507,17207 7504,17207 7501,17207 7498,17207 7495,17206 7474,17204 7455,17194 7438,17178 7421,17162 7412,17132 7412,17091 7412,17052 7420,17024 7437,17006 7453,16989 7472,16979 7491,16976 7494,16976 7496,16974 7498,16974 7501,16974 7503,16974 7505,16974 7530,16974 7552,16984 7571,17001 7589,17018 7599,17041 7599,17070 L 7599,17108 Z M 7599,17108 L 7599,17108 Z M 7458,17070 L 7553,17070 C 7552,17053 7548,17040 7539,17031 7530,17022 7519,17018 7505,17018 7492,17018 7481,17022 7472,17031 7463,17040 7458,17053 7458,17070 Z M 7458,17070 L 7458,17070 Z M 7873,17137 L 7907,17168 C 7897,17180 7885,17189 7872,17196 7858,17203 7843,17207 7825,17207 7799,17207 7776,17198 7754,17181 7733,17163 7723,17132 7723,17091 7723,17049 7733,17020 7754,17002 7776,16984 7799,16974 7825,16974 7843,16974 7858,16979 7872,16986 7885,16994 7897,17003 7907,17014 L 7873,17044 C 7868,17037 7861,17032 7853,17027 7845,17023 7837,17020 7827,17020 7809,17020 7794,17026 7784,17037 7774,17048 7768,17066 7768,17091 7768,17115 7774,17133 7784,17144 7794,17155 7809,17162 7827,17162 7837,17162 7845,17160 7853,17154 7861,17150 7868,17144 7873,17137 Z M 7873,17137 L 7873,17137 Z M 8026,17103 L 8026,17058 8161,17058 8161,17103 8026,17103 Z M 8026,17103 L 8026,17103 Z M 8365,17205 L 8365,16933 8320,16966 8320,16918 8365,16885 8410,16885 8410,17205 8365,17205 Z M 8365,17205 L 8365,17205 Z M 8617,17238 L 8617,17159 8663,17159 8663,17205 8617,17238 Z M 8617,17238 L 8617,17238 Z M 9127,17074 L 9127,17029 9240,17029 9240,17094 C 9240,17125 9229,17152 9208,17175 9186,17196 9159,17207 9127,17207 9104,17207 9084,17202 9067,17191 9051,17180 9039,17168 9030,17154 9030,17153 9029,17153 9029,17152 9028,17151 9028,17150 9028,17149 9027,17148 9026,17147 9026,17146 9025,17145 9025,17144 9024,17143 9020,17135 9017,17125 9016,17113 9014,17101 9014,17078 9014,17045 9014,17011 9014,16989 9016,16977 9017,16964 9020,16954 9024,16946 9025,16945 9025,16944 9026,16943 9026,16942 9027,16941 9028,16940 9028,16939 9028,16938 9029,16937 9029,16936 9030,16936 9030,16935 9039,16922 9051,16910 9067,16899 9084,16888 9104,16883 9127,16883 9157,16883 9182,16892 9202,16910 9222,16929 9234,16951 9239,16978 L 9188,16978 C 9184,16964 9177,16954 9166,16945 9155,16935 9142,16931 9127,16931 9116,16931 9106,16933 9098,16938 9090,16942 9083,16948 9078,16954 9077,16955 9077,16956 9076,16957 9075,16957 9075,16958 9074,16959 9069,16966 9066,16976 9065,16986 9063,16997 9062,17016 9062,17045 9062,17074 9063,17094 9065,17104 9066,17114 9069,17123 9074,17130 9075,17131 9075,17132 9076,17133 9077,17133 9077,17134 9078,17135 9083,17141 9090,17147 9098,17151 9106,17156 9116,17159 9127,17159 9145,17159 9161,17152 9173,17140 9186,17127 9192,17111 9192,17091 L 9192,17074 9127,17074 Z M 9127,17074 L 9127,17074 Z M 9386,17205 L 9386,16978 9432,16978 9432,17002 9433,17002 C 9440,16993 9449,16986 9459,16982 9469,16977 9480,16974 9492,16974 9501,16974 9509,16977 9517,16980 9525,16983 9532,16987 9539,16992 L 9506,17032 C 9504,17030 9501,17028 9499,17027 9497,17026 9495,17025 9493,17024 9490,17023 9488,17022 9485,17021 9482,17021 9479,17020 9476,17020 9465,17020 9455,17024 9446,17032 9437,17039 9432,17051 9432,17068 L 9432,17205 9386,17205 Z M 9386,17205 L 9386,17205 Z M 9821,17108 L 9680,17108 C 9680,17126 9685,17140 9696,17150 9706,17160 9719,17165 9734,17165 9736,17165 9738,17165 9740,17165 9741,17164 9743,17164 9745,17164 9752,17163 9759,17160 9766,17156 9772,17152 9778,17148 9784,17142 L 9817,17171 C 9806,17184 9793,17193 9779,17199 9765,17204 9750,17207 9735,17207 9732,17207 9729,17207 9726,17207 9724,17207 9721,17207 9718,17206 9697,17204 9678,17194 9661,17178 9643,17162 9635,17132 9635,17091 9635,17052 9643,17024 9660,17006 9676,16989 9694,16979 9714,16976 9717,16976 9719,16974 9721,16974 9723,16974 9726,16974 9728,16974 9753,16974 9775,16984 9793,17001 9812,17018 9821,17041 9821,17070 L 9821,17108 Z M 9821,17108 L 9821,17108 Z M 9680,17070 L 9776,17070 C 9775,17053 9770,17040 9762,17031 9753,17022 9741,17018 9728,17018 9715,17018 9704,17022 9695,17031 9686,17040 9681,17053 9680,17070 Z M 9680,17070 L 9680,17070 Z M 10082,17205 L 10082,17185 10081,17185 C 10076,17193 10069,17198 10061,17202 10052,17205 10040,17207 10025,17207 10000,17207 9980,17201 9966,17187 9952,17174 9945,17157 9945,17137 9945,17119 9951,17104 9964,17090 9976,17077 9994,17070 10019,17070 L 10082,17070 10082,17047 C 10082,17036 10078,17029 10071,17024 10063,17020 10052,17018 10035,17018 10023,17018 10014,17019 10008,17022 10002,17024 9997,17029 9992,17035 L 9957,17008 C 9965,16996 9976,16987 9989,16982 10001,16977 10016,16974 10033,16974 10061,16974 10084,16980 10101,16991 10118,17002 10127,17022 10127,17050 L 10127,17205 10082,17205 Z M 10082,17205 L 10082,17205 Z M 10082,17124 L 10082,17108 10027,17108 C 10014,17108 10004,17110 9998,17115 9991,17120 9988,17127 9988,17135 9988,17143 9991,17149 9998,17155 10004,17162 10015,17165 10031,17165 10050,17165 10063,17163 10071,17157 10078,17153 10082,17142 10082,17124 Z M 10082,17124 L 10082,17124 Z M 10283,16978 L 10283,16908 10328,16908 10328,16978 10361,16978 10361,17012 10328,17012 10328,17144 C 10328,17150 10329,17155 10332,17157 10334,17161 10339,17162 10344,17162 L 10361,17162 10361,17205 10338,17205 C 10322,17205 10309,17200 10298,17190 10288,17181 10283,17167 10283,17148 L 10283,17012 10260,17012 10260,16978 10283,16978 Z M 10283,16978 L 10283,16978 Z M 10673,17108 L 10532,17108 C 10532,17126 10537,17140 10548,17150 10558,17160 10571,17165 10586,17165 10588,17165 10590,17165 10592,17165 10593,17164 10595,17164 10597,17164 10604,17163 10611,17160 10618,17156 10624,17152 10630,17148 10636,17142 L 10669,17171 C 10658,17184 10645,17193 10631,17199 10617,17204 10602,17207 10587,17207 10584,17207 10581,17207 10578,17207 10576,17207 10573,17207 10570,17206 10549,17204 10530,17194 10513,17178 10495,17162 10487,17132 10487,17091 10487,17052 10495,17024 10512,17006 10528,16989 10546,16979 10566,16976 10569,16976 10571,16974 10573,16974 10575,16974 10578,16974 10580,16974 10605,16974 10627,16984 10645,17001 10664,17018 10673,17041 10673,17070 L 10673,17108 Z M 10673,17108 L 10673,17108 Z M 10532,17070 L 10628,17070 C 10627,17053 10622,17040 10614,17031 10605,17022 10593,17018 10580,17018 10567,17018 10556,17022 10547,17031 10538,17040 10533,17053 10532,17070 Z M 10532,17070 L 10532,17070 Z M 10815,17205 L 10815,16978 10861,16978 10861,17002 10862,17002 C 10870,16993 10878,16986 10888,16982 10898,16977 10909,16974 10921,16974 10931,16974 10939,16977 10947,16980 10954,16983 10962,16987 10969,16992 L 10936,17032 C 10933,17030 10931,17028 10929,17027 10927,17026 10925,17025 10923,17024 10920,17023 10917,17022 10915,17021 10912,17021 10909,17020 10906,17020 10895,17020 10885,17024 10875,17032 10866,17039 10861,17051 10861,17068 L 10861,17205 10815,17205 Z M 10815,17205 L 10815,17205 Z M 11291,17205 L 11291,16885 11336,16885 11480,17112 11481,17112 11481,16885 11529,16885 11529,17205 11484,17205 11340,16978 11339,16978 11339,17205 11291,17205 Z M 11291,17205 L 11291,17205 Z M 11675,17091 C 11675,17066 11677,17049 11680,17037 11684,17025 11690,17014 11699,17005 L 11699,17004 11699,17004 C 11700,17003 11701,17003 11701,17002 11701,17002 11702,17001 11703,17000 11709,16994 11718,16988 11728,16983 11739,16978 11752,16974 11768,16974 11784,16974 11798,16978 11808,16983 11819,16988 11827,16994 11834,17000 11834,17001 11835,17002 11835,17002 11836,17003 11836,17003 11837,17004 L 11837,17004 C 11837,17004 11837,17005 11838,17005 11846,17014 11852,17025 11856,17037 11860,17049 11861,17066 11861,17091 11861,17115 11860,17133 11856,17145 11852,17156 11846,17168 11838,17178 11837,17178 11837,17178 11837,17178 L 11837,17179 C 11836,17179 11836,17180 11835,17180 11835,17181 11834,17182 11834,17182 11827,17188 11819,17194 11808,17199 11798,17205 11784,17207 11768,17207 11752,17207 11739,17205 11728,17199 11718,17194 11709,17188 11703,17182 11702,17182 11701,17181 11701,17180 11701,17180 11700,17179 11699,17179 L 11699,17178 11699,17178 C 11690,17168 11684,17156 11680,17145 11677,17133 11675,17115 11675,17091 Z M 11675,17091 L 11675,17091 Z M 11816,17091 C 11816,17076 11815,17066 11814,17059 11813,17052 11811,17046 11807,17041 11807,17040 11807,17040 11806,17039 11806,17038 11805,17038 11805,17037 11802,17032 11797,17028 11790,17025 11783,17022 11776,17020 11768,17020 11760,17020 11753,17022 11747,17025 11740,17028 11735,17032 11732,17037 11731,17038 11730,17038 11730,17039 11730,17040 11729,17040 11729,17041 11726,17046 11723,17052 11722,17059 11721,17066 11720,17076 11720,17091 11720,17105 11721,17116 11722,17122 11723,17129 11726,17135 11729,17141 11729,17141 11730,17142 11730,17143 11730,17143 11731,17144 11732,17145 11735,17149 11740,17153 11747,17156 11753,17160 11760,17162 11768,17162 11776,17162 11783,17160 11790,17156 11797,17153 11802,17149 11805,17145 11805,17144 11806,17143 11806,17143 11807,17142 11807,17141 11807,17141 11811,17135 11813,17129 11814,17122 11815,17116 11816,17105 11816,17091 Z M 11816,17091 L 11816,17091 Z M 12004,17205 L 12004,16978 12050,16978 12050,17205 12004,17205 Z M 12004,17205 L 12004,17205 Z M 12004,16931 L 12004,16885 12050,16885 12050,16931 12004,16931 Z M 12004,16931 L 12004,16931 Z M 12339,17205 L 12339,17181 C 12332,17189 12324,17195 12313,17200 12303,17205 12292,17207 12281,17207 12267,17207 12255,17204 12245,17199 12235,17193 12227,17186 12220,17178 L 12219,17177 12219,17177 C 12213,17169 12209,17160 12207,17148 12205,17137 12204,17118 12204,17091 12204,17064 12205,17045 12207,17034 12209,17023 12213,17014 12219,17006 L 12219,17005 C 12220,17005 12220,17005 12220,17004 12227,16996 12235,16989 12245,16983 12255,16978 12267,16974 12281,16974 12292,16974 12303,16977 12313,16982 12322,16987 12331,16994 12339,17002 L 12339,16885 12385,16885 12385,17205 12339,17205 Z M 12339,17205 L 12339,17205 Z M 12295,17020 C 12274,17020 12261,17028 12256,17042 12252,17056 12250,17072 12250,17089 12250,17090 12250,17090 12250,17090 L 12250,17091 C 12250,17108 12252,17124 12256,17139 12260,17154 12273,17162 12295,17162 12314,17162 12326,17155 12331,17142 12336,17130 12339,17116 12339,17101 12339,17099 12339,17098 12339,17096 12339,17094 12339,17092 12339,17091 12339,17089 12339,17087 12339,17085 12339,17083 12339,17081 12339,17079 12339,17064 12336,17051 12331,17039 12325,17027 12313,17020 12295,17020 Z M 12295,17020 L 12295,17020 Z M 12648,17205 L 12648,17185 12647,17185 C 12643,17193 12636,17198 12628,17202 12619,17205 12607,17207 12592,17207 12566,17207 12547,17201 12533,17187 12519,17174 12512,17157 12512,17137 12512,17119 12518,17104 12530,17090 12543,17077 12561,17070 12585,17070 L 12648,17070 12648,17047 C 12648,17036 12645,17029 12637,17024 12630,17020 12618,17018 12602,17018 12590,17018 12581,17019 12575,17022 12568,17024 12563,17029 12559,17035 L 12523,17008 C 12532,16996 12543,16987 12555,16982 12568,16977 12583,16974 12600,16974 12628,16974 12650,16980 12668,16991 12685,17002 12694,17022 12694,17050 L 12694,17205 12648,17205 Z M 12648,17205 L 12648,17205 Z M 12648,17124 L 12648,17108 12594,17108 C 12580,17108 12571,17110 12564,17115 12558,17120 12555,17127 12555,17135 12555,17143 12558,17149 12564,17155 12571,17162 12582,17165 12597,17165 12616,17165 12630,17163 12637,17157 12645,17153 12648,17142 12648,17124 Z M 12648,17124 L 12648,17124 Z M 13136,17250 L 13118,17250 C 13102,17232 13088,17212 13078,17191 13067,17170 13059,17147 13054,17125 13052,17116 13050,17106 13049,17097 13048,17087 13047,17077 13047,17068 13047,17058 13048,17049 13049,17039 13050,17029 13052,17020 13054,17010 13059,16988 13067,16966 13078,16944 13088,16923 13102,16903 13118,16885 L 13136,16885 C 13122,16913 13112,16942 13104,16973 13097,17004 13093,17035 13093,17068 13093,17100 13097,17132 13104,17163 13112,17193 13122,17222 13136,17250 Z M 13136,17250 L 13136,17250 Z M 13323,17205 L 13244,16885 13294,16885 13344,17112 13345,17112 13407,16885 13442,16885 13503,17112 13504,17112 13554,16885 13605,16885 13526,17205 13485,17205 13425,16974 13424,16974 13363,17205 13323,17205 Z M 13323,17205 L 13323,17205 Z M 13897,17108 L 13756,17108 C 13756,17126 13762,17140 13772,17150 13782,17160 13795,17165 13810,17165 13812,17165 13814,17165 13816,17165 13818,17164 13819,17164 13821,17164 13828,17163 13835,17160 13842,17156 13849,17152 13855,17148 13860,17142 L 13893,17171 C 13882,17184 13869,17193 13855,17199 13841,17204 13827,17207 13811,17207 13808,17207 13805,17207 13803,17207 13800,17207 13797,17207 13794,17206 13773,17204 13754,17194 13737,17178 13720,17162 13711,17132 13711,17091 13711,17052 13719,17024 13736,17006 13752,16989 13770,16979 13790,16976 13793,16976 13795,16974 13797,16974 13800,16974 13802,16974 13804,16974 13829,16974 13851,16984 13870,17001 13888,17018 13897,17041 13897,17070 L 13897,17108 Z M 13897,17108 L 13897,17108 Z M 13756,17070 L 13852,17070 C 13851,17053 13847,17040 13838,17031 13829,17022 13818,17018 13804,17018 13791,17018 13780,17022 13771,17031 13762,17040 13757,17053 13756,17070 Z M 13756,17070 L 13756,17070 Z M 14014,17167 L 14046,17135 C 14056,17144 14066,17151 14077,17156 14089,17162 14102,17165 14117,17165 14130,17165 14141,17162 14149,17156 14158,17151 14162,17144 14162,17135 14162,17127 14159,17121 14154,17118 14148,17115 14142,17113 14134,17112 L 14094,17109 C 14075,17107 14060,17101 14047,17090 14035,17079 14029,17064 14029,17045 14029,17022 14037,17004 14053,16993 14069,16981 14089,16974 14113,16974 14133,16974 14150,16978 14164,16983 14178,16989 14191,16996 14202,17006 L 14174,17039 C 14165,17033 14156,17027 14146,17024 14136,17020 14125,17018 14113,17018 14099,17018 14089,17020 14083,17026 14077,17031 14074,17037 14074,17045 14074,17050 14077,17054 14081,17059 14085,17063 14093,17066 14104,17066 L 14142,17069 C 14165,17071 14182,17078 14192,17091 14202,17103 14207,17119 14207,17137 14207,17160 14198,17177 14180,17189 14162,17201 14140,17207 14114,17207 14095,17207 14078,17204 14061,17197 14044,17191 14029,17181 14014,17167 Z M 14014,17167 L 14014,17167 Z M 14350,16978 L 14350,16908 14395,16908 14395,16978 14428,16978 14428,17012 14395,17012 14395,17144 C 14395,17150 14397,17155 14399,17157 14402,17161 14406,17162 14411,17162 L 14428,17162 14428,17205 14405,17205 C 14389,17205 14376,17200 14366,17190 14355,17181 14350,17167 14350,17148 L 14350,17012 14327,17012 14327,16978 14350,16978 Z M 14350,16978 L 14350,16978 Z M 14545,16885 L 14563,16885 C 14579,16903 14592,16923 14603,16944 14613,16966 14621,16988 14626,17010 14628,17020 14630,17029 14631,17039 14632,17049 14633,17058 14633,17068 14633,17077 14632,17087 14631,17097 14630,17106 14628,17116 14626,17125 14621,17147 14613,17170 14603,17191 14592,17212 14579,17232 14563,17250 L 14545,17250 C 14558,17222 14569,17193 14576,17163 14584,17132 14587,17100 14587,17068 14587,17035 14584,17004 14576,16973 14569,16942 14558,16913 14545,16885 Z"/>
        </g>
       </g>
      </g>
     </g>
    </g>
   </g>
  </g>
 </g>
</svg>