<?xml version="1.0" encoding="UTF-8"?>
<!DOCTYPE svg PUBLIC "-//W3C//DTD SVG 1.1//EN" "http://www.w3.org/Graphics/SVG/1.1/DTD/svg11.dtd">
<svg version="1.2" width="148mm" height="100mm" viewBox="0 0 14800 10000" preserveAspectRatio="xMidYMid" fill-rule="evenodd" stroke-width="28.222" stroke-linejoin="round" xmlns="http://www.w3.org/2000/svg" xmlns:ooo="http://xml.openoffice.org/svg/export" xmlns:xlink="http://www.w3.org/1999/xlink" xmlns:presentation="http://sun.com/xmlns/staroffice/presentation" xmlns:smil="http://www.w3.org/2001/SMIL20/" xmlns:anim="urn:oasis:names:tc:opendocument:xmlns:animation:1.0" xml:space="preserve">
 <defs class="ClipPathGroup">
  <clipPath id="presentation_clip_path" clipPathUnits="userSpaceOnUse">
   <rect x="0" y="0" width="14800" height="10000"/>
  </clipPath>
  <clipPath id="presentation_clip_path_shrink" clipPathUnits="userSpaceOnUse">
   <rect x="14" y="10" width="14771" height="9980"/>
  </clipPath>
 </defs>
 <defs class="TextShapeIndex">
  <g ooo:slide="id1" ooo:id-list="id3 id4 id5 id6 id7 id8 id9 id10 id11 id12 id13 id14 id15 id16 id17 id18 id19 id20 id21 id22 id23"/>
 </defs>
 <defs class="EmbeddedBulletChars">
  <g id="bullet-char-template-57356" transform="scale(0.00048828125,-0.00048828125)">
   <path d="M 580,1141 L 1163,571 580,0 -4,571 580,1141 Z"/>
  </g>
  <g id="bullet-char-template-57354" transform="scale(0.00048828125,-0.00048828125)">
   <path d="M 8,1128 L 1137,1128 1137,0 8,0 8,1128 Z"/>
  </g>
  <g id="bullet-char-template-10146" transform="scale(0.00048828125,-0.00048828125)">
   <path d="M 174,0 L 602,739 174,1481 1456,739 174,0 Z M 1358,739 L 309,1346 659,739 1358,739 Z"/>
  </g>
  <g id="bullet-char-template-10132" transform="scale(0.00048828125,-0.00048828125)">
   <path d="M 2015,739 L 1276,0 717,0 1260,543 174,543 174,936 1260,936 717,1481 1274,1481 2015,739 Z"/>
  </g>
  <g id="bullet-char-template-10007" transform="scale(0.00048828125,-0.00048828125)">
   <path d="M 0,-2 C -7,14 -16,27 -25,37 L 356,567 C 262,823 215,952 215,954 215,979 228,992 255,992 264,992 276,990 289,987 310,991 331,999 354,1012 L 381,999 492,748 772,1049 836,1024 860,1049 C 881,1039 901,1025 922,1006 886,937 835,863 770,784 769,783 710,716 594,584 L 774,223 C 774,196 753,168 711,139 L 727,119 C 717,90 699,76 672,76 641,76 570,178 457,381 L 164,-76 C 142,-110 111,-127 72,-127 30,-127 9,-110 8,-76 1,-67 -2,-52 -2,-32 -2,-23 -1,-13 0,-2 Z"/>
  </g>
  <g id="bullet-char-template-10004" transform="scale(0.00048828125,-0.00048828125)">
   <path d="M 285,-33 C 182,-33 111,30 74,156 52,228 41,333 41,471 41,549 55,616 82,672 116,743 169,778 240,778 293,778 328,747 346,684 L 369,508 C 377,444 397,411 428,410 L 1163,1116 C 1174,1127 1196,1133 1229,1133 1271,1133 1292,1118 1292,1087 L 1292,965 C 1292,929 1282,901 1262,881 L 442,47 C 390,-6 338,-33 285,-33 Z"/>
  </g>
  <g id="bullet-char-template-9679" transform="scale(0.00048828125,-0.00048828125)">
   <path d="M 813,0 C 632,0 489,54 383,161 276,268 223,411 223,592 223,773 276,916 383,1023 489,1130 632,1184 813,1184 992,1184 1136,1130 1245,1023 1353,916 1407,772 1407,592 1407,412 1353,268 1245,161 1136,54 992,0 813,0 Z"/>
  </g>
  <g id="bullet-char-template-8226" transform="scale(0.00048828125,-0.00048828125)">
   <path d="M 346,457 C 273,457 209,483 155,535 101,586 74,649 74,723 74,796 101,859 155,911 209,963 273,989 346,989 419,989 480,963 531,910 582,859 608,796 608,723 608,648 583,586 532,535 482,483 420,457 346,457 Z"/>
  </g>
  <g id="bullet-char-template-8211" transform="scale(0.00048828125,-0.00048828125)">
   <path d="M -4,459 L 1135,459 1135,606 -4,606 -4,459 Z"/>
  </g>
  <g id="bullet-char-template-61548" transform="scale(0.00048828125,-0.00048828125)">
   <path d="M 173,740 C 173,903 231,1043 346,1159 462,1274 601,1332 765,1332 928,1332 1067,1274 1183,1159 1299,1043 1357,903 1357,740 1357,577 1299,437 1183,322 1067,206 928,148 765,148 601,148 462,206 346,322 231,437 173,577 173,740 Z"/>
  </g>
 </defs>
 <g>
  <g id="id2" class="Master_Slide">
   <g id="bg-id2" class="Background"/>
   <g id="bo-id2" class="BackgroundObjects"/>
  </g>
 </g>
 <g class="SlideGroup">
  <g>
   <g id="container-id1">
    <g id="id1" class="Slide" clip-path="url(#presentation_clip_path)">
     <g class="Page">
      <g class="Group">
       <g class="Group">
        <g class="Group">
         <g class="com.sun.star.drawing.ClosedBezierShape">
          <g id="id3">
           <rect class="BoundingBox" stroke="none" fill="none" x="9214" y="1930" width="1235" height="814"/>
           <path fill="rgb(174,115,18)" stroke="none" d="M 9218,2278 C 9267,1849 9898,1863 10448,2073 10153,2577 9595,2970 9306,2592 9228,2491 9205,2404 9218,2278 Z"/>
          </g>
         </g>
         <g class="com.sun.star.drawing.ClosedBezierShape">
          <g id="id4">
           <rect class="BoundingBox" stroke="none" fill="none" x="8005" y="1966" width="1229" height="851"/>
           <path fill="rgb(174,115,18)" stroke="none" d="M 9160,2631 C 8931,3024 8389,2733 8006,2281 8479,1928 9135,1798 9223,2288 9245,2420 9230,2515 9160,2631 Z"/>
          </g>
         </g>
         <g class="com.sun.star.drawing.ClosedBezierShape">
          <g id="id5">
           <rect class="BoundingBox" stroke="none" fill="none" x="8171" y="1369" width="1221" height="1244"/>
           <path fill="rgb(174,115,18)" stroke="none" d="M 9020,2576 C 8509,2777 8208,2090 8171,1369 8885,1390 9607,1759 9330,2296 9255,2440 9169,2517 9020,2576 Z"/>
          </g>
         </g>
         <g class="com.sun.star.drawing.ClosedBezierShape">
          <g id="id6">
           <rect class="BoundingBox" stroke="none" fill="none" x="8977" y="1215" width="1145" height="1326"/>
           <path fill="rgb(174,115,18)" stroke="none" d="M 9057,2286 C 8753,1843 9375,1407 10087,1215 10212,1900 9994,2668 9402,2521 9241,2481 9147,2416 9057,2286 Z"/>
          </g>
         </g>
         <g class="com.sun.star.drawing.ClosedBezierShape">
          <g id="id7">
           <rect class="BoundingBox" stroke="none" fill="none" x="8614" y="755" width="1127" height="1686"/>
           <g>
            <defs>
             <linearGradient id="gradient1" x1="8875" y1="670" x2="9477" y2="2524" gradientUnits="userSpaceOnUse">
              <stop offset="0.23" style="stop-color:rgb(174,115,18)"/>
              <stop offset="1" style="stop-color:rgb(255,255,255)"/>
             </linearGradient>
            </defs>
            <path style="fill:url(#gradient1)" d="M 8974,2406 L 8921,2387 8874,2365 8830,2340 8791,2311 8756,2279 8725,2245 8698,2207 8676,2166 8656,2123 8641,2078 8621,1980 8614,1874 8621,1762 8639,1644 8669,1521 8709,1395 8759,1267 8818,1138 8885,1009 9041,755 9154,855 9259,961 9357,1071 9447,1186 9527,1302 9595,1420 9652,1537 9695,1653 9725,1766 9739,1876 9739,1928 9736,1979 9728,2029 9715,2077 9698,2123 9676,2166 9649,2208 9617,2247 9580,2283 9537,2317 9489,2347 9435,2375 9376,2400 9319,2418 9263,2431 9235,2435 9208,2438 9180,2439 9152,2439 9124,2437 9095,2434 9036,2423 8974,2406 Z"/>
           </g>
          </g>
         </g>
         <g class="com.sun.star.drawing.ClosedBezierShape">
          <g id="id8">
           <rect class="BoundingBox" stroke="none" fill="none" x="8614" y="1446" width="777" height="993"/>
          </g>
         </g>
         <g class="com.sun.star.drawing.ClosedBezierShape">
          <g id="id9">
           <rect class="BoundingBox" stroke="none" fill="none" x="8977" y="1400" width="766" height="1040"/>
          </g>
         </g>
         <g class="com.sun.star.drawing.ClosedBezierShape">
          <g id="id10">
           <rect class="BoundingBox" stroke="none" fill="none" x="9214" y="1930" width="527" height="507"/>
          </g>
         </g>
         <g class="com.sun.star.drawing.ClosedBezierShape">
          <g id="id11">
           <rect class="BoundingBox" stroke="none" fill="none" x="9449" y="1930" width="870" height="614"/>
          </g>
         </g>
         <g class="com.sun.star.drawing.ClosedBezierShape">
          <g id="id12">
           <rect class="BoundingBox" stroke="none" fill="none" x="8548" y="1966" width="921" height="647"/>
          </g>
         </g>
         <g class="com.sun.star.drawing.ClosedBezierShape">
          <g id="id13">
           <rect class="BoundingBox" stroke="none" fill="none" x="8977" y="1676" width="415" height="762"/>
          </g>
         </g>
         <g class="com.sun.star.drawing.ClosedBezierShape">
          <g id="id14">
           <rect class="BoundingBox" stroke="none" fill="none" x="117" y="1592" width="4243" height="3676"/>
           <path fill="rgb(152,39,24)" stroke="none" d="M 3592,2293 C 4044,2440 4358,2727 4358,3238 4358,3741 4137,4163 3790,4515 3272,5038 2635,5266 1909,5266 1482,5266 1050,5182 690,4935 295,4664 117,4275 117,3794 117,3048 496,2507 1113,2124 1725,1747 2407,1593 3117,1593 3337,1593 3557,1605 3771,1641 L 3812,1647 3592,2293 Z M 3592,2293 L 3592,2293 Z M 1155,3962 L 1218,3827 C 1280,3691 1389,3624 1536,3624 L 1835,3624 C 1953,3624 2070,3616 2188,3598 2484,3556 2728,3417 2921,3187 3102,2972 3230,2687 3325,2420 3196,2390 3066,2373 2938,2373 2643,2373 2358,2437 2112,2607 1857,2783 1707,3034 1634,3336 L 1614,3417 1571,3346 C 1531,3279 1510,3207 1510,3130 1510,2768 1749,2540 2057,2396 2344,2262 2652,2205 2966,2205 3100,2205 3232,2215 3365,2236 L 3386,2239 3479,1924 C 3235,1888 2988,1864 2747,1864 2172,1864 1514,1963 1079,2382 699,2754 518,3211 518,3744 518,4111 621,4444 898,4690 1228,4981 1649,5079 2077,5079 2574,5079 3017,4930 3392,4595 3783,4245 3966,3804 3966,3279 3966,3104 3934,2933 3854,2777 3780,2632 3675,2523 3524,2473 3355,2905 3107,3303 2745,3595 2410,3866 2030,4010 1600,4005 L 1392,4005 C 1318,4003 1242,4029 1174,4062 L 1089,4101 1128,4017 C 1135,4000 1145,3978 1155,3962 Z"/>
          </g>
         </g>
         <g class="com.sun.star.drawing.ClosedBezierShape">
          <g id="id15">
           <rect class="BoundingBox" stroke="none" fill="none" x="3678" y="2328" width="2543" height="4415"/>
           <path fill="rgb(152,39,24)" stroke="none" d="M 5530,2819 C 5914,2830 6220,2977 6220,3418 6220,3665 6151,3904 6049,4125 5946,4347 5811,4551 5642,4726 5474,4897 5222,5117 4970,5117 4854,5117 4767,5066 4767,4940 4767,4889 4782,4839 4808,4794 L 4825,4762 4855,4782 C 4916,4824 5002,4868 5078,4868 5269,4868 5420,4733 5532,4589 5638,4450 5719,4293 5784,4130 5846,3974 5897,3797 5897,3626 5897,3296 5696,3181 5398,3175 L 5379,3226 C 5217,3655 5058,4087 4891,4515 L 4084,6608 4072,6613 C 3986,6651 3883,6679 3793,6706 L 3678,6742 3741,6588 C 4094,5731 4416,4861 4711,3981 L 4742,3887 4793,3878 C 4872,3863 4936,3823 4984,3755 5018,3703 5046,3634 5072,3578 5121,3466 5165,3353 5209,3240 L 5232,3175 5209,3175 C 5083,3171 4953,3183 4826,3200 L 4674,3600 4536,3538 4789,2854 4859,2847 5087,2833 5342,2821 C 5347,2821 5354,2821 5361,2821 L 5533,2329 5696,2329 5530,2819 Z"/>
          </g>
         </g>
         <g class="com.sun.star.drawing.ClosedBezierShape">
          <g id="id16">
           <rect class="BoundingBox" stroke="none" fill="none" x="5893" y="1285" width="2434" height="3942"/>
           <path fill="rgb(152,39,24)" stroke="none" d="M 6727,4039 C 7057,3633 7742,2831 8159,2831 8266,2831 8325,2891 8325,3000 8325,3096 8261,3245 8224,3332 L 8051,3713 C 7940,3966 7828,4220 7728,4479 7699,4549 7622,4746 7622,4822 7622,4844 7630,4848 7652,4848 7715,4848 7828,4788 7880,4758 L 7933,4728 8022,4858 7989,4877 C 7767,4999 7522,5098 7283,5184 L 7165,5225 7168,5174 C 7184,4969 7267,4722 7334,4532 7459,4180 7612,3837 7767,3501 7792,3449 7853,3315 7853,3259 7853,3235 7852,3207 7823,3207 7664,3207 7338,3573 7241,3681 6886,4084 6565,4540 6350,5038 L 6342,5057 6323,5059 C 6201,5074 6085,5110 5976,5167 L 5893,5211 5959,5050 C 6078,4767 6193,4480 6306,4192 L 6957,2531 C 7020,2372 7082,2207 7133,2044 7155,1975 7190,1860 7190,1788 7190,1747 7179,1726 7136,1726 7092,1726 7028,1749 6988,1764 L 6918,1792 6867,1644 6901,1634 C 7125,1556 7346,1462 7552,1342 L 7652,1285 7656,1340 C 7657,1366 7657,1393 7657,1421 7657,1548 7620,1701 7586,1824 7527,2037 7451,2250 7373,2457 7365,2483 7353,2509 7343,2535 7317,2598 7290,2662 7265,2725 7165,2967 7067,3211 6967,3453 L 6727,4039 Z"/>
          </g>
         </g>
         <g class="com.sun.star.drawing.ClosedBezierShape">
          <g id="id17">
           <rect class="BoundingBox" stroke="none" fill="none" x="8149" y="2821" width="1169" height="2402"/>
           <path fill="rgb(152,39,24)" stroke="none" d="M 8609,4848 C 8623,4858 8645,4861 8660,4861 8707,4863 8788,4836 8832,4820 L 8861,4808 8924,4954 8892,4968 C 8665,5059 8428,5148 8193,5210 L 8149,5222 8151,5175 C 8171,4801 8384,4311 8543,3976 8621,3813 8699,3646 8768,3478 8790,3427 8841,3302 8844,3245 8846,3211 8839,3192 8804,3188 8778,3187 8748,3192 8721,3199 L 8602,3231 8601,3231 C 8587,3235 8567,3242 8553,3247 L 8521,3257 8472,3097 8565,3075 C 8777,3020 8985,2948 9186,2871 L 9316,2821 9316,2900 C 9316,3159 9078,3689 8971,3924 L 8766,4374 C 8729,4451 8602,4728 8599,4810 8599,4824 8601,4837 8609,4848 Z"/>
          </g>
         </g>
         <g class="com.sun.star.drawing.ClosedBezierShape">
          <g id="id18">
           <rect class="BoundingBox" stroke="none" fill="none" x="9089" y="2747" width="2036" height="2486"/>
           <path fill="rgb(152,39,24)" stroke="none" d="M 10077,3449 C 10283,3207 10674,2789 10956,2789 11005,2789 11054,2806 11098,2828 L 11124,2842 11005,3181 10977,3175 C 10919,3163 10858,3154 10799,3154 10529,3154 10287,3439 10141,3638 10026,3797 9932,3990 9854,4170 9737,4438 9639,4719 9549,4999 L 9512,5110 9494,5115 C 9379,5141 9265,5172 9155,5210 L 9089,5232 9144,5081 9385,4426 C 9475,4182 9565,3935 9644,3686 9671,3597 9729,3420 9729,3326 9729,3293 9722,3274 9688,3274 9656,3274 9548,3329 9519,3344 L 9485,3363 9423,3211 9451,3197 C 9693,3079 9925,2940 10138,2778 L 10180,2747 10192,2799 C 10199,2831 10204,2864 10204,2898 10204,3051 10140,3267 10077,3449 Z"/>
          </g>
         </g>
         <g class="com.sun.star.drawing.ClosedBezierShape">
          <g id="id19">
           <rect class="BoundingBox" stroke="none" fill="none" x="9894" y="3090" width="4908" height="3607"/>
           <path fill="rgb(152,39,24)" stroke="none" d="M 11055,4581 C 10993,4663 10927,4742 10854,4816 10751,4924 10636,5027 10511,5110 10428,5164 10318,5224 10215,5226 10157,5224 10101,5211 10052,5180 10007,5152 9968,5118 9941,5072 9915,5031 9899,4984 9895,4935 9888,4804 9929,4670 9983,4554 10054,4403 10149,4264 10252,4135 10370,3987 10506,3855 10649,3735 10795,3615 10954,3510 11123,3426 11273,3351 11436,3298 11603,3277 11612,3258 11622,3241 11632,3224 11647,3198 11667,3172 11698,3169 L 11699,3169 11701,3169 C 11759,3169 11816,3167 11874,3165 11918,3160 11963,3155 12007,3143 12048,3134 12088,3119 12126,3098 12149,3090 12176,3085 12198,3102 L 12198,3104 12200,3104 C 12213,3119 12219,3140 12220,3160 L 12220,3171 12215,3181 C 12122,3334 12036,3491 11953,3651 11875,3802 11799,3955 11732,4113 11677,4234 11627,4361 11588,4487 11546,4636 11481,4924 11623,5036 11733,5123 11984,5086 12109,5063 12367,5017 12631,4935 12883,4857 13089,4794 13296,4727 13505,4670 13658,4631 13844,4583 14001,4581 14148,4579 14309,4596 14446,4657 14552,4705 14645,4773 14704,4876 14765,4979 14794,5096 14799,5214 14808,5358 14764,5497 14694,5623 14613,5770 14507,5904 14386,6021 14255,6149 14109,6263 13955,6362 13803,6458 13644,6541 13477,6602 13333,6656 13179,6693 13023,6695 12942,6693 12870,6668 12807,6616 12748,6568 12699,6510 12658,6443 12648,6424 12636,6402 12643,6379 12655,6336 12699,6348 12726,6362 L 12731,6364 12734,6367 C 12760,6391 12797,6405 12831,6414 12880,6427 12934,6433 12986,6433 13093,6433 13203,6412 13306,6388 13433,6355 13558,6312 13680,6261 13808,6208 13933,6141 14053,6069 14167,6000 14275,5921 14373,5830 14459,5750 14537,5662 14593,5559 14640,5473 14665,5382 14660,5285 14652,5170 14571,5110 14471,5073 14304,5015 14082,5007 13908,5007 13517,5008 13160,5063 12778,5128 12413,5192 12066,5242 11694,5243 11540,5243 11365,5223 11229,5142 11037,5027 11013,4792 11055,4581 Z M 11055,4581 L 11055,4581 Z M 11549,3409 C 11454,3414 11363,3447 11282,3493 11172,3553 11074,3632 10986,3721 10888,3819 10803,3927 10730,4046 10658,4161 10599,4282 10556,4411 10519,4526 10499,4648 10507,4768 10507,4785 10517,4804 10526,4820 10534,4832 10543,4840 10558,4840 10594,4842 10680,4775 10707,4753 10807,4670 10903,4547 10981,4442 11111,4267 11224,4066 11322,3869 11363,3792 11402,3713 11439,3636 11476,3560 11513,3485 11549,3409 Z"/>
          </g>
         </g>
         <g class="com.sun.star.drawing.ClosedBezierShape">
          <g id="id20">
           <rect class="BoundingBox" stroke="none" fill="none" x="8005" y="750" width="2444" height="2065"/>
          </g>
         </g>
         <g class="com.sun.star.drawing.ClosedBezierShape">
          <g id="id21">
           <rect class="BoundingBox" stroke="none" fill="none" x="9042" y="2196" width="324" height="319"/>
           <path fill="rgb(255,255,255)" stroke="none" d="M 9246,2197 C 9332,2204 9371,2250 9364,2338 9359,2386 9337,2427 9296,2465 9254,2501 9210,2516 9163,2513 9075,2506 9038,2460 9043,2372 9046,2322 9068,2279 9109,2243 9151,2207 9196,2194 9246,2197 Z"/>
          </g>
         </g>
        </g>
        <g class="com.sun.star.drawing.ClosedBezierShape">
         <g id="id22">
          <rect class="BoundingBox" stroke="none" fill="none" x="5027" y="5377" width="6866" height="714"/>
          <path fill="rgb(67,43,23)" stroke="none" d="M 5028,5932 L 5028,5857 5237,5587 C 5246,5577 5253,5567 5254,5558 5256,5549 5258,5541 5258,5534 5258,5532 5258,5532 5258,5532 L 5258,5531 C 5258,5512 5251,5495 5237,5479 5224,5464 5205,5455 5183,5455 5163,5455 5144,5462 5129,5477 5114,5491 5105,5510 5104,5534 L 5028,5534 C 5028,5489 5043,5453 5072,5422 5102,5392 5136,5378 5176,5378 5222,5378 5259,5392 5290,5422 5320,5453 5335,5491 5335,5534 5335,5551 5332,5568 5327,5585 5322,5601 5313,5616 5302,5630 L 5129,5853 5335,5853 5335,5932 5028,5932 Z M 5028,5932 L 5028,5932 Z M 5843,5932 L 5794,5875 C 5770,5893 5746,5906 5723,5918 5697,5930 5670,5936 5642,5936 5591,5936 5550,5918 5518,5886 5488,5851 5471,5812 5471,5767 5471,5735 5481,5702 5498,5675 5516,5646 5542,5623 5574,5606 5562,5591 5552,5573 5543,5556 5533,5539 5530,5520 5530,5501 5530,5469 5540,5440 5564,5414 5586,5390 5614,5378 5652,5378 5687,5378 5718,5390 5740,5414 5762,5440 5772,5469 5772,5501 5772,5527 5765,5549 5751,5570 5738,5591 5714,5609 5682,5623 L 5797,5767 C 5809,5752 5817,5738 5826,5721 5833,5706 5839,5690 5844,5673 L 5914,5700 C 5910,5707 5909,5714 5905,5719 5902,5726 5900,5735 5897,5742 5888,5755 5882,5769 5871,5783 5863,5798 5853,5810 5843,5821 L 5934,5932 5843,5932 Z M 5843,5932 L 5843,5932 Z M 5748,5819 L 5618,5658 C 5591,5673 5570,5690 5559,5707 5545,5726 5540,5747 5540,5767 5540,5795 5550,5819 5569,5838 5589,5857 5613,5867 5640,5867 5650,5867 5660,5865 5672,5862 5684,5860 5694,5855 5706,5850 5713,5845 5719,5841 5728,5836 5735,5831 5741,5826 5748,5819 Z M 5748,5819 L 5748,5819 Z M 5598,5498 C 5598,5503 5599,5508 5601,5515 5603,5520 5604,5525 5608,5531 5611,5537 5614,5544 5620,5549 5626,5556 5631,5563 5638,5568 5663,5560 5680,5548 5691,5537 5699,5525 5704,5512 5704,5498 5704,5484 5699,5472 5689,5462 5679,5452 5667,5446 5652,5446 5636,5446 5623,5452 5613,5462 5603,5472 5598,5484 5598,5498 Z M 5598,5498 L 5598,5498 Z M 6142,5682 L 6142,5613 6169,5613 C 6194,5613 6215,5604 6230,5591 6244,5575 6252,5556 6252,5534 6252,5512 6244,5493 6228,5477 6213,5464 6194,5455 6172,5455 L 6171,5455 6169,5455 C 6154,5457 6139,5462 6125,5472 6112,5484 6103,5500 6098,5522 L 6022,5522 C 6024,5483 6041,5448 6069,5421 6098,5392 6132,5378 6169,5378 6218,5378 6257,5393 6286,5426 6315,5457 6330,5493 6330,5534 6330,5534 6330,5536 6330,5537 6330,5537 6330,5539 6330,5541 6328,5560 6323,5579 6316,5597 6308,5616 6293,5632 6272,5646 6293,5659 6308,5676 6318,5695 6328,5714 6333,5736 6335,5757 6335,5759 6335,5760 6335,5762 6335,5764 6335,5766 6335,5767 6335,5819 6320,5860 6287,5889 6257,5920 6218,5936 6171,5936 6135,5936 6101,5924 6073,5899 6044,5875 6025,5841 6019,5795 L 6095,5795 C 6103,5814 6112,5829 6125,5841 6137,5851 6154,5857 6176,5857 6198,5857 6216,5850 6233,5834 6250,5819 6257,5797 6257,5771 6257,5743 6250,5721 6233,5706 6216,5690 6198,5682 6174,5682 L 6142,5682 Z M 6142,5682 L 6142,5682 Z M 6612,5932 L 6612,5381 6820,5381 C 6873,5381 6913,5395 6940,5422 6967,5450 6981,5486 6981,5529 6981,5551 6976,5573 6964,5594 6954,5615 6932,5632 6901,5646 L 6901,5647 C 6930,5654 6950,5670 6966,5694 6981,5716 6988,5743 6989,5771 L 6989,5773 C 6989,5774 6989,5774 6989,5776 6989,5822 6974,5860 6944,5889 6915,5917 6879,5932 6839,5932 L 6612,5932 Z M 6612,5932 L 6612,5932 Z M 6818,5687 L 6693,5687 6693,5853 6818,5853 C 6849,5853 6873,5845 6886,5827 6900,5812 6906,5791 6906,5771 6906,5748 6900,5728 6886,5711 6873,5695 6849,5687 6818,5687 Z M 6818,5687 L 6818,5687 Z M 6812,5455 L 6693,5455 6693,5613 6812,5613 C 6842,5613 6864,5604 6878,5589 6891,5573 6900,5556 6900,5534 6900,5513 6891,5495 6878,5479 6864,5464 6842,5455 6812,5455 Z M 6812,5455 L 6812,5455 Z M 7370,5932 L 7370,5690 7157,5690 7157,5932 7074,5932 7074,5381 7157,5381 7157,5616 7370,5616 7370,5381 7451,5381 7451,5932 7370,5932 Z M 7370,5932 L 7370,5932 Z M 7566,5932 L 7566,5381 7647,5381 7647,5664 7649,5664 7872,5381 7968,5381 7796,5597 7987,5932 7889,5932 7742,5661 7647,5764 7647,5932 7566,5932 Z M 7566,5932 L 7566,5932 Z M 8545,5932 L 8504,5809 8298,5809 8256,5932 8170,5932 8366,5381 8433,5381 8633,5932 8545,5932 Z M 8545,5932 L 8545,5932 Z M 8322,5735 L 8481,5735 8401,5495 8400,5495 8322,5735 Z M 8322,5735 L 8322,5735 Z M 8684,6090 L 8684,5539 8760,5539 8760,5580 C 8772,5567 8787,5556 8804,5548 8822,5539 8839,5534 8859,5534 8883,5534 8903,5539 8920,5549 8937,5558 8951,5570 8963,5585 L 8964,5587 8964,5587 C 8974,5601 8981,5618 8985,5637 8988,5656 8990,5688 8990,5736 8990,5783 8988,5815 8985,5834 8981,5853 8974,5869 8964,5882 L 8964,5884 C 8964,5884 8963,5884 8963,5886 8951,5899 8937,5911 8920,5920 8903,5930 8883,5936 8859,5936 8839,5936 8822,5930 8805,5924 8790,5915 8775,5903 8760,5889 L 8760,6090 8684,6090 Z M 8684,6090 L 8684,6090 Z M 8836,5857 C 8871,5857 8893,5845 8902,5821 8909,5797 8912,5769 8912,5738 L 8912,5738 8912,5736 C 8912,5704 8909,5676 8902,5651 8895,5627 8873,5613 8836,5613 8804,5613 8783,5623 8775,5646 8766,5668 8761,5690 8760,5716 8760,5719 8760,5723 8760,5726 8760,5728 8760,5731 8760,5736 8760,5740 8760,5743 8760,5747 8760,5750 8760,5754 8760,5757 8761,5781 8766,5805 8775,5826 8783,5846 8804,5857 8836,5857 Z M 8836,5857 L 8836,5857 Z M 9279,5932 L 9279,5896 9277,5896 C 9269,5910 9257,5920 9243,5925 9228,5932 9208,5936 9182,5936 9139,5936 9106,5924 9081,5901 9057,5879 9046,5850 9046,5817 9046,5785 9057,5759 9078,5735 9098,5711 9130,5699 9171,5699 L 9279,5699 9279,5659 C 9279,5640 9272,5627 9260,5620 9247,5613 9226,5609 9199,5609 9179,5609 9164,5611 9154,5615 9142,5620 9133,5627 9127,5639 L 9066,5592 C 9081,5570 9098,5556 9120,5548 9142,5539 9167,5534 9196,5534 9243,5534 9282,5544 9311,5563 9341,5582 9355,5615 9355,5663 L 9355,5932 9279,5932 Z M 9279,5932 L 9279,5932 Z M 9279,5795 L 9279,5766 9186,5766 C 9162,5766 9147,5771 9135,5779 9125,5786 9118,5798 9118,5812 9118,5826 9125,5838 9135,5846 9147,5857 9166,5862 9193,5862 9225,5862 9247,5858 9259,5851 9272,5843 9279,5824 9279,5795 Z M 9279,5795 L 9279,5795 Z M 9456,5932 L 9456,5539 9533,5539 9533,5580 9534,5580 C 9546,5565 9561,5555 9578,5546 9595,5539 9615,5534 9634,5534 9651,5534 9664,5537 9678,5543 9691,5548 9703,5556 9715,5565 L 9659,5632 C 9654,5630 9651,5627 9648,5625 9644,5622 9641,5620 9637,5618 9632,5616 9627,5616 9624,5615 9619,5613 9614,5613 9609,5613 9590,5613 9573,5620 9556,5632 9541,5646 9533,5666 9533,5695 L 9533,5932 9456,5932 Z M 9456,5932 L 9456,5932 Z M 9756,5539 L 9756,5421 9834,5421 9834,5539 9889,5539 9889,5599 9834,5599 9834,5827 C 9834,5839 9835,5846 9839,5851 9844,5855 9850,5857 9861,5857 L 9889,5857 9889,5932 9849,5932 C 9822,5932 9800,5924 9783,5906 9764,5889 9756,5865 9756,5834 L 9756,5599 9717,5599 9717,5539 9756,5539 Z M 9756,5539 L 9756,5539 Z M 9967,5932 L 9967,5539 10043,5539 10043,5580 10045,5580 C 10057,5565 10072,5555 10089,5546 10106,5539 10124,5534 10145,5534 10172,5534 10194,5539 10209,5549 10226,5560 10239,5572 10253,5585 10270,5568 10288,5555 10307,5546 10326,5539 10349,5534 10375,5534 10378,5534 10381,5536 10385,5536 10388,5536 10392,5536 10395,5536 10422,5541 10447,5555 10469,5577 10491,5599 10503,5630 10503,5670 L 10503,5932 10425,5932 10425,5697 C 10425,5671 10419,5651 10405,5635 10390,5620 10371,5613 10349,5613 10329,5613 10310,5620 10295,5635 10280,5651 10273,5671 10273,5697 L 10273,5932 10195,5932 10195,5697 C 10195,5671 10189,5651 10175,5635 10160,5620 10141,5613 10121,5613 10099,5613 10080,5620 10065,5635 10052,5651 10043,5671 10043,5697 L 10043,5932 9967,5932 Z M 9967,5932 L 9967,5932 Z M 10906,5766 L 10667,5766 C 10667,5798 10676,5822 10693,5838 10709,5853 10731,5862 10758,5862 10762,5862 10764,5862 10767,5862 10770,5862 10774,5862 10777,5860 10787,5858 10799,5855 10811,5848 10823,5843 10833,5834 10843,5824 L 10899,5872 C 10880,5894 10858,5911 10835,5920 10811,5930 10786,5936 10760,5936 10755,5936 10750,5936 10745,5936 10740,5934 10735,5934 10730,5934 10694,5929 10662,5913 10633,5884 10603,5857 10589,5807 10589,5738 10589,5668 10603,5620 10632,5589 10659,5560 10691,5541 10725,5536 10728,5536 10731,5536 10737,5536 10740,5536 10743,5534 10747,5534 10791,5534 10828,5549 10858,5579 10890,5609 10906,5649 10906,5699 L 10906,5766 Z M 10906,5766 L 10906,5766 Z M 10667,5699 L 10828,5699 C 10828,5670 10819,5647 10804,5632 10789,5616 10770,5609 10747,5609 10725,5609 10706,5616 10691,5632 10676,5647 10667,5670 10667,5699 Z M 10667,5699 L 10667,5699 Z M 10987,5932 L 10987,5539 11065,5539 11065,5580 11066,5580 C 11078,5565 11093,5555 11110,5546 11127,5539 11146,5534 11166,5534 11169,5534 11173,5536 11176,5536 11180,5536 11183,5536 11186,5536 11213,5541 11239,5555 11261,5577 11283,5599 11295,5630 11295,5670 L 11295,5932 11217,5932 11217,5697 C 11217,5671 11210,5651 11195,5635 11181,5620 11163,5613 11141,5613 11119,5613 11102,5620 11087,5635 11071,5651 11065,5671 11065,5697 L 11065,5932 10987,5932 Z M 10987,5932 L 10987,5932 Z M 11399,5539 L 11399,5421 11477,5421 11477,5539 11533,5539 11533,5599 11477,5599 11477,5827 C 11477,5839 11479,5846 11482,5851 11487,5855 11494,5857 11504,5857 L 11533,5857 11533,5932 11492,5932 C 11465,5932 11443,5924 11425,5906 11408,5889 11399,5865 11399,5834 L 11399,5599 11360,5599 11360,5539 11399,5539 Z M 11399,5539 L 11399,5539 Z M 11563,5865 L 11618,5812 C 11633,5829 11651,5841 11670,5850 11690,5858 11712,5862 11738,5862 11760,5862 11778,5858 11793,5850 11807,5841 11814,5829 11814,5812 11814,5798 11809,5788 11800,5783 11792,5778 11780,5774 11766,5774 L 11699,5767 C 11667,5766 11641,5754 11619,5735 11599,5714 11587,5688 11587,5654 11587,5615 11602,5585 11629,5565 11656,5544 11690,5534 11731,5534 11765,5534 11793,5539 11819,5549 11842,5558 11863,5572 11883,5587 L 11834,5646 C 11819,5634 11804,5625 11787,5618 11770,5611 11753,5609 11731,5609 11707,5609 11689,5613 11680,5622 11670,5632 11665,5642 11665,5656 11665,5664 11668,5671 11677,5680 11683,5687 11697,5692 11716,5692 L 11780,5697 C 11820,5700 11848,5712 11866,5736 11883,5757 11891,5785 11891,5815 11891,5853 11876,5884 11846,5905 11815,5925 11776,5936 11733,5936 11700,5936 11672,5930 11643,5918 11614,5906 11587,5889 11563,5865 Z"/>
         </g>
        </g>
       </g>
       <g class="com.sun.star.drawing.ClosedBezierShape">
        <g id="id23">
         <rect class="BoundingBox" stroke="none" fill="none" x="284" y="7492" width="14334" height="751"/>
         <path fill="rgb(27,25,24)" stroke="none" d="M 284,8066 L 343,7991 C 365,8009 392,8025 422,8038 450,8048 481,8056 513,8056 551,8056 579,8046 602,8029 622,8013 632,7991 632,7964 632,7942 626,7921 613,7907 602,7891 581,7880 554,7876 549,7876 545,7876 539,7874 535,7874 530,7874 526,7874 518,7872 511,7870 501,7870 494,7868 484,7866 475,7866 422,7858 384,7837 356,7803 329,7770 314,7729 314,7682 314,7625 333,7580 367,7543 401,7508 448,7492 511,7492 549,7492 583,7498 615,7510 649,7523 677,7539 706,7559 L 654,7639 C 634,7625 609,7613 585,7602 558,7594 533,7590 507,7590 479,7590 456,7596 435,7613 416,7629 407,7651 407,7684 407,7702 413,7721 426,7735 439,7752 462,7762 492,7768 499,7768 509,7770 520,7772 532,7774 545,7776 558,7778 615,7784 656,7807 683,7843 709,7880 723,7919 723,7964 723,8023 704,8072 666,8105 628,8138 577,8154 513,8154 467,8154 426,8148 388,8132 350,8117 314,8095 284,8066 Z M 284,8066 L 284,8066 Z M 1322,7952 L 1055,7952 C 1055,7989 1065,8017 1084,8038 1102,8058 1127,8068 1157,8068 1159,8068 1163,8068 1167,8068 1170,8066 1172,8066 1176,8066 1189,8064 1203,8058 1216,8050 1229,8042 1240,8034 1250,8021 L 1312,8081 C 1291,8107 1269,8126 1240,8138 1214,8148 1187,8154 1157,8154 1152,8154 1148,8154 1142,8154 1136,8154 1131,8154 1125,8152 1085,8148 1050,8128 1017,8095 985,8062 968,8001 968,7917 968,7837 983,7780 1015,7743 1046,7709 1082,7688 1118,7682 1123,7682 1127,7678 1131,7678 1136,7678 1140,7678 1144,7678 1191,7678 1233,7698 1269,7733 1303,7768 1322,7815 1322,7874 L 1322,7952 Z M 1322,7952 L 1322,7952 Z M 1055,7874 L 1235,7874 C 1233,7839 1225,7813 1208,7794 1191,7776 1170,7768 1144,7768 1119,7768 1099,7776 1082,7794 1065,7813 1055,7839 1055,7874 Z M 1055,7874 L 1055,7874 Z M 1840,8011 L 1904,8074 C 1885,8099 1862,8117 1838,8132 1811,8146 1783,8154 1749,8154 1700,8154 1656,8136 1615,8101 1575,8064 1556,8001 1556,7917 1556,7831 1575,7772 1615,7735 1656,7698 1700,7678 1749,7678 1783,7678 1811,7688 1838,7702 1862,7719 1885,7737 1904,7760 L 1840,7821 C 1830,7807 1817,7796 1802,7786 1787,7778 1772,7772 1753,7772 1719,7772 1690,7784 1671,7807 1652,7829 1641,7866 1641,7917 1641,7966 1652,8003 1671,8025 1690,8048 1719,8062 1753,8062 1772,8062 1787,8058 1802,8046 1817,8038 1830,8025 1840,8011 Z M 1840,8011 L 1840,8011 Z M 2129,7942 L 2129,7850 2384,7850 2384,7942 2129,7942 Z M 2129,7942 L 2129,7942 Z M 2770,8150 L 2770,7594 2684,7662 2684,7564 2770,7496 2855,7496 2855,8150 2770,8150 Z M 2770,8150 L 2770,8150 Z M 3246,8217 L 3246,8056 3333,8056 3333,8150 3246,8217 Z M 3246,8217 L 3246,8217 Z M 4210,7882 L 4210,7790 4423,7790 4423,7923 C 4423,7987 4403,8042 4363,8089 4321,8132 4270,8154 4210,8154 4166,8154 4129,8144 4096,8121 4066,8099 4044,8074 4026,8046 4026,8044 4025,8044 4025,8042 4023,8040 4023,8038 4023,8036 4021,8034 4019,8032 4019,8029 4017,8027 4017,8025 4015,8023 4008,8007 4002,7987 4000,7962 3996,7938 3996,7891 3996,7823 3996,7754 3996,7709 4000,7684 4002,7658 4008,7637 4015,7621 4017,7619 4017,7617 4019,7615 4019,7613 4021,7611 4023,7608 4023,7606 4023,7604 4025,7602 4025,7600 4026,7600 4026,7598 4044,7572 4066,7547 4096,7525 4129,7502 4166,7492 4210,7492 4267,7492 4314,7510 4352,7547 4389,7586 4412,7631 4422,7686 L 4325,7686 C 4318,7658 4304,7637 4284,7619 4263,7598 4238,7590 4210,7590 4189,7590 4170,7594 4155,7604 4140,7613 4127,7625 4117,7637 4115,7639 4115,7641 4113,7643 4112,7643 4112,7645 4110,7647 4100,7662 4095,7682 4093,7702 4089,7725 4087,7764 4087,7823 4087,7882 4089,7923 4093,7944 4095,7964 4100,7982 4110,7997 4112,7999 4112,8001 4113,8003 4115,8003 4115,8005 4117,8007 4127,8019 4140,8032 4155,8040 4170,8050 4189,8056 4210,8056 4244,8056 4274,8042 4297,8017 4321,7991 4333,7958 4333,7917 L 4333,7882 4210,7882 Z M 4210,7882 L 4210,7882 Z M 4699,8150 L 4699,7686 4786,7686 4786,7735 4788,7735 C 4801,7717 4818,7702 4837,7694 4856,7684 4877,7678 4900,7678 4917,7678 4932,7684 4947,7690 4962,7696 4975,7705 4989,7715 L 4926,7796 C 4922,7792 4917,7788 4913,7786 4909,7784 4905,7782 4902,7780 4896,7778 4892,7776 4887,7774 4881,7774 4875,7772 4870,7772 4849,7772 4830,7780 4813,7796 4796,7811 4786,7835 4786,7870 L 4786,8150 4699,8150 Z M 4699,8150 L 4699,8150 Z M 5522,7952 L 5255,7952 C 5255,7989 5265,8017 5285,8038 5304,8058 5329,8068 5357,8068 5361,8068 5365,8068 5369,8068 5370,8066 5374,8066 5378,8066 5391,8064 5404,8058 5418,8050 5429,8042 5440,8034 5452,8021 L 5514,8081 C 5493,8107 5469,8126 5442,8138 5416,8148 5387,8154 5359,8154 5353,8154 5348,8154 5342,8154 5338,8154 5333,8154 5327,8152 5287,8148 5251,8128 5219,8095 5185,8062 5170,8001 5170,7917 5170,7837 5185,7780 5217,7743 5248,7709 5282,7688 5319,7682 5325,7682 5329,7678 5333,7678 5336,7678 5342,7678 5346,7678 5393,7678 5435,7698 5469,7733 5505,7768 5522,7815 5522,7874 L 5522,7952 Z M 5522,7952 L 5522,7952 Z M 5255,7874 L 5437,7874 C 5435,7839 5425,7813 5410,7794 5393,7776 5370,7768 5346,7768 5321,7768 5300,7776 5283,7794 5266,7813 5257,7839 5255,7874 Z M 5255,7874 L 5255,7874 Z M 6015,8150 L 6015,8109 6013,8109 C 6004,8126 5990,8136 5975,8144 5958,8150 5936,8154 5907,8154 5860,8154 5822,8142 5796,8113 5769,8087 5756,8052 5756,8011 5756,7974 5767,7944 5792,7915 5815,7888 5849,7874 5896,7874 L 6015,7874 6015,7827 C 6015,7805 6007,7790 5994,7780 5979,7772 5958,7768 5926,7768 5903,7768 5886,7770 5875,7776 5864,7780 5854,7790 5845,7803 L 5779,7747 C 5794,7723 5815,7705 5839,7694 5862,7684 5890,7678 5922,7678 5975,7678 6019,7690 6051,7713 6083,7735 6100,7776 6100,7833 L 6100,8150 6015,8150 Z M 6015,8150 L 6015,8150 Z M 6015,7985 L 6015,7952 5911,7952 C 5886,7952 5868,7956 5856,7966 5843,7976 5837,7991 5837,8007 5837,8023 5843,8036 5856,8048 5868,8062 5888,8068 5919,8068 5954,8068 5979,8064 5994,8052 6007,8044 6015,8021 6015,7985 Z M 6015,7985 L 6015,7985 Z M 6395,7686 L 6395,7543 6480,7543 6480,7686 6542,7686 6542,7756 6480,7756 6480,8025 C 6480,8038 6482,8048 6487,8052 6491,8060 6501,8062 6510,8062 L 6542,8062 6542,8150 6499,8150 C 6469,8150 6444,8140 6423,8119 6404,8101 6395,8072 6395,8034 L 6395,7756 6351,7756 6351,7686 6395,7686 Z M 6395,7686 L 6395,7686 Z M 7132,7952 L 6865,7952 C 6865,7989 6875,8017 6896,8038 6915,8058 6939,8068 6968,8068 6971,8068 6975,8068 6979,8068 6981,8066 6985,8066 6988,8066 7002,8064 7015,8058 7028,8050 7039,8042 7051,8034 7062,8021 L 7124,8081 C 7104,8107 7079,8126 7053,8138 7026,8148 6998,8154 6969,8154 6964,8154 6958,8154 6952,8154 6949,8154 6943,8154 6937,8152 6898,8148 6862,8128 6830,8095 6796,8062 6780,8001 6780,7917 6780,7837 6796,7780 6828,7743 6858,7709 6892,7688 6930,7682 6935,7682 6939,7678 6943,7678 6947,7678 6952,7678 6956,7678 7003,7678 7045,7698 7079,7733 7115,7768 7132,7815 7132,7874 L 7132,7952 Z M 7132,7952 L 7132,7952 Z M 6865,7874 L 7047,7874 C 7045,7839 7036,7813 7020,7794 7003,7776 6981,7768 6956,7768 6932,7768 6911,7776 6894,7794 6877,7813 6867,7839 6865,7874 Z M 6865,7874 L 6865,7874 Z M 7400,8150 L 7400,7686 7487,7686 7487,7735 7489,7735 C 7504,7717 7519,7702 7538,7694 7557,7684 7578,7678 7601,7678 7620,7678 7635,7684 7650,7690 7663,7696 7678,7705 7691,7715 L 7629,7796 C 7623,7792 7620,7788 7616,7786 7612,7784 7608,7782 7605,7780 7599,7778 7593,7776 7589,7774 7584,7774 7578,7772 7572,7772 7552,7772 7533,7780 7514,7796 7497,7811 7487,7835 7487,7870 L 7487,8150 7400,8150 Z M 7400,8150 L 7400,8150 Z M 8300,8150 L 8300,7496 8385,7496 8657,7960 8659,7960 8659,7496 8750,7496 8750,8150 8665,8150 8393,7686 8391,7686 8391,8150 8300,8150 Z M 8300,8150 L 8300,8150 Z M 9026,7917 C 9026,7866 9030,7831 9035,7807 9043,7782 9054,7760 9071,7741 L 9071,7739 9071,7739 C 9073,7737 9075,7737 9075,7735 9075,7735 9077,7733 9079,7731 9090,7719 9107,7707 9126,7696 9147,7686 9171,7678 9202,7678 9232,7678 9258,7686 9277,7696 9298,7707 9313,7719 9326,7731 9326,7733 9328,7735 9328,7735 9330,7737 9330,7737 9332,7739 L 9332,7739 C 9332,7739 9332,7741 9334,7741 9349,7760 9360,7782 9368,7807 9376,7831 9378,7866 9378,7917 9378,7966 9376,8003 9368,8027 9360,8050 9349,8074 9334,8095 9332,8095 9332,8095 9332,8095 L 9332,8097 C 9330,8097 9330,8099 9328,8099 9328,8101 9326,8103 9326,8103 9313,8115 9298,8128 9277,8138 9258,8150 9232,8154 9202,8154 9171,8154 9147,8150 9126,8138 9107,8128 9090,8115 9079,8103 9077,8103 9075,8101 9075,8099 9075,8099 9073,8097 9071,8097 L 9071,8095 9071,8095 C 9054,8074 9043,8050 9035,8027 9030,8003 9026,7966 9026,7917 Z M 9026,7917 L 9026,7917 Z M 9292,7917 C 9292,7886 9291,7866 9289,7852 9287,7837 9283,7825 9275,7815 9275,7813 9275,7813 9274,7811 9274,7809 9272,7809 9272,7807 9266,7796 9257,7788 9243,7782 9230,7776 9217,7772 9202,7772 9187,7772 9173,7776 9162,7782 9149,7788 9139,7796 9134,7807 9132,7809 9130,7809 9130,7811 9130,7813 9128,7813 9128,7815 9122,7825 9117,7837 9115,7852 9113,7866 9111,7886 9111,7917 9111,7946 9113,7968 9115,7980 9117,7995 9122,8007 9128,8019 9128,8019 9130,8021 9130,8023 9130,8023 9132,8025 9134,8027 9139,8036 9149,8044 9162,8050 9173,8058 9187,8062 9202,8062 9217,8062 9230,8058 9243,8050 9257,8044 9266,8036 9272,8027 9272,8025 9274,8023 9274,8023 9275,8021 9275,8019 9275,8019 9283,8007 9287,7995 9289,7980 9291,7968 9292,7946 9292,7917 Z M 9292,7917 L 9292,7917 Z M 9648,8150 L 9648,7686 9735,7686 9735,8150 9648,8150 Z M 9648,8150 L 9648,8150 Z M 9648,7590 L 9648,7496 9735,7496 9735,7590 9648,7590 Z M 9648,7590 L 9648,7590 Z M 10281,8150 L 10281,8101 C 10268,8117 10253,8130 10232,8140 10213,8150 10192,8154 10171,8154 10145,8154 10122,8148 10103,8138 10084,8126 10069,8111 10056,8095 L 10054,8093 10054,8093 C 10043,8076 10035,8058 10031,8034 10028,8011 10026,7972 10026,7917 10026,7862 10028,7823 10031,7801 10035,7778 10043,7760 10054,7743 L 10054,7741 C 10056,7741 10056,7741 10056,7739 10069,7723 10084,7709 10103,7696 10122,7686 10145,7678 10171,7678 10192,7678 10213,7684 10232,7694 10249,7705 10266,7719 10281,7735 L 10281,7496 10368,7496 10368,8150 10281,8150 Z M 10281,8150 L 10281,8150 Z M 10198,7772 C 10158,7772 10134,7788 10124,7817 10117,7846 10113,7878 10113,7913 10113,7915 10113,7915 10113,7915 L 10113,7917 C 10113,7952 10117,7985 10124,8015 10132,8046 10156,8062 10198,8062 10234,8062 10256,8048 10266,8021 10275,7997 10281,7968 10281,7938 10281,7933 10281,7931 10281,7927 10281,7923 10281,7919 10281,7917 10281,7913 10281,7909 10281,7905 10281,7901 10281,7897 10281,7893 10281,7862 10275,7835 10266,7811 10255,7786 10232,7772 10198,7772 Z M 10198,7772 L 10198,7772 Z M 10865,8150 L 10865,8109 10863,8109 C 10856,8126 10842,8136 10827,8144 10810,8150 10788,8154 10759,8154 10710,8154 10674,8142 10648,8113 10621,8087 10608,8052 10608,8011 10608,7974 10619,7944 10642,7915 10667,7888 10701,7874 10746,7874 L 10865,7874 10865,7827 C 10865,7805 10859,7790 10844,7780 10831,7772 10808,7768 10778,7768 10755,7768 10738,7770 10727,7776 10714,7780 10704,7790 10697,7803 L 10629,7747 C 10646,7723 10667,7705 10689,7694 10714,7684 10742,7678 10774,7678 10827,7678 10869,7690 10903,7713 10935,7735 10952,7776 10952,7833 L 10952,8150 10865,8150 Z M 10865,8150 L 10865,8150 Z M 10865,7985 L 10865,7952 10763,7952 C 10737,7952 10720,7956 10706,7966 10695,7976 10689,7991 10689,8007 10689,8023 10695,8036 10706,8048 10720,8062 10740,8068 10769,8068 10805,8068 10831,8064 10844,8052 10859,8044 10865,8021 10865,7985 Z M 10865,7985 L 10865,7985 Z M 11787,8242 L 11753,8242 C 11723,8205 11697,8164 11678,8121 11657,8079 11642,8032 11632,7987 11629,7968 11625,7948 11623,7929 11621,7909 11619,7888 11619,7870 11619,7850 11621,7831 11623,7811 11625,7790 11629,7772 11632,7752 11642,7707 11657,7662 11678,7617 11697,7574 11723,7533 11753,7496 L 11787,7496 C 11761,7553 11742,7613 11727,7676 11714,7739 11706,7803 11706,7870 11706,7935 11714,8001 11727,8064 11742,8126 11761,8185 11787,8242 Z M 11787,8242 L 11787,8242 Z M 12141,8150 L 11992,7496 12086,7496 12181,7960 12182,7960 12300,7496 12366,7496 12481,7960 12483,7960 12578,7496 12674,7496 12525,8150 12447,8150 12334,7678 12332,7678 12217,8150 12141,8150 Z M 12141,8150 L 12141,8150 Z M 13226,7952 L 12959,7952 C 12959,7989 12971,8017 12990,8038 13008,8058 13033,8068 13061,8068 13065,8068 13069,8068 13073,8068 13077,8066 13078,8066 13082,8066 13095,8064 13109,8058 13122,8050 13135,8042 13146,8034 13156,8021 L 13218,8081 C 13197,8107 13173,8126 13146,8138 13120,8148 13094,8154 13063,8154 13058,8154 13052,8154 13048,8154 13043,8154 13037,8154 13031,8152 12991,8148 12956,8128 12923,8095 12891,8062 12874,8001 12874,7917 12874,7837 12889,7780 12922,7743 12952,7709 12986,7688 13024,7682 13029,7682 13033,7678 13037,7678 13043,7678 13046,7678 13050,7678 13097,7678 13139,7698 13175,7733 13209,7768 13226,7815 13226,7874 L 13226,7952 Z M 13226,7952 L 13226,7952 Z M 12959,7874 L 13141,7874 C 13139,7839 13131,7813 13114,7794 13097,7776 13077,7768 13050,7768 13025,7768 13005,7776 12988,7794 12971,7813 12961,7839 12959,7874 Z M 12959,7874 L 12959,7874 Z M 13447,8072 L 13507,8007 C 13526,8025 13545,8040 13566,8050 13589,8062 13613,8068 13642,8068 13666,8068 13687,8062 13702,8050 13719,8040 13727,8025 13727,8007 13727,7991 13721,7978 13712,7972 13700,7966 13689,7962 13674,7960 L 13598,7954 C 13562,7950 13534,7938 13509,7915 13487,7893 13475,7862 13475,7823 13475,7776 13490,7739 13521,7717 13551,7692 13589,7678 13634,7678 13672,7678 13704,7686 13731,7696 13757,7709 13782,7723 13802,7743 L 13749,7811 C 13732,7799 13715,7786 13696,7780 13678,7772 13657,7768 13634,7768 13608,7768 13589,7772 13577,7784 13566,7794 13560,7807 13560,7823 13560,7833 13566,7841 13574,7852 13581,7860 13596,7866 13617,7866 L 13689,7872 C 13732,7876 13765,7891 13783,7917 13802,7942 13812,7974 13812,8011 13812,8058 13795,8093 13761,8117 13727,8142 13685,8154 13636,8154 13600,8154 13568,8148 13536,8134 13504,8121 13475,8101 13447,8072 Z M 13447,8072 L 13447,8072 Z M 14082,7686 L 14082,7543 14167,7543 14167,7686 14230,7686 14230,7756 14167,7756 14167,8025 C 14167,8038 14171,8048 14175,8052 14180,8060 14188,8062 14197,8062 L 14230,8062 14230,8150 14186,8150 C 14156,8150 14131,8140 14112,8119 14092,8101 14082,8072 14082,8034 L 14082,7756 14039,7756 14039,7686 14082,7686 Z M 14082,7686 L 14082,7686 Z M 14451,7496 L 14485,7496 C 14515,7533 14540,7574 14560,7617 14579,7662 14594,7707 14604,7752 14608,7772 14611,7790 14613,7811 14615,7831 14617,7850 14617,7870 14617,7888 14615,7909 14613,7929 14611,7948 14608,7968 14604,7987 14594,8032 14579,8079 14560,8121 14540,8164 14515,8205 14485,8242 L 14451,8242 C 14475,8185 14496,8126 14509,8064 14524,8001 14530,7935 14530,7870 14530,7803 14524,7739 14509,7676 14496,7613 14475,7553 14451,7496 Z"/>
        </g>
       </g>
      </g>
     </g>
    </g>
   </g>
  </g>
 </g>
</svg>