<?xml version="1.0" encoding="UTF-8"?>
<!DOCTYPE svg PUBLIC "-//W3C//DTD SVG 1.1//EN" "http://www.w3.org/Graphics/SVG/1.1/DTD/svg11.dtd">
<svg version="1.2" width="220mm" height="110mm" viewBox="0 0 22000 11000" preserveAspectRatio="xMidYMid" fill-rule="evenodd" stroke-width="28.222" stroke-linejoin="round" xmlns="http://www.w3.org/2000/svg" xmlns:ooo="http://xml.openoffice.org/svg/export" xmlns:xlink="http://www.w3.org/1999/xlink" xmlns:presentation="http://sun.com/xmlns/staroffice/presentation" xmlns:smil="http://www.w3.org/2001/SMIL20/" xmlns:anim="urn:oasis:names:tc:opendocument:xmlns:animation:1.0" xml:space="preserve">
 <defs class="ClipPathGroup">
  <clipPath id="presentation_clip_path" clipPathUnits="userSpaceOnUse">
   <rect x="0" y="0" width="22000" height="11000"/>
  </clipPath>
  <clipPath id="presentation_clip_path_shrink" clipPathUnits="userSpaceOnUse">
   <rect x="22" y="11" width="21956" height="10978"/>
  </clipPath>
 </defs>
 <defs class="TextShapeIndex">
  <g ooo:slide="id1" ooo:id-list="id3 id4 id5 id6 id7 id8 id9 id10 id11 id12 id13 id14 id15 id16 id17 id18 id19 id20 id21 id22 id23 id24 id25 id26"/>
 </defs>
 <defs class="EmbeddedBulletChars">
  <g id="bullet-char-template-57356" transform="scale(0.00048828125,-0.00048828125)">
   <path d="M 580,1141 L 1163,571 580,0 -4,571 580,1141 Z"/>
  </g>
  <g id="bullet-char-template-57354" transform="scale(0.00048828125,-0.00048828125)">
   <path d="M 8,1128 L 1137,1128 1137,0 8,0 8,1128 Z"/>
  </g>
  <g id="bullet-char-template-10146" transform="scale(0.00048828125,-0.00048828125)">
   <path d="M 174,0 L 602,739 174,1481 1456,739 174,0 Z M 1358,739 L 309,1346 659,739 1358,739 Z"/>
  </g>
  <g id="bullet-char-template-10132" transform="scale(0.00048828125,-0.00048828125)">
   <path d="M 2015,739 L 1276,0 717,0 1260,543 174,543 174,936 1260,936 717,1481 1274,1481 2015,739 Z"/>
  </g>
  <g id="bullet-char-template-10007" transform="scale(0.00048828125,-0.00048828125)">
   <path d="M 0,-2 C -7,14 -16,27 -25,37 L 356,567 C 262,823 215,952 215,954 215,979 228,992 255,992 264,992 276,990 289,987 310,991 331,999 354,1012 L 381,999 492,748 772,1049 836,1024 860,1049 C 881,1039 901,1025 922,1006 886,937 835,863 770,784 769,783 710,716 594,584 L 774,223 C 774,196 753,168 711,139 L 727,119 C 717,90 699,76 672,76 641,76 570,178 457,381 L 164,-76 C 142,-110 111,-127 72,-127 30,-127 9,-110 8,-76 1,-67 -2,-52 -2,-32 -2,-23 -1,-13 0,-2 Z"/>
  </g>
  <g id="bullet-char-template-10004" transform="scale(0.00048828125,-0.00048828125)">
   <path d="M 285,-33 C 182,-33 111,30 74,156 52,228 41,333 41,471 41,549 55,616 82,672 116,743 169,778 240,778 293,778 328,747 346,684 L 369,508 C 377,444 397,411 428,410 L 1163,1116 C 1174,1127 1196,1133 1229,1133 1271,1133 1292,1118 1292,1087 L 1292,965 C 1292,929 1282,901 1262,881 L 442,47 C 390,-6 338,-33 285,-33 Z"/>
  </g>
  <g id="bullet-char-template-9679" transform="scale(0.00048828125,-0.00048828125)">
   <path d="M 813,0 C 632,0 489,54 383,161 276,268 223,411 223,592 223,773 276,916 383,1023 489,1130 632,1184 813,1184 992,1184 1136,1130 1245,1023 1353,916 1407,772 1407,592 1407,412 1353,268 1245,161 1136,54 992,0 813,0 Z"/>
  </g>
  <g id="bullet-char-template-8226" transform="scale(0.00048828125,-0.00048828125)">
   <path d="M 346,457 C 273,457 209,483 155,535 101,586 74,649 74,723 74,796 101,859 155,911 209,963 273,989 346,989 419,989 480,963 531,910 582,859 608,796 608,723 608,648 583,586 532,535 482,483 420,457 346,457 Z"/>
  </g>
  <g id="bullet-char-template-8211" transform="scale(0.00048828125,-0.00048828125)">
   <path d="M -4,459 L 1135,459 1135,606 -4,606 -4,459 Z"/>
  </g>
  <g id="bullet-char-template-61548" transform="scale(0.00048828125,-0.00048828125)">
   <path d="M 173,740 C 173,903 231,1043 346,1159 462,1274 601,1332 765,1332 928,1332 1067,1274 1183,1159 1299,1043 1357,903 1357,740 1357,577 1299,437 1183,322 1067,206 928,148 765,148 601,148 462,206 346,322 231,437 173,577 173,740 Z"/>
  </g>
 </defs>
 <g>
  <g id="id2" class="Master_Slide">
   <g id="bg-id2" class="Background"/>
   <g id="bo-id2" class="BackgroundObjects"/>
  </g>
 </g>
 <g class="SlideGroup">
  <g>
   <g id="container-id1">
    <g id="id1" class="Slide" clip-path="url(#presentation_clip_path)">
     <g class="Page">
      <g class="Group">
       <g class="com.sun.star.drawing.ClosedBezierShape">
        <g id="id3">
         <rect class="BoundingBox" stroke="none" fill="none" x="6007" y="2016" width="999" height="1584"/>
         <path fill="rgb(27,25,24)" stroke="none" d="M 6325,2017 L 6326,2593 C 6326,2670 6338,2730 6362,2770 6385,2811 6440,2835 6526,2843 6576,2843 6625,2825 6670,2790 6715,2756 6752,2713 6778,2661 6806,2610 6820,2560 6820,2513 L 6818,2152 7004,2221 7004,3202 C 7004,3262 6989,3317 6963,3367 6935,3417 6898,3460 6851,3494 6804,3528 6753,3554 6695,3573 6638,3590 6580,3598 6520,3598 6405,3598 6310,3580 6232,3541 6154,3504 6097,3460 6062,3410 6025,3359 6007,3316 6007,3279 6007,3242 6018,3206 6038,3173 6059,3141 6085,3112 6118,3088 6152,3064 6189,3044 6232,3028 6276,3014 6317,3005 6358,3005 L 6470,3168 C 6444,3171 6405,3176 6352,3186 6301,3195 6248,3213 6196,3238 6144,3263 6117,3296 6117,3337 6120,3353 6129,3376 6146,3406 6163,3436 6195,3464 6239,3490 6282,3517 6341,3531 6412,3531 6485,3531 6556,3517 6621,3487 6685,3459 6738,3416 6778,3362 6818,3307 6836,3245 6836,3175 L 6836,2783 C 6827,2800 6799,2823 6753,2848 6707,2874 6631,2885 6528,2885 6463,2885 6403,2872 6346,2847 6290,2820 6244,2780 6208,2730 6174,2680 6155,2621 6155,2557 L 6155,2017 6325,2017 Z"/>
        </g>
       </g>
       <g class="com.sun.star.drawing.ClosedBezierShape">
        <g id="id4">
         <rect class="BoundingBox" stroke="none" fill="none" x="5599" y="1225" width="405" height="1749"/>
         <path fill="rgb(27,25,24)" stroke="none" d="M 6002,1793 L 6002,2972 C 6000,2972 5992,2969 5978,2962 5965,2955 5949,2947 5932,2937 5915,2927 5898,2917 5879,2907 5861,2898 5850,2892 5849,2892 L 5849,1794 C 5846,1719 5834,1646 5813,1580 5791,1513 5766,1458 5740,1414 5714,1371 5685,1329 5655,1292 5624,1255 5606,1232 5599,1225 L 5788,1225 C 5840,1280 5881,1341 5914,1411 5945,1481 5968,1549 5981,1615 5996,1682 6002,1742 6002,1793 Z"/>
        </g>
       </g>
       <g class="com.sun.star.drawing.ClosedBezierShape">
        <g id="id5">
         <rect class="BoundingBox" stroke="none" fill="none" x="3699" y="2135" width="1177" height="1378"/>
         <path fill="rgb(27,25,24)" stroke="none" d="M 4875,3092 C 4875,3162 4859,3209 4830,3233 4799,3258 4761,3270 4715,3270 4679,3270 4649,3265 4622,3253 4596,3243 4559,3223 4509,3198 4460,3171 4416,3151 4378,3136 4341,3123 4301,3116 4258,3116 4193,3116 4124,3132 4051,3165 3977,3196 3910,3242 3848,3302 3786,3360 3738,3430 3702,3511 3700,3501 3700,3484 3700,3463 3700,3397 3717,3327 3755,3252 3792,3175 3845,3111 3915,3058 3984,3004 4063,2978 4153,2978 4219,2978 4271,2988 4310,3009 4347,3029 4396,3062 4456,3105 4514,3149 4559,3171 4591,3171 4628,3171 4662,3161 4695,3141 4729,3122 4756,3096 4777,3066 4797,3035 4807,3007 4807,2978 4807,2947 4801,2918 4788,2891 4776,2862 4757,2841 4733,2824 4711,2807 4683,2798 4653,2798 4628,2798 4599,2804 4564,2817 4531,2830 4490,2847 4441,2870 4392,2892 4351,2910 4320,2921 4285,2932 4256,2938 4231,2938 4203,2938 4170,2924 4129,2897 4090,2870 4055,2835 4025,2794 3995,2754 3980,2720 3980,2689 3980,2660 3996,2630 4028,2602 4059,2572 4092,2554 4129,2552 L 4131,2540 C 4113,2515 4099,2492 4087,2475 4076,2457 4067,2439 4061,2422 4054,2402 4050,2380 4050,2355 4051,2275 4083,2218 4147,2185 4206,2154 4280,2137 4367,2135 4374,2135 4379,2135 4386,2135 L 4387,2135 C 4448,2135 4505,2149 4544,2212 4546,2214 4547,2215 4547,2216 4551,2222 4555,2225 4560,2228 4571,2228 4584,2218 4597,2198 4612,2178 4624,2164 4632,2154 4641,2144 4657,2138 4679,2135 4698,2135 4716,2141 4735,2154 4753,2167 4770,2182 4786,2204 4801,2225 4811,2246 4817,2266 L 4723,2382 C 4721,2352 4715,2323 4703,2295 4691,2266 4674,2252 4653,2252 4647,2252 4638,2256 4626,2265 4613,2272 4608,2281 4608,2291 4608,2291 4610,2298 4617,2311 4624,2325 4629,2339 4633,2355 4638,2369 4639,2388 4639,2409 4639,2495 4613,2550 4559,2576 4506,2602 4432,2616 4338,2616 4273,2616 4221,2624 4181,2641 4140,2659 4112,2679 4095,2700 4078,2723 4070,2740 4070,2754 4072,2780 4083,2798 4104,2810 4124,2821 4140,2828 4150,2828 4176,2828 4201,2821 4227,2810 4254,2798 4295,2778 4346,2751 4398,2723 4445,2701 4489,2686 4532,2670 4576,2661 4618,2660 4686,2660 4739,2689 4776,2747 4814,2807 4840,2871 4854,2939 4868,3008 4875,3059 4875,3092 Z M 4875,3092 L 4875,3092 Z M 4528,2322 C 4528,2245 4491,2205 4415,2205 4371,2205 4329,2218 4289,2242 4248,2268 4215,2298 4189,2336 4164,2375 4150,2410 4150,2447 4150,2470 4161,2497 4182,2527 4203,2559 4235,2573 4275,2574 4302,2574 4336,2563 4376,2542 4419,2520 4454,2490 4484,2453 4514,2415 4528,2370 4528,2322 Z"/>
        </g>
       </g>
       <g class="com.sun.star.drawing.ClosedBezierShape">
        <g id="id6">
         <rect class="BoundingBox" stroke="none" fill="none" x="3078" y="2140" width="815" height="851"/>
         <path fill="rgb(27,25,24)" stroke="none" d="M 3765,2443 C 3765,2289 3697,2214 3562,2214 3524,2214 3483,2225 3441,2251 3400,2275 3364,2309 3331,2353 3299,2398 3273,2450 3253,2510 3233,2573 3224,2636 3224,2701 L 3224,2979 3079,2897 3079,2175 3231,2175 3231,2289 C 3242,2279 3264,2262 3293,2238 3320,2214 3356,2191 3397,2171 3438,2151 3483,2141 3532,2141 3578,2141 3623,2151 3667,2172 3710,2195 3749,2225 3782,2264 3816,2302 3843,2348 3862,2400 3882,2453 3891,2510 3891,2572 3891,2640 3878,2708 3850,2778 3823,2850 3780,2920 3721,2989 L 3549,2874 C 3560,2858 3581,2835 3609,2805 3638,2777 3664,2747 3685,2717 3708,2687 3726,2649 3741,2604 3757,2557 3765,2505 3765,2443 Z"/>
        </g>
       </g>
       <g class="com.sun.star.drawing.ClosedBezierShape">
        <g id="id7">
         <rect class="BoundingBox" stroke="none" fill="none" x="2159" y="2148" width="772" height="816"/>
         <path fill="rgb(27,25,24)" stroke="none" d="M 2448,2178 C 2475,2171 2504,2164 2537,2157 2571,2151 2603,2148 2634,2148 2706,2148 2761,2158 2802,2179 2843,2199 2872,2229 2891,2268 2908,2306 2920,2349 2924,2396 2928,2445 2929,2509 2929,2594 L 2929,2962 C 2883,2944 2851,2930 2831,2921 2812,2911 2797,2905 2786,2901 2786,2880 2783,2867 2776,2861 2756,2874 2734,2887 2710,2901 2686,2915 2654,2928 2615,2938 2576,2949 2529,2955 2475,2955 2423,2955 2373,2945 2324,2924 2275,2904 2235,2874 2205,2837 2175,2798 2160,2756 2160,2707 2160,2663 2179,2616 2217,2567 2255,2516 2307,2476 2371,2443 2435,2412 2506,2395 2583,2395 2625,2395 2664,2402 2702,2415 2739,2429 2768,2443 2786,2459 L 2786,2370 C 2763,2336 2739,2313 2716,2302 2694,2291 2658,2285 2611,2285 2549,2286 2498,2292 2463,2301 2427,2309 2389,2322 2348,2341 2307,2358 2272,2372 2245,2382 L 2245,2312 C 2249,2308 2254,2303 2262,2296 2321,2242 2368,2202 2448,2178 Z M 2448,2178 L 2448,2178 Z M 2786,2634 C 2786,2606 2756,2582 2695,2562 2634,2540 2591,2530 2566,2530 2500,2530 2442,2544 2389,2576 2336,2604 2295,2639 2264,2677 2235,2716 2219,2748 2219,2773 2226,2800 2245,2817 2274,2827 2303,2838 2333,2843 2366,2843 2426,2843 2481,2834 2533,2817 2586,2800 2629,2778 2668,2754 2706,2728 2735,2706 2756,2681 2777,2659 2786,2643 2786,2634 Z"/>
        </g>
       </g>
       <g class="com.sun.star.drawing.ClosedBezierShape">
        <g id="id8">
         <rect class="BoundingBox" stroke="none" fill="none" x="195" y="1731" width="1919" height="1256"/>
         <path fill="rgb(27,25,24)" stroke="none" d="M 1822,1777 C 1914,1821 1983,1876 2030,1941 2085,2017 2112,2128 2112,2269 2112,2375 2091,2472 2048,2560 2003,2647 1952,2720 1893,2778 1835,2834 1778,2880 1725,2912 1672,2945 1642,2961 1635,2961 1621,2961 1584,2930 1524,2867 1465,2804 1416,2751 1378,2710 1461,2706 1553,2676 1656,2620 1757,2566 1844,2495 1917,2409 1990,2322 2025,2231 2025,2135 2025,2085 2012,2042 1984,2010 1956,1977 1922,1953 1878,1936 1835,1920 1787,1911 1737,1911 1584,1920 1465,1974 1380,2071 1296,2168 1239,2295 1210,2450 1203,2449 1167,2432 1100,2403 1033,2373 978,2349 937,2331 937,2283 947,2238 964,2191 981,2144 1001,2101 1023,2062 1046,2023 1058,2001 1058,2000 1058,1974 1035,1957 992,1947 949,1937 911,1933 878,1933 805,1933 738,1953 672,1994 608,2035 557,2088 520,2152 483,2215 464,2279 464,2342 464,2413 483,2483 518,2550 555,2617 594,2676 636,2724 678,2771 730,2825 791,2884 853,2942 886,2977 889,2985 832,2965 766,2934 689,2892 612,2853 536,2800 459,2737 384,2676 320,2603 270,2523 220,2445 196,2359 196,2269 196,2165 222,2072 278,1990 332,1907 402,1844 489,1799 575,1753 664,1732 756,1732 828,1732 892,1742 949,1764 1006,1787 1058,1814 1105,1844 1153,1876 1178,1890 1183,1890 1185,1890 1208,1878 1256,1854 1304,1831 1352,1809 1404,1789 1556,1730 1676,1710 1822,1777 Z"/>
        </g>
       </g>
       <g class="com.sun.star.drawing.ClosedBezierShape">
        <g id="id9">
         <rect class="BoundingBox" stroke="none" fill="none" x="4901" y="2138" width="771" height="816"/>
         <path fill="rgb(27,25,24)" stroke="none" d="M 5189,2168 C 5216,2161 5245,2154 5278,2147 5312,2141 5344,2138 5376,2138 5447,2138 5503,2148 5544,2169 5585,2189 5614,2219 5632,2258 5649,2296 5661,2339 5665,2386 5669,2435 5670,2499 5670,2584 L 5670,2952 C 5624,2934 5592,2920 5573,2911 5553,2901 5538,2895 5528,2891 5528,2870 5524,2857 5517,2851 5497,2864 5475,2877 5451,2891 5427,2905 5396,2918 5356,2928 5318,2939 5270,2945 5216,2945 5164,2945 5114,2935 5065,2914 5016,2894 4977,2864 4946,2827 4916,2788 4901,2746 4901,2697 4901,2653 4920,2606 4958,2557 4996,2506 5048,2466 5113,2433 5176,2402 5247,2385 5324,2385 5366,2385 5405,2392 5443,2405 5480,2419 5509,2433 5528,2449 L 5528,2360 C 5504,2326 5480,2303 5458,2292 5435,2281 5399,2275 5352,2275 5290,2276 5240,2282 5204,2291 5168,2299 5130,2312 5089,2331 5048,2348 5014,2362 4986,2372 L 4986,2302 C 4990,2298 4995,2293 5003,2286 5062,2232 5109,2192 5189,2168 Z M 5189,2168 L 5189,2168 Z M 5528,2624 C 5528,2596 5497,2572 5436,2552 5376,2530 5332,2520 5307,2520 5241,2520 5183,2534 5130,2566 5077,2594 5036,2629 5006,2667 4977,2706 4961,2738 4961,2763 4967,2790 4986,2807 5015,2817 5044,2828 5074,2833 5107,2833 5167,2833 5222,2824 5274,2807 5327,2790 5370,2768 5409,2744 5447,2718 5476,2696 5497,2671 5518,2649 5528,2633 5528,2624 Z"/>
        </g>
       </g>
       <g class="com.sun.star.drawing.ClosedBezierShape">
        <g id="id10">
         <rect class="BoundingBox" stroke="none" fill="none" x="7099" y="2148" width="771" height="816"/>
         <path fill="rgb(27,25,24)" stroke="none" d="M 7387,2178 C 7414,2171 7443,2164 7476,2157 7510,2151 7542,2148 7574,2148 7645,2148 7701,2158 7742,2179 7782,2199 7812,2229 7830,2268 7847,2306 7859,2349 7863,2396 7867,2445 7868,2509 7868,2594 L 7868,2962 C 7822,2944 7790,2930 7771,2921 7751,2911 7736,2905 7726,2901 7726,2880 7722,2867 7715,2861 7695,2874 7673,2887 7649,2901 7625,2915 7593,2928 7554,2938 7516,2949 7468,2955 7414,2955 7362,2955 7312,2945 7263,2924 7214,2904 7175,2874 7144,2837 7114,2798 7099,2756 7099,2707 7099,2663 7118,2616 7156,2567 7194,2516 7246,2476 7311,2443 7374,2412 7445,2395 7522,2395 7564,2395 7603,2402 7641,2415 7678,2429 7707,2443 7726,2459 L 7726,2370 C 7702,2336 7678,2313 7656,2302 7633,2291 7597,2285 7550,2285 7488,2286 7438,2292 7402,2301 7366,2309 7328,2322 7287,2341 7246,2358 7212,2372 7184,2382 L 7184,2312 C 7188,2308 7193,2303 7201,2296 7260,2242 7307,2202 7387,2178 Z M 7387,2178 L 7387,2178 Z M 7726,2634 C 7726,2606 7695,2582 7634,2562 7574,2540 7530,2530 7505,2530 7439,2530 7381,2544 7328,2576 7275,2604 7234,2639 7204,2677 7175,2716 7159,2748 7159,2773 7165,2800 7184,2817 7213,2827 7242,2838 7272,2843 7305,2843 7365,2843 7420,2834 7472,2817 7525,2800 7568,2778 7607,2754 7645,2728 7674,2706 7695,2681 7716,2659 7726,2643 7726,2634 Z"/>
        </g>
       </g>
       <g class="com.sun.star.drawing.ClosedBezierShape">
        <g id="id11">
         <rect class="BoundingBox" stroke="none" fill="none" x="6795" y="1074" width="865" height="944"/>
         <path fill="rgb(27,25,24)" stroke="none" d="M 7379,1287 C 7498,1394 7582,1521 7658,1650 7599,1428 7486,1238 7282,1074 7252,1267 7258,1465 7362,1697 7140,1562 6952,1521 6795,1556 6972,1840 7155,1964 7337,2017 7194,1930 7087,1804 6980,1676 7164,1639 7357,1757 7555,1924 7422,1723 7348,1513 7379,1287 Z"/>
        </g>
       </g>
       <g class="com.sun.star.drawing.ClosedBezierShape">
        <g id="id12">
         <rect class="BoundingBox" stroke="none" fill="none" x="7709" y="774" width="1535" height="1648"/>
         <path fill="rgb(27,25,24)" stroke="none" d="M 8281,1130 C 8068,1299 7853,1556 7710,1776 7823,1395 8101,1038 8468,775 8511,1110 8479,1429 8236,1851 8635,1640 8965,1626 9243,1706 8917,2177 8609,2346 8281,2420 8539,2283 8716,2100 8910,1891 8586,1807 8200,1971 7843,2236 8088,1904 8330,1525 8281,1130 Z"/>
        </g>
       </g>
       <g class="com.sun.star.drawing.ClosedBezierShape">
        <g id="id13">
         <rect class="BoundingBox" stroke="none" fill="none" x="8090" y="2483" width="865" height="944"/>
         <path fill="rgb(27,25,24)" stroke="none" d="M 8368,3213 C 8250,3106 8167,2979 8090,2850 8149,3072 8262,3260 8467,3426 8495,3233 8491,3035 8387,2803 8607,2938 8796,2979 8954,2944 8776,2660 8593,2536 8410,2483 8553,2570 8661,2694 8768,2824 8585,2861 8390,2743 8192,2574 8327,2777 8401,2987 8368,3213 Z"/>
        </g>
       </g>
       <g class="com.sun.star.drawing.ClosedBezierShape">
        <g id="id14">
         <rect class="BoundingBox" stroke="none" fill="none" x="5983" y="1989" width="999" height="1584"/>
         <path fill="rgb(197,12,28)" stroke="none" d="M 6301,1990 L 6302,2566 C 6302,2643 6314,2703 6338,2743 6362,2784 6416,2808 6502,2815 6552,2815 6601,2798 6646,2763 6691,2728 6728,2686 6754,2634 6782,2583 6797,2533 6797,2486 L 6794,2125 6980,2194 6980,3175 C 6980,3235 6966,3290 6939,3340 6911,3390 6874,3433 6827,3467 6781,3501 6729,3527 6671,3546 6614,3563 6556,3571 6496,3571 6381,3571 6286,3553 6208,3514 6130,3477 6074,3433 6038,3383 6001,3332 5984,3289 5984,3252 5984,3215 5994,3179 6014,3146 6035,3113 6062,3085 6095,3061 6128,3036 6165,3017 6208,3001 6252,2987 6293,2978 6334,2978 L 6446,3141 C 6420,3143 6381,3149 6329,3159 6277,3168 6224,3186 6173,3210 6120,3236 6093,3269 6093,3310 6096,3326 6105,3349 6122,3379 6140,3409 6171,3437 6215,3463 6259,3490 6317,3504 6388,3504 6461,3504 6532,3490 6597,3460 6662,3431 6715,3389 6754,3335 6794,3280 6812,3218 6812,3148 L 6812,2756 C 6803,2773 6775,2795 6729,2821 6683,2847 6608,2858 6504,2858 6440,2858 6379,2845 6322,2820 6267,2793 6220,2753 6185,2703 6150,2653 6132,2594 6132,2530 L 6132,1990 6301,1990 Z"/>
        </g>
       </g>
       <g class="com.sun.star.drawing.ClosedBezierShape">
        <g id="id15">
         <rect class="BoundingBox" stroke="none" fill="none" x="5575" y="1199" width="405" height="1749"/>
         <path fill="rgb(197,12,28)" stroke="none" d="M 5978,1767 L 5978,2947 C 5976,2947 5968,2944 5955,2937 5941,2930 5926,2921 5908,2911 5891,2901 5874,2891 5855,2881 5837,2872 5826,2867 5825,2867 L 5825,1769 C 5822,1693 5811,1620 5789,1555 5767,1488 5742,1432 5717,1388 5690,1345 5661,1304 5631,1267 5600,1230 5582,1207 5575,1200 L 5764,1200 C 5816,1254 5857,1315 5890,1385 5922,1455 5944,1523 5957,1589 5972,1656 5978,1716 5978,1767 Z"/>
        </g>
       </g>
       <g class="com.sun.star.drawing.ClosedBezierShape">
        <g id="id16">
         <rect class="BoundingBox" stroke="none" fill="none" x="3675" y="2109" width="1177" height="1378"/>
         <path fill="rgb(197,12,28)" stroke="none" d="M 4851,3066 C 4851,3136 4835,3183 4806,3208 4776,3232 4737,3245 4691,3245 4655,3245 4625,3239 4599,3228 4572,3218 4535,3198 4485,3172 4436,3145 4392,3125 4354,3111 4317,3098 4277,3091 4234,3091 4169,3091 4100,3106 4028,3139 3954,3171 3886,3216 3824,3276 3762,3335 3714,3404 3679,3486 3676,3476 3676,3459 3676,3437 3676,3372 3693,3302 3731,3226 3769,3149 3821,3085 3891,3032 3960,2978 4039,2952 4129,2952 4195,2952 4247,2962 4287,2984 4324,3004 4373,3036 4432,3079 4490,3123 4535,3145 4567,3145 4604,3145 4638,3135 4671,3115 4706,3096 4732,3071 4753,3041 4773,3009 4784,2981 4784,2952 4784,2921 4777,2892 4764,2865 4752,2837 4733,2815 4710,2798 4687,2781 4659,2773 4629,2773 4604,2773 4575,2778 4540,2791 4507,2804 4466,2821 4417,2844 4369,2867 4328,2884 4296,2895 4261,2907 4232,2912 4207,2912 4180,2912 4147,2898 4106,2871 4066,2844 4032,2810 4001,2768 3971,2728 3956,2694 3956,2663 3956,2634 3972,2604 4004,2576 4035,2546 4069,2529 4106,2526 L 4107,2515 C 4090,2489 4075,2466 4063,2449 4053,2432 4043,2413 4037,2396 4030,2376 4026,2355 4026,2329 4028,2249 4059,2192 4123,2159 4182,2128 4256,2111 4343,2110 4350,2110 4355,2110 4362,2110 L 4363,2110 C 4424,2110 4481,2124 4521,2187 4522,2188 4523,2189 4523,2191 4527,2196 4531,2199 4536,2202 4547,2202 4560,2192 4573,2172 4588,2152 4600,2138 4608,2128 4617,2118 4633,2112 4655,2110 4674,2110 4692,2115 4711,2128 4729,2141 4747,2157 4762,2178 4777,2199 4788,2221 4793,2241 L 4699,2356 C 4698,2326 4691,2298 4679,2269 4667,2241 4650,2226 4629,2226 4624,2226 4614,2231 4602,2239 4589,2246 4584,2255 4584,2265 4584,2265 4587,2272 4593,2285 4600,2299 4605,2313 4609,2329 4614,2343 4616,2362 4616,2383 4616,2469 4589,2524 4535,2550 4482,2576 4408,2590 4314,2590 4250,2590 4197,2599 4157,2616 4116,2633 4088,2653 4071,2674 4054,2697 4046,2714 4046,2728 4049,2754 4059,2773 4080,2784 4100,2795 4116,2803 4127,2803 4152,2803 4177,2795 4203,2784 4230,2773 4271,2753 4322,2726 4374,2697 4421,2676 4465,2660 4509,2644 4552,2636 4595,2634 4662,2634 4715,2663 4752,2721 4790,2781 4817,2845 4830,2914 4844,2982 4851,3034 4851,3066 Z M 4851,3066 L 4851,3066 Z M 4505,2296 C 4505,2219 4468,2179 4391,2179 4347,2179 4305,2192 4265,2216 4224,2242 4191,2272 4165,2311 4140,2349 4127,2385 4127,2422 4127,2445 4137,2472 4158,2502 4180,2533 4211,2547 4251,2549 4279,2549 4312,2537 4353,2516 4395,2495 4431,2465 4460,2428 4490,2389 4505,2345 4505,2296 Z"/>
        </g>
       </g>
       <g class="com.sun.star.drawing.ClosedBezierShape">
        <g id="id17">
         <rect class="BoundingBox" stroke="none" fill="none" x="3054" y="2115" width="815" height="850"/>
         <path fill="rgb(197,12,28)" stroke="none" d="M 3741,2418 C 3741,2264 3673,2188 3539,2188 3500,2188 3459,2199 3417,2225 3376,2249 3340,2283 3307,2328 3276,2372 3249,2425 3229,2485 3209,2547 3200,2610 3200,2676 L 3200,2954 3055,2871 3055,2149 3207,2149 3207,2264 C 3219,2254 3240,2236 3269,2212 3297,2188 3332,2165 3373,2145 3414,2125 3459,2115 3508,2115 3554,2115 3599,2125 3643,2147 3687,2169 3725,2199 3758,2238 3792,2276 3819,2322 3839,2375 3858,2428 3868,2485 3868,2546 3868,2614 3854,2683 3827,2753 3799,2824 3757,2894 3697,2964 L 3525,2848 C 3536,2833 3557,2810 3585,2780 3614,2751 3640,2721 3661,2691 3684,2661 3702,2623 3717,2579 3733,2532 3741,2479 3741,2418 Z"/>
        </g>
       </g>
       <g class="com.sun.star.drawing.ClosedBezierShape">
        <g id="id18">
         <rect class="BoundingBox" stroke="none" fill="none" x="2134" y="2120" width="772" height="817"/>
         <path fill="rgb(197,12,28)" stroke="none" d="M 2423,2151 C 2449,2144 2479,2137 2512,2129 2546,2124 2578,2121 2609,2121 2681,2121 2736,2131 2777,2152 2818,2172 2847,2202 2866,2241 2883,2279 2895,2322 2899,2369 2903,2418 2904,2482 2904,2567 L 2904,2935 C 2858,2917 2826,2902 2806,2894 2786,2884 2772,2878 2761,2874 2761,2853 2757,2840 2751,2834 2731,2847 2709,2860 2685,2874 2661,2888 2629,2901 2590,2911 2551,2922 2504,2928 2449,2928 2398,2928 2348,2918 2299,2897 2250,2877 2210,2847 2180,2810 2149,2771 2135,2728 2135,2680 2135,2636 2153,2589 2192,2540 2230,2489 2282,2449 2346,2416 2410,2385 2481,2368 2558,2368 2600,2368 2638,2375 2677,2388 2714,2402 2743,2416 2761,2432 L 2761,2343 C 2738,2309 2714,2286 2691,2275 2669,2264 2633,2258 2586,2258 2523,2259 2473,2265 2438,2274 2402,2282 2364,2295 2323,2313 2282,2331 2247,2345 2219,2355 L 2219,2285 C 2223,2281 2229,2276 2237,2269 2296,2215 2342,2175 2423,2151 Z M 2423,2151 L 2423,2151 Z M 2761,2607 C 2761,2579 2731,2554 2670,2534 2609,2513 2566,2503 2541,2503 2475,2503 2416,2517 2364,2549 2311,2577 2270,2611 2239,2650 2210,2689 2194,2721 2194,2746 2201,2773 2219,2790 2249,2800 2278,2811 2308,2815 2341,2815 2401,2815 2456,2807 2508,2790 2560,2773 2604,2751 2642,2727 2681,2701 2710,2679 2731,2654 2752,2631 2761,2616 2761,2607 Z"/>
        </g>
       </g>
       <g class="com.sun.star.drawing.ClosedBezierShape">
        <g id="id19">
         <rect class="BoundingBox" stroke="none" fill="none" x="172" y="1705" width="1918" height="1256"/>
         <path fill="rgb(197,12,28)" stroke="none" d="M 1798,1752 C 1890,1796 1959,1850 2007,1916 2061,1991 2089,2102 2089,2244 2089,2349 2067,2446 2024,2534 1979,2621 1929,2694 1869,2753 1811,2808 1754,2854 1701,2887 1649,2920 1618,2935 1611,2935 1597,2935 1560,2904 1500,2841 1441,2778 1392,2726 1354,2684 1437,2680 1530,2650 1633,2594 1733,2540 1820,2469 1893,2383 1966,2296 2001,2205 2001,2110 2001,2060 1988,2017 1960,1984 1933,1951 1898,1927 1855,1910 1811,1894 1763,1886 1713,1886 1560,1894 1441,1948 1356,2045 1272,2142 1215,2269 1186,2425 1179,2423 1144,2406 1076,2378 1009,2348 955,2323 914,2305 914,2258 923,2212 940,2165 957,2118 977,2075 1000,2037 1022,1997 1034,1975 1034,1974 1034,1948 1011,1931 968,1921 926,1911 887,1907 854,1907 781,1907 714,1927 648,1968 585,2010 533,2062 496,2127 459,2189 440,2254 440,2316 440,2388 459,2457 495,2524 532,2592 570,2650 612,2698 655,2746 706,2800 767,2858 829,2917 862,2951 865,2959 808,2939 742,2908 665,2867 589,2827 512,2774 435,2711 360,2650 296,2577 246,2497 196,2419 172,2333 172,2244 172,2139 199,2047 254,1964 308,1881 378,1819 466,1773 551,1727 640,1706 733,1706 804,1706 869,1716 926,1739 982,1762 1034,1789 1081,1819 1129,1850 1154,1864 1159,1864 1161,1864 1185,1853 1232,1829 1280,1806 1329,1783 1380,1763 1532,1704 1652,1685 1798,1752 Z"/>
        </g>
       </g>
       <g class="com.sun.star.drawing.ClosedBezierShape">
        <g id="id20">
         <rect class="BoundingBox" stroke="none" fill="none" x="4876" y="2112" width="771" height="816"/>
         <path fill="rgb(197,12,28)" stroke="none" d="M 5164,2142 C 5191,2135 5220,2128 5253,2121 5287,2115 5319,2112 5351,2112 5422,2112 5477,2122 5518,2144 5559,2164 5588,2194 5607,2232 5624,2271 5636,2313 5640,2360 5644,2409 5645,2473 5645,2559 L 5645,2927 C 5599,2908 5567,2894 5548,2885 5528,2875 5513,2870 5503,2865 5503,2844 5499,2831 5492,2825 5472,2838 5450,2851 5426,2865 5402,2880 5370,2892 5331,2902 5292,2914 5245,2920 5191,2920 5139,2920 5089,2910 5040,2888 4991,2868 4951,2838 4921,2801 4891,2763 4876,2720 4876,2671 4876,2627 4895,2580 4933,2532 4971,2480 5023,2440 5088,2408 5151,2376 5222,2359 5299,2359 5341,2359 5380,2366 5418,2379 5455,2393 5484,2408 5503,2423 L 5503,2335 C 5479,2301 5455,2278 5433,2266 5410,2255 5374,2249 5327,2249 5265,2251 5214,2256 5179,2265 5143,2274 5105,2286 5064,2305 5023,2322 4988,2336 4961,2346 L 4961,2276 C 4965,2272 4970,2268 4978,2261 5037,2206 5084,2167 5164,2142 Z M 5164,2142 L 5164,2142 Z M 5503,2599 C 5503,2570 5472,2546 5411,2526 5351,2505 5307,2495 5282,2495 5216,2495 5158,2509 5105,2540 5052,2569 5011,2603 4980,2641 4951,2680 4936,2713 4936,2737 4942,2764 4961,2781 4990,2791 5019,2803 5049,2807 5082,2807 5142,2807 5197,2798 5249,2781 5302,2764 5345,2743 5384,2718 5422,2693 5451,2670 5472,2646 5493,2623 5503,2607 5503,2599 Z"/>
        </g>
       </g>
       <g class="com.sun.star.drawing.ClosedBezierShape">
        <g id="id21">
         <rect class="BoundingBox" stroke="none" fill="none" x="7075" y="2120" width="771" height="817"/>
         <path fill="rgb(197,12,28)" stroke="none" d="M 7364,2151 C 7390,2144 7419,2137 7452,2129 7486,2124 7518,2121 7550,2121 7621,2121 7677,2131 7718,2152 7759,2172 7788,2202 7806,2241 7823,2279 7835,2322 7839,2369 7843,2418 7845,2482 7845,2567 L 7845,2935 C 7798,2917 7767,2902 7747,2894 7727,2884 7712,2878 7702,2874 7702,2853 7698,2840 7691,2834 7671,2847 7649,2860 7625,2874 7601,2888 7570,2901 7530,2911 7492,2922 7444,2928 7390,2928 7338,2928 7288,2918 7239,2897 7190,2877 7151,2847 7120,2810 7090,2771 7075,2728 7075,2680 7075,2636 7094,2589 7132,2540 7171,2489 7222,2449 7287,2416 7350,2385 7422,2368 7498,2368 7541,2368 7579,2375 7617,2388 7654,2402 7683,2416 7702,2432 L 7702,2343 C 7678,2309 7654,2286 7632,2275 7609,2264 7574,2258 7526,2258 7464,2259 7414,2265 7378,2274 7342,2282 7304,2295 7263,2313 7222,2331 7188,2345 7160,2355 L 7160,2285 C 7164,2281 7169,2276 7177,2269 7237,2215 7283,2175 7364,2151 Z M 7364,2151 L 7364,2151 Z M 7702,2607 C 7702,2579 7671,2554 7611,2534 7550,2513 7506,2503 7481,2503 7415,2503 7357,2517 7304,2549 7251,2577 7210,2611 7180,2650 7151,2689 7135,2721 7135,2746 7141,2773 7160,2790 7189,2800 7218,2811 7249,2815 7282,2815 7341,2815 7397,2807 7448,2790 7501,2773 7545,2751 7583,2727 7621,2701 7650,2679 7671,2654 7693,2631 7702,2616 7702,2607 Z"/>
        </g>
       </g>
       <g class="com.sun.star.drawing.ClosedBezierShape">
        <g id="id22">
         <rect class="BoundingBox" stroke="none" fill="none" x="6771" y="1047" width="865" height="944"/>
         <path fill="rgb(0,119,51)" stroke="none" d="M 7356,1260 C 7475,1367 7558,1493 7634,1623 7575,1401 7463,1211 7258,1047 7229,1240 7234,1438 7338,1670 7116,1535 6929,1493 6771,1529 6949,1813 7131,1937 7313,1990 7171,1903 7063,1777 6956,1649 7140,1612 7333,1730 7531,1897 7398,1696 7324,1486 7356,1260 Z"/>
        </g>
       </g>
       <g class="com.sun.star.drawing.ClosedBezierShape">
        <g id="id23">
         <rect class="BoundingBox" stroke="none" fill="none" x="7686" y="749" width="1535" height="1647"/>
         <path fill="rgb(0,119,51)" stroke="none" d="M 8257,1104 C 8044,1274 7829,1531 7686,1750 7800,1369 8077,1013 8445,749 8487,1084 8455,1404 8212,1826 8611,1615 8942,1600 9219,1680 8893,2151 8585,2321 8257,2395 8515,2258 8692,2074 8886,1866 8562,1781 8176,1946 7819,2211 8064,1878 8306,1499 8257,1104 Z"/>
        </g>
       </g>
       <g class="com.sun.star.drawing.ClosedBezierShape">
        <g id="id24">
         <rect class="BoundingBox" stroke="none" fill="none" x="8066" y="2456" width="865" height="944"/>
         <path fill="rgb(0,119,51)" stroke="none" d="M 8344,3186 C 8227,3079 8143,2952 8067,2823 8125,3045 8238,3233 8443,3399 8471,3206 8467,3008 8363,2775 8583,2911 8772,2952 8930,2917 8753,2633 8569,2509 8387,2456 8529,2543 8638,2667 8745,2797 8561,2834 8367,2716 8168,2547 8303,2750 8377,2959 8344,3186 Z"/>
        </g>
       </g>
       <g class="com.sun.star.drawing.ClosedBezierShape">
        <g id="id25">
         <rect class="BoundingBox" stroke="none" fill="none" x="172" y="3876" width="21580" height="2310"/>
         <path fill="rgb(0,119,51)" stroke="none" d="M 3295,6184 C 3239,6184 3188,6180 3145,6171 3102,6162 3048,6144 2986,6117 L 697,5109 697,6093 C 697,6154 672,6184 619,6184 L 249,6184 C 197,6184 172,6154 172,6093 L 172,3963 C 172,3905 197,3876 249,3876 L 602,3876 C 633,3876 661,3876 685,3878 710,3878 734,3882 758,3888 780,3894 804,3901 828,3908 852,3916 879,3926 910,3941 L 3046,4910 3046,3963 C 3046,3905 3072,3876 3124,3876 L 3494,3876 C 3545,3876 3572,3905 3572,3963 L 3572,6093 C 3572,6154 3545,6184 3494,6184 L 3295,6184 Z M 3295,6184 L 3295,6184 Z M 4760,6184 C 4621,6184 4493,6155 4376,6097 4261,6038 4161,5957 4078,5853 3995,5749 3930,5626 3885,5487 3839,5345 3816,5193 3816,5029 3816,4862 3839,4708 3883,4568 3928,4427 3992,4304 4074,4202 4156,4099 4256,4019 4373,3962 4489,3905 4618,3876 4760,3876 L 6167,3876 C 6311,3876 6441,3905 6556,3963 6672,4022 6771,4103 6855,4206 6938,4309 7003,4430 7048,4571 7093,4712 7115,4865 7115,5029 7115,5193 7093,5345 7046,5487 7000,5626 6935,5749 6852,5852 6769,5954 6668,6036 6552,6095 6436,6154 6307,6184 6167,6184 L 4760,6184 Z M 4760,6184 L 4760,6184 Z M 5969,4799 C 5969,4695 5964,4609 5952,4542 5940,4474 5922,4420 5895,4380 5867,4340 5833,4311 5789,4296 5747,4280 5693,4271 5631,4271 L 5240,4271 C 5183,4271 5134,4280 5094,4297 5056,4314 5023,4343 4998,4383 4971,4424 4953,4478 4941,4545 4930,4614 4924,4698 4924,4799 L 4924,5170 C 4924,5397 4949,5556 5000,5648 5051,5739 5131,5785 5240,5785 L 5631,5785 C 5690,5785 5740,5775 5783,5753 5825,5732 5859,5698 5887,5651 5915,5602 5936,5539 5949,5461 5963,5381 5969,5284 5969,5170 L 5969,4799 Z M 5969,4799 L 5969,4799 Z M 9170,6117 C 9152,6140 9133,6157 9113,6170 9095,6181 9074,6187 9050,6184 L 8861,6184 C 8811,6184 8768,6162 8734,6117 L 6963,3991 C 6946,3975 6937,3955 6937,3929 6937,3894 6959,3876 7003,3876 L 8205,3876 C 8268,3876 8316,3898 8355,3943 L 9469,5301 10627,3943 C 10648,3921 10670,3904 10693,3892 10715,3881 10743,3876 10776,3876 L 10940,3876 C 10977,3876 10996,3895 10996,3933 10996,3951 10988,3969 10973,3988 L 9170,6117 Z M 9170,6117 L 9170,6117 Z M 12414,5126 C 12362,5126 12337,5096 12337,5037 L 12337,4816 C 12337,4758 12362,4728 12414,4728 L 13787,4728 C 13837,4728 13861,4749 13861,4789 L 13861,5064 C 13861,5106 13837,5126 13787,5126 L 12414,5126 Z M 12414,5126 L 12414,5126 Z M 11799,6184 C 11664,6184 11539,6155 11424,6098 11309,6041 11210,5960 11125,5857 11040,5756 10976,5633 10927,5492 10881,5351 10857,5197 10857,5029 10857,4865 10879,4712 10924,4571 10970,4430 11034,4307 11116,4204 11199,4100 11298,4019 11413,3962 11529,3905 11658,3876 11799,3876 L 13807,3876 C 13858,3876 13885,3905 13885,3963 L 13885,4180 C 13885,4242 13858,4271 13807,4271 L 12472,4271 C 12408,4271 12356,4280 12312,4296 12270,4311 12234,4340 12208,4380 12181,4420 12161,4474 12149,4542 12139,4609 12132,4695 12132,4799 L 12132,5170 C 12132,5284 12140,5381 12153,5461 12167,5539 12186,5602 12214,5651 12242,5698 12278,5732 12320,5753 12362,5775 12412,5785 12472,5785 L 13816,5785 C 13868,5785 13893,5816 13893,5877 L 13893,6093 C 13893,6154 13868,6184 13816,6184 L 11799,6184 Z M 11799,6184 L 11799,6184 Z M 17267,6184 C 17210,6184 17160,6180 17116,6171 17073,6162 17020,6144 16956,6117 L 14669,5109 14669,6093 C 14669,6154 14642,6184 14591,6184 L 14220,6184 C 14169,6184 14142,6154 14142,6093 L 14142,3963 C 14142,3905 14169,3876 14220,3876 L 14573,3876 C 14604,3876 14632,3876 14657,3878 14682,3878 14706,3882 14729,3888 14752,3894 14776,3901 14799,3908 14823,3916 14850,3926 14881,3941 L 17017,4910 17017,3963 C 17017,3905 17044,3876 17095,3876 L 17465,3876 C 17517,3876 17543,3905 17543,3963 L 17543,6093 C 17543,6154 17517,6184 17465,6184 L 17267,6184 Z M 17267,6184 L 17267,6184 Z M 20480,6184 C 20419,6184 20369,6162 20331,6117 L 19219,4759 18342,5785 19645,5785 C 19696,5785 19723,5816 19723,5877 L 19723,6093 C 19723,6154 19696,6184 19645,6184 L 17747,6184 C 17710,6184 17693,6165 17693,6127 17693,6120 17694,6111 17697,6101 17699,6091 17706,6081 17715,6073 L 19515,3941 C 19552,3898 19592,3876 19637,3876 L 19826,3876 C 19873,3876 19916,3898 19951,3941 L 21726,6066 C 21736,6077 21742,6088 21745,6100 21748,6111 21750,6121 21750,6130 21750,6167 21728,6184 21684,6184 L 20480,6184 Z"/>
        </g>
       </g>
       <g class="com.sun.star.drawing.ClosedBezierShape">
        <g id="id26">
         <rect class="BoundingBox" stroke="none" fill="none" x="2497" y="6941" width="16927" height="2310"/>
         <path fill="rgb(0,119,51)" stroke="none" d="M 3438,9250 C 3302,9250 3176,9221 3063,9164 2948,9107 2847,9026 2764,8923 2679,8822 2613,8700 2567,8557 2520,8416 2497,8262 2497,8095 2497,7931 2520,7778 2564,7637 2609,7494 2673,7372 2755,7269 2837,7165 2936,7084 3052,7027 3168,6970 3297,6941 3438,6941 L 5439,6941 C 5492,6941 5517,6970 5517,7028 L 5517,7245 C 5517,7306 5492,7336 5439,7336 L 4111,7336 C 4047,7336 3995,7345 3951,7360 3907,7376 3873,7405 3846,7445 3819,7484 3800,7540 3788,7609 3776,7676 3771,7761 3771,7865 L 3771,8235 C 3771,8349 3778,8446 3791,8526 3804,8604 3825,8667 3853,8717 3881,8764 3915,8798 3958,8819 4000,8841 4051,8851 4111,8851 L 4618,8851 4618,7815 C 4618,7754 4643,7723 4694,7723 L 5514,7723 C 5566,7723 5592,7754 5592,7815 L 5592,9159 C 5592,9220 5566,9250 5514,9250 L 3438,9250 Z M 3438,9250 L 3438,9250 Z M 8326,9250 C 8248,9250 8184,9220 8137,9159 L 7272,8112 C 7256,8095 7245,8076 7235,8061 7227,8044 7223,8019 7223,7988 L 7223,7882 C 7223,7824 7247,7794 7297,7794 L 7691,7794 C 7782,7794 7851,7774 7896,7734 7941,7693 7964,7637 7964,7564 7964,7412 7872,7336 7691,7336 L 7050,7336 7050,9159 C 7050,9220 7025,9250 6974,9250 L 5988,9250 C 5936,9250 5911,9220 5911,9159 L 5911,7028 C 5911,6970 5936,6941 5988,6941 L 8498,6941 C 8583,6941 8664,6954 8739,6982 8813,7011 8878,7051 8932,7102 8988,7155 9030,7216 9061,7289 9091,7360 9107,7442 9107,7530 9107,7626 9092,7710 9062,7785 9033,7861 8992,7927 8942,7981 8891,8035 8832,8079 8763,8112 8696,8146 8623,8170 8546,8183 L 9339,9142 C 9353,9156 9359,9174 9359,9196 9359,9210 9355,9223 9346,9234 9338,9244 9325,9250 9308,9250 L 8326,9250 Z M 8326,9250 L 8326,9250 Z M 11046,8190 C 10994,8190 10969,8160 10969,8102 L 10969,7882 C 10969,7824 10994,7794 11046,7794 L 12419,7794 C 12469,7794 12493,7815 12493,7855 L 12493,8129 C 12493,8170 12469,8190 12419,8190 L 11046,8190 Z M 11046,8190 L 11046,8190 Z M 10430,9250 C 10295,9250 10169,9221 10054,9164 9939,9107 9840,9026 9756,8923 9671,8822 9606,8700 9559,8557 9513,8416 9489,8262 9489,8095 9489,7931 9511,7778 9556,7637 9601,7494 9665,7372 9747,7269 9830,7165 9929,7084 10044,7027 10160,6970 10288,6941 10430,6941 L 12439,6941 C 12490,6941 12517,6970 12517,7028 L 12517,7245 C 12517,7306 12490,7336 12439,7336 L 11104,7336 C 11040,7336 10988,7345 10943,7360 10900,7376 10865,7405 10838,7445 10812,7484 10792,7540 10781,7609 10770,7676 10763,7761 10763,7865 L 10763,8235 C 10763,8349 10771,8446 10784,8526 10797,8604 10817,8667 10845,8717 10873,8764 10908,8798 10951,8819 10994,8841 11044,8851 11104,8851 L 12448,8851 C 12500,8851 12525,8882 12525,8943 L 12525,9159 C 12525,9220 12500,9250 12448,9250 L 10430,9250 Z M 10430,9250 L 10430,9250 Z M 14294,8190 C 14243,8190 14217,8160 14217,8102 L 14217,7882 C 14217,7824 14243,7794 14294,7794 L 15666,7794 C 15717,7794 15742,7815 15742,7855 L 15742,8129 C 15742,8170 15717,8190 15666,8190 L 14294,8190 Z M 14294,8190 L 14294,8190 Z M 13680,9250 C 13544,9250 13418,9221 13303,9164 13188,9107 13089,9026 13005,8923 12920,8822 12855,8700 12808,8557 12761,8416 12738,8262 12738,8095 12738,7931 12760,7778 12805,7637 12850,7494 12913,7372 12997,7269 13079,7165 13178,7084 13293,7027 13409,6970 13537,6941 13680,6941 L 15686,6941 C 15738,6941 15764,6970 15764,7028 L 15764,7245 C 15764,7306 15738,7336 15686,7336 L 14351,7336 C 14288,7336 14235,7345 14191,7360 14149,7376 14113,7405 14087,7445 14061,7484 14041,7540 14030,7609 14018,7676 14013,7761 14013,7865 L 14013,8235 C 14013,8349 14020,8446 14033,8526 14046,8604 14067,8667 14095,8717 14123,8764 14157,8798 14199,8819 14242,8841 14292,8851 14351,8851 L 15695,8851 C 15747,8851 15773,8882 15773,8943 L 15773,9159 C 15773,9220 15747,9250 15695,9250 L 13680,9250 Z M 13680,9250 L 13680,9250 Z M 19146,9250 C 19090,9250 19039,9246 18996,9237 18953,9229 18899,9210 18837,9183 L 16548,8173 16548,9159 C 16548,9220 16523,9250 16470,9250 L 16100,9250 C 16048,9250 16023,9220 16023,9159 L 16023,7028 C 16023,6970 16048,6941 16100,6941 L 16453,6941 C 16485,6941 16512,6941 16536,6943 16561,6943 16585,6947 16609,6953 16631,6958 16655,6965 16679,6973 16703,6981 16730,6991 16761,7005 L 18897,7976 18897,7028 C 18897,6970 18923,6941 18975,6941 L 19345,6941 C 19396,6941 19423,6970 19423,7028 L 19423,9159 C 19423,9220 19396,9250 19345,9250 L 19146,9250 Z"/>
        </g>
       </g>
      </g>
     </g>
    </g>
   </g>
  </g>
 </g>
</svg>