<svg xmlns="http://www.w3.org/2000/svg" width="187.775" height="171.458" viewBox="0 0 187.775 171.458">
  <g id="Resume-bro" transform="translate(-35.247 -60.389)">
    <g id="freepik--background-simple--inject-93" transform="translate(41.67 60.389)">
      <path id="Path_286" data-name="Path 286" d="M222.8,167.271a102.815,102.815,0,0,0-3.95-17.714c-1.959-6.393-4.242-12.837-4-19.5.169-4.7,1.589-9.257,2.283-13.91A54.673,54.673,0,0,0,215.6,93.767a40.525,40.525,0,0,0-6.85-14.613,37.087,37.087,0,0,0-11.133-9.215c-11.152-6.306-24.2-8.293-36.99-9.133-12.275-.822-24.8-.671-36.615,2.74A55.886,55.886,0,0,0,89.7,91.785c-7.594,14.869-11.987,31.578-22.628,44.753-5.617,6.955-12.942,12.869-16.157,21.207-4.6,11.923,1.114,26.29,11.535,33.688,6.571,4.667,14.531,6.9,21.673,10.636,6.59,3.448,12.444,8.161,18.933,11.8,23.838,13.348,53.425,10.745,79.742,3.548,13.161-3.585,26.943-8.9,34.5-20.257C223.089,188.428,224.07,177.856,222.8,167.271Z" transform="translate(-49.312 -60.389)" fill="#14a2cc"/>
      <path id="Path_287" data-name="Path 287" d="M222.8,167.271a102.815,102.815,0,0,0-3.95-17.714c-1.959-6.393-4.242-12.837-4-19.5.169-4.7,1.589-9.257,2.283-13.91A54.673,54.673,0,0,0,215.6,93.767a40.525,40.525,0,0,0-6.85-14.613,37.087,37.087,0,0,0-11.133-9.215c-11.152-6.306-24.2-8.293-36.99-9.133-12.275-.822-24.8-.671-36.615,2.74A55.886,55.886,0,0,0,89.7,91.785c-7.594,14.869-11.987,31.578-22.628,44.753-5.617,6.955-12.942,12.869-16.157,21.207-4.6,11.923,1.114,26.29,11.535,33.688,6.571,4.667,14.531,6.9,21.673,10.636,6.59,3.448,12.444,8.161,18.933,11.8,23.838,13.348,53.425,10.745,79.742,3.548,13.161-3.585,26.943-8.9,34.5-20.257C223.089,188.428,224.07,177.856,222.8,167.271Z" transform="translate(-49.312 -60.389)" fill="#fff" opacity="0.8"/>
    </g>
    <g id="freepik--Shadow--inject-93" transform="translate(59.104 221.235)">
      <ellipse id="Ellipse_13" data-name="Ellipse 13" cx="77.08" cy="5.306" rx="77.08" ry="5.306" fill="#263238"/>
    </g>
    <g id="freepik--Plants--inject-93" transform="translate(35.247 128.733)">
      <path id="Path_288" data-name="Path 288" d="M143.009,267.881c-.32-1.544-.744-3.758-1.133-6.434-.114-.772-.224-1.589-.324-2.434a14.317,14.317,0,0,0,4.178-1.37,4.4,4.4,0,0,0,2.069-3.105,2.119,2.119,0,0,0-2.206-2.283c-1.79.123-3.443,2.9-3.831,4.457-.023.1-.183,1.306-.251,1.927-.059-.511-.119-1.018-.174-1.548-.082-.767-.146-1.575-.21-2.361,0-.411-.041-.822-.059-1.238s0-.822,0-1.242c0-.612.046-1.247.078-1.877a13.336,13.336,0,0,0,4.11-.708,4.535,4.535,0,0,0,2.516-2.74,2.128,2.128,0,0,0-1.827-2.571c-1.786-.146-3.845,2.347-4.457,3.827-.023.046-.119.374-.233.763.055-.616.105-1.233.183-1.854.21-1.758.484-3.548.749-5.343.055-.374.105-.744.16-1.119a14.13,14.13,0,0,0,4.233-.712,4.451,4.451,0,0,0,2.516-2.74,2.123,2.123,0,0,0-1.827-2.571c-1.79-.146-3.845,2.347-4.462,3.827,0,.05-.137.457-.265.877.132-.973.247-1.95.333-2.918a37.077,37.077,0,0,0,.142-5.023,14.506,14.506,0,0,0,4.361-.717,4.442,4.442,0,0,0,2.516-2.74,2.119,2.119,0,0,0-1.827-2.566c-1.79-.151-3.845,2.347-4.462,3.822-.046.105-.457,1.521-.58,2.028a.259.259,0,0,1,0-.059,27.857,27.857,0,0,0-.749-4.863A38.069,38.069,0,0,0,141,222.06c-.457-1.279-.954-2.425-1.4-3.434-.247-.548-.484-1.041-.708-1.5h.037c.032,0-.055-2.169-.073-2.283-.247-1.58-1.649-4.494-3.42-4.777a2.119,2.119,0,0,0-2.4,2.055,4.44,4.44,0,0,0,1.781,3.279,14.342,14.342,0,0,0,3.968,1.708c.224.484.457,1,.708,1.575.425,1.018.913,2.169,1.32,3.457.114.342.224.717.338,1.073-.315-.566-.758-1.338-.813-1.407-.945-1.292-3.535-3.233-5.233-2.667a2.119,2.119,0,0,0-1.183,2.927,4.4,4.4,0,0,0,3.1,2.087,15.138,15.138,0,0,0,4.329-.311c.237.8.457,1.626.648,2.5a27.269,27.269,0,0,1,.612,4.79v.288c-.11-.311-.822-1.95-.881-2.06-.8-1.37-3.16-3.6-4.914-3.229a2.123,2.123,0,0,0-1.5,2.786,4.447,4.447,0,0,0,2.85,2.411,14.958,14.958,0,0,0,4.439.155,37.108,37.108,0,0,1-.242,4.841c-.132,1.192-.315,2.393-.511,3.594-.151-.4-.808-1.923-.872-2.028-.795-1.37-3.156-3.6-4.909-3.224a2.123,2.123,0,0,0-1.5,2.781,4.443,4.443,0,0,0,2.85,2.416,14.314,14.314,0,0,0,4.416.155c-.091.543-.178,1.091-.269,1.639-.306,1.781-.617,3.571-.868,5.343-.091.616-.155,1.224-.219,1.827-.242-.589-.7-1.648-.753-1.735-.8-1.37-3.16-3.6-4.914-3.224a2.123,2.123,0,0,0-1.5,2.781,4.442,4.442,0,0,0,2.85,2.416,13.979,13.979,0,0,0,4.265.169c-.105,1.014-.183,2.023-.215,3.019,0,.429-.041.872,0,1.283s0,.831.027,1.238c.055.845.1,1.63.164,2.416.032.4.068.772.105,1.155-.155-.63-.42-1.63-.457-1.717-.58-1.493-2.576-4.037-4.37-3.932a2.128,2.128,0,0,0-1.9,2.525,4.387,4.387,0,0,0,2.448,2.818,14.748,14.748,0,0,0,4.32.822c.091.941.192,1.859.3,2.713.338,2.713.717,4.955,1,6.526s.493,2.461.493,2.461h0a.63.63,0,1,0,1.219-.3S143.328,269.429,143.009,267.881Z" transform="translate(-88.377 -210.05)" fill="#14a2cc"/>
      <path id="Path_289" data-name="Path 289" d="M151.5,230.963a14.956,14.956,0,0,0,4.06-1.859,4.266,4.266,0,0,0,1.694-3.324,2.119,2.119,0,0,0-2.448-1.991c-1.763.329-3.092,3.279-3.293,4.868C151.5,228.794,151.471,230.972,151.5,230.963Z" transform="translate(-98.405 -217.501)" fill="#14a2cc"/>
      <path id="Path_290" data-name="Path 290" d="M105.933,288.677a.63.63,0,1,1-.849.913h0s-.667-.639-1.767-1.786-2.662-2.813-4.439-4.886c-.562-.658-1.146-1.37-1.744-2.1a14.668,14.668,0,0,1-4.055,1.694,4.445,4.445,0,0,1-3.6-1,2.124,2.124,0,0,1,.192-3.151c1.438-1.078,4.507-.055,5.813.872.078.055.849.74,1.324,1.178-.242-.3-.457-.589-.726-.913-.489-.616-.959-1.247-1.466-1.927l-.708-1.014c-.247-.333-.457-.717-.694-1.078-.525-.849-1.014-1.735-1.484-2.639a14.092,14.092,0,0,1-3.653,2.21,4.377,4.377,0,0,1-3.708-.457,2.123,2.123,0,0,1-.288-3.146c1.26-1.279,4.448-.735,5.877,0,.091.046,1.059.676,1.585,1.032-.279-.548-.562-1.091-.827-1.653-.767-1.617-1.493-3.279-2.224-4.936-.224-.507-.457-1.009-.68-1.516a14.7,14.7,0,0,1-3.767,2.306,4.379,4.379,0,0,1-3.708-.457,2.123,2.123,0,0,1-.288-3.146c1.256-1.279,4.443-.735,5.877,0,.11.055,1.5.964,1.827,1.21-.5-1.11-1.009-2.21-1.557-3.279a37.728,37.728,0,0,0-2.466-4.174,14.922,14.922,0,0,1-3.79,2.324,4.4,4.4,0,0,1-3.708-.457,2.119,2.119,0,0,1-.283-3.146c1.256-1.279,4.443-.735,5.873,0,.114.055,1.612,1.032,1.872,1.228-.055-.078-.1-.16-.155-.237a27.648,27.648,0,0,0-3.2-3.653c-.639-.63-1.283-1.2-1.923-1.735a14.589,14.589,0,0,1-3.439,2.653,4.364,4.364,0,0,1-3.735-.037,2.119,2.119,0,0,1-.63-3.092c1.11-1.411,4.338-1.224,5.841-.667.082.032.877.429,1.452.726-.292-.237-.589-.489-.872-.708-1.069-.84-2.1-1.544-3.009-2.155-.525-.342-1-.644-1.457-.913a14.072,14.072,0,0,1-4.252.763,4.423,4.423,0,0,1-3.3-1.754,2.128,2.128,0,0,1,.868-3.037c1.635-.74,4.411.913,5.48,2.1.091.105,1.37,1.872,1.333,1.881h-.037c.457.256.913.539,1.416.859.913.594,1.977,1.274,3.069,2.091a39.065,39.065,0,0,1,3.388,2.8,28.455,28.455,0,0,1,3.306,3.653.188.188,0,0,0,.032.05c-.174-.493-.612-1.9-.635-2.009-.3-1.571.041-4.79,1.612-5.653a2.123,2.123,0,0,1,2.95,1.128,4.521,4.521,0,0,1-.575,3.69,14.8,14.8,0,0,1-3.242,3,38.154,38.154,0,0,1,2.644,4.256c.457.859.913,1.735,1.333,2.621-.137-.434-.256-.822-.265-.877-.3-1.571.037-4.79,1.612-5.653a2.123,2.123,0,0,1,2.95,1.132,4.513,4.513,0,0,1-.575,3.685,13.791,13.791,0,0,1-3.142,2.932c.16.342.324.68.484,1.023.772,1.639,1.53,3.283,2.324,4.873.279.557.575,1.1.868,1.639-.119-.384-.215-.708-.228-.763-.3-1.571.041-4.786,1.612-5.649a2.123,2.123,0,0,1,2.95,1.128,4.439,4.439,0,0,1-.575,3.69,13.21,13.21,0,0,1-3.046,2.859c.32.543.635,1.091.968,1.607.237.347.457.7.694,1.032l.731,1c.489.616.986,1.26,1.48,1.849.338.416.667.8,1,1.2-.288-.553-.822-1.649-.854-1.744-.539-1.512-.69-4.74.735-5.832a2.123,2.123,0,0,1,3.087.667,4.5,4.5,0,0,1,0,3.735,13.867,13.867,0,0,1-2.74,3.443c.553.648,1.091,1.27,1.617,1.854,1.8,2.014,3.375,3.626,4.494,4.74S105.933,288.677,105.933,288.677Zm-27.55-37.871a15.3,15.3,0,0,0,2.361-3.79,4.438,4.438,0,0,0-.416-3.708A2.123,2.123,0,0,0,77.182,243c-1.288,1.247-.767,4.439-.059,5.877C77.163,249,78.36,250.829,78.383,250.806Z" transform="translate(-51.246 -227.648)" fill="#14a2cc"/>
      <path id="Path_291" data-name="Path 291" d="M105.933,288.677a.63.63,0,1,1-.849.913h0s-.667-.639-1.767-1.786-2.662-2.813-4.439-4.886c-.562-.658-1.146-1.37-1.744-2.1a14.668,14.668,0,0,1-4.055,1.694,4.445,4.445,0,0,1-3.6-1,2.124,2.124,0,0,1,.192-3.151c1.438-1.078,4.507-.055,5.813.872.078.055.849.74,1.324,1.178-.242-.3-.457-.589-.726-.913-.489-.616-.959-1.247-1.466-1.927l-.708-1.014c-.247-.333-.457-.717-.694-1.078-.525-.849-1.014-1.735-1.484-2.639a14.092,14.092,0,0,1-3.653,2.21,4.377,4.377,0,0,1-3.708-.457,2.123,2.123,0,0,1-.288-3.146c1.26-1.279,4.448-.735,5.877,0,.091.046,1.059.676,1.585,1.032-.279-.548-.562-1.091-.827-1.653-.767-1.617-1.493-3.279-2.224-4.936-.224-.507-.457-1.009-.68-1.516a14.7,14.7,0,0,1-3.767,2.306,4.379,4.379,0,0,1-3.708-.457,2.123,2.123,0,0,1-.288-3.146c1.256-1.279,4.443-.735,5.877,0,.11.055,1.5.964,1.827,1.21-.5-1.11-1.009-2.21-1.557-3.279a37.728,37.728,0,0,0-2.466-4.174,14.922,14.922,0,0,1-3.79,2.324,4.4,4.4,0,0,1-3.708-.457,2.119,2.119,0,0,1-.283-3.146c1.256-1.279,4.443-.735,5.873,0,.114.055,1.612,1.032,1.872,1.228-.055-.078-.1-.16-.155-.237a27.648,27.648,0,0,0-3.2-3.653c-.639-.63-1.283-1.2-1.923-1.735a14.589,14.589,0,0,1-3.439,2.653,4.364,4.364,0,0,1-3.735-.037,2.119,2.119,0,0,1-.63-3.092c1.11-1.411,4.338-1.224,5.841-.667.082.032.877.429,1.452.726-.292-.237-.589-.489-.872-.708-1.069-.84-2.1-1.544-3.009-2.155-.525-.342-1-.644-1.457-.913a14.072,14.072,0,0,1-4.252.763,4.423,4.423,0,0,1-3.3-1.754,2.128,2.128,0,0,1,.868-3.037c1.635-.74,4.411.913,5.48,2.1.091.105,1.37,1.872,1.333,1.881h-.037c.457.256.913.539,1.416.859.913.594,1.977,1.274,3.069,2.091a39.065,39.065,0,0,1,3.388,2.8,28.455,28.455,0,0,1,3.306,3.653.188.188,0,0,0,.032.05c-.174-.493-.612-1.9-.635-2.009-.3-1.571.041-4.79,1.612-5.653a2.123,2.123,0,0,1,2.95,1.128,4.521,4.521,0,0,1-.575,3.69,14.8,14.8,0,0,1-3.242,3,38.154,38.154,0,0,1,2.644,4.256c.457.859.913,1.735,1.333,2.621-.137-.434-.256-.822-.265-.877-.3-1.571.037-4.79,1.612-5.653a2.123,2.123,0,0,1,2.95,1.132,4.513,4.513,0,0,1-.575,3.685,13.791,13.791,0,0,1-3.142,2.932c.16.342.324.68.484,1.023.772,1.639,1.53,3.283,2.324,4.873.279.557.575,1.1.868,1.639-.119-.384-.215-.708-.228-.763-.3-1.571.041-4.786,1.612-5.649a2.123,2.123,0,0,1,2.95,1.128,4.439,4.439,0,0,1-.575,3.69,13.21,13.21,0,0,1-3.046,2.859c.32.543.635,1.091.968,1.607.237.347.457.7.694,1.032l.731,1c.489.616.986,1.26,1.48,1.849.338.416.667.8,1,1.2-.288-.553-.822-1.649-.854-1.744-.539-1.512-.69-4.74.735-5.832a2.123,2.123,0,0,1,3.087.667,4.5,4.5,0,0,1,0,3.735,13.867,13.867,0,0,1-2.74,3.443c.553.648,1.091,1.27,1.617,1.854,1.8,2.014,3.375,3.626,4.494,4.74S105.933,288.677,105.933,288.677Zm-27.55-37.871a15.3,15.3,0,0,0,2.361-3.79,4.438,4.438,0,0,0-.416-3.708A2.123,2.123,0,0,0,77.182,243c-1.288,1.247-.767,4.439-.059,5.877C77.163,249,78.36,250.829,78.383,250.806Z" transform="translate(-51.246 -227.648)" opacity="0.1"/>
      <path id="Path_292" data-name="Path 292" d="M114.547,341.231c-.388-1.53-.913-3.722-1.416-6.393-.146-.763-.292-1.58-.429-2.416a14.567,14.567,0,0,0,4.11-1.548,4.452,4.452,0,0,0,1.932-3.2,2.119,2.119,0,0,0-2.283-2.16c-1.786.2-3.315,3.05-3.653,4.621,0,.1-.128,1.315-.164,1.936-.087-.507-.169-1.009-.247-1.539-.114-.758-.215-1.566-.315-2.347l-.11-1.233c-.05-.42-.041-.827-.064-1.242v-1.877a13.5,13.5,0,0,0,4.083-.891,4.478,4.478,0,0,0,2.388-2.863,2.119,2.119,0,0,0-1.95-2.484c-1.79-.073-3.735,2.512-4.288,4.019,0,.046-.1.374-.192.767,0-.616.05-1.228.1-1.854.137-1.772.329-3.566.516-5.37.037-.379.069-.754.11-1.128a13.778,13.778,0,0,0,4.2-.913,4.451,4.451,0,0,0,2.393-2.868,2.123,2.123,0,0,0-1.95-2.484c-1.79-.069-3.74,2.516-4.288,4.019,0,.055-.119.457-.224.891.087-.982.16-1.959.205-2.932a37.3,37.3,0,0,0-.082-5.023,14.2,14.2,0,0,0,4.329-.913,4.429,4.429,0,0,0,2.388-2.868,2.119,2.119,0,0,0-1.95-2.484c-1.79-.069-3.735,2.516-4.288,4.019-.037.105-.384,1.534-.489,2.05v-.059a27.54,27.54,0,0,0-.959-4.827,38.3,38.3,0,0,0-1.466-4.146c-.511-1.26-1.059-2.384-1.553-3.375-.269-.534-.525-1.014-.772-1.466h.037c.032,0-.146-2.16-.174-2.283-.315-1.571-1.827-4.42-3.653-4.626a2.119,2.119,0,0,0-2.283,2.16,4.491,4.491,0,0,0,1.927,3.2,14.935,14.935,0,0,0,4.037,1.534c.247.457.5.977.776,1.539.457,1,.986,2.128,1.47,3.4.132.338.256.7.384,1.059-.338-.553-.817-1.306-.872-1.37-1-1.247-3.653-3.069-5.347-2.429a2.123,2.123,0,0,0-1.05,2.977,4.434,4.434,0,0,0,3.2,1.95,14.589,14.589,0,0,0,4.311-.507c.274.79.534,1.607.758,2.475a26.88,26.88,0,0,1,.845,4.786v.283c-.119-.3-.913-1.913-.968-2.018-.859-1.37-3.315-3.457-5.051-3a2.119,2.119,0,0,0-1.37,2.845,4.5,4.5,0,0,0,2.95,2.283,15.034,15.034,0,0,0,4.443-.041,38.209,38.209,0,0,1-.032,4.845c-.082,1.2-.21,2.4-.352,3.612-.164-.388-.913-1.886-.959-1.986-.859-1.37-3.315-3.457-5.051-3a2.119,2.119,0,0,0-1.37,2.845,4.512,4.512,0,0,0,2.95,2.283,14.62,14.62,0,0,0,4.42-.041c-.068.548-.128,1.1-.2,1.649-.224,1.795-.457,3.6-.635,5.379-.059.617-.1,1.228-.137,1.827-.269-.575-.776-1.617-.831-1.7-.859-1.37-3.311-3.457-5.023-3a2.123,2.123,0,0,0-1.37,2.845,4.512,4.512,0,0,0,2.95,2.283,13.934,13.934,0,0,0,4.27-.023c-.059,1.018-.1,2.032-.082,3.028,0,.434,0,.872.041,1.283l.082,1.238c.091.84.169,1.621.269,2.407.05.393.105.763.16,1.146-.187-.621-.493-1.607-.53-1.694-.648-1.466-2.74-3.918-4.539-3.735a2.123,2.123,0,0,0-1.786,2.6,4.422,4.422,0,0,0,2.571,2.708,14.547,14.547,0,0,0,4.352.63c.132.941.269,1.849.416,2.7.457,2.69.913,4.918,1.288,6.471s.6,2.439.6,2.439h0a.63.63,0,0,0,1.206-.356S114.935,342.766,114.547,341.231Z" transform="translate(-71.565 -250.086)" fill="#14a2cc"/>
      <path id="Path_293" data-name="Path 293" d="M121.615,303.97a15.139,15.139,0,0,0,3.973-2.032,4.454,4.454,0,0,0,1.553-3.4,2.123,2.123,0,0,0-2.539-1.881c-1.744.406-2.941,3.411-3.073,5.023C121.514,301.815,121.583,303.984,121.615,303.97Z" transform="translate(-82.126 -257.085)" fill="#14a2cc"/>
      <path id="Path_294" data-name="Path 294" d="M76.517,360.443c-1.164-1.059-2.808-2.6-4.7-4.539-.543-.557-1.114-1.155-1.69-1.776a14.736,14.736,0,0,0,2.576-3.562,4.437,4.437,0,0,0-.155-3.731,2.119,2.119,0,0,0-3.11-.53c-1.37,1.151-1.082,4.375-.479,5.854.037.1.621,1.169.913,1.708-.352-.374-.7-.749-1.055-1.151-.516-.566-1.041-1.187-1.557-1.781l-.776-.968c-.269-.324-.484-.667-.735-1-.356-.5-.7-1.032-1.041-1.566a13.513,13.513,0,0,0,2.918-2.991,4.467,4.467,0,0,0,.411-3.708,2.119,2.119,0,0,0-3-1c-1.534.913-1.731,4.156-1.37,5.713,0,.055.128.374.265.753-.32-.53-.639-1.055-.945-1.6-.863-1.553-1.694-3.156-2.534-4.763-.174-.333-.352-.667-.53-1a14.154,14.154,0,0,0,3.009-3.069,4.4,4.4,0,0,0,.411-3.708,2.119,2.119,0,0,0-3-1c-1.534.913-1.731,4.156-1.37,5.713a8.64,8.64,0,0,0,.306.868c-.457-.868-.95-1.722-1.448-2.562A38.085,38.085,0,0,0,55,330.92a14.781,14.781,0,0,0,3.11-3.146,4.413,4.413,0,0,0,.411-3.708,2.119,2.119,0,0,0-3-1c-1.534.913-1.731,4.16-1.37,5.717.027.11.53,1.493.722,1.982l-.032-.05a28.186,28.186,0,0,0-3.466-3.493,38.327,38.327,0,0,0-3.461-2.653c-1.123-.767-2.2-1.4-3.156-1.954-.521-.3-1-.557-1.452-.795h.032c.032,0-1.315-1.722-1.416-1.827-1.128-1.137-3.973-2.667-5.571-1.854a2.119,2.119,0,0,0-.735,3.069A4.432,4.432,0,0,0,39,322.814a14.479,14.479,0,0,0,4.21-.95c.457.256.959.534,1.5.859.941.571,2,1.228,3.1,2.018.3.21.6.457.913.671-.585-.274-1.4-.635-1.484-.662-1.525-.489-4.758-.539-5.8.913a2.128,2.128,0,0,0,.767,3.064,4.447,4.447,0,0,0,3.731-.132,14.992,14.992,0,0,0,3.32-2.8c.662.507,1.329,1.046,2,1.644a27.151,27.151,0,0,1,3.343,3.525c.059.073.11.155.169.233-.269-.187-1.827-1.1-1.927-1.146-1.461-.653-4.672-1.059-5.868.279a2.123,2.123,0,0,0,.425,3.128,4.437,4.437,0,0,0,3.722.279,15.1,15.1,0,0,0,3.685-2.484,37.2,37.2,0,0,1,2.649,4.06c.594,1.041,1.151,2.119,1.7,3.2-.352-.233-1.786-1.078-1.9-1.128-1.461-.653-4.672-1.055-5.873.279a2.119,2.119,0,0,0,.429,3.128,4.436,4.436,0,0,0,3.722.283,14.636,14.636,0,0,0,3.653-2.471c.251.493.5.986.749,1.48.8,1.626,1.6,3.251,2.439,4.836.288.548.594,1.082.913,1.612-.543-.333-1.539-.913-1.63-.959-1.461-.653-4.672-1.055-5.868.279a2.123,2.123,0,0,0,.425,3.128,4.437,4.437,0,0,0,3.722.283,13.947,13.947,0,0,0,3.553-2.375c.511.881,1.037,1.749,1.6,2.571.251.352.484.726.74,1.05l.753.982c.539.653,1.037,1.265,1.553,1.859l.763.872c-.5-.42-1.3-1.069-1.37-1.119-1.37-.868-4.457-1.754-5.845-.616a2.123,2.123,0,0,0-.055,3.16,4.479,4.479,0,0,0,3.653.84,14.625,14.625,0,0,0,3.978-1.877c.626.708,1.247,1.37,1.827,2.023,1.863,2,3.493,3.589,4.649,4.685s1.827,1.708,1.827,1.708h0a.63.63,0,0,0,.808-.964S77.686,361.507,76.517,360.443Z" transform="translate(-35.247 -268.654)" fill="#14a2cc"/>
      <path id="Path_295" data-name="Path 295" d="M63.129,324.482a15.25,15.25,0,0,0,2.192-3.891,4.438,4.438,0,0,0-.58-3.69,2.128,2.128,0,0,0-3.156-.169c-1.233,1.3-.571,4.471.2,5.873C61.86,322.728,63.106,324.5,63.129,324.482Z" transform="translate(-49.186 -267.678)" fill="#14a2cc"/>
      <g id="Group_19" data-name="Group 19" transform="translate(0 33.65)" opacity="0.1">
        <path id="Path_296" data-name="Path 296" d="M114.547,341.231c-.388-1.53-.913-3.722-1.416-6.393-.146-.763-.292-1.58-.429-2.416a14.567,14.567,0,0,0,4.11-1.548,4.452,4.452,0,0,0,1.932-3.2,2.119,2.119,0,0,0-2.283-2.16c-1.786.2-3.315,3.05-3.653,4.621,0,.1-.128,1.315-.164,1.936-.087-.507-.169-1.009-.247-1.539-.114-.758-.215-1.566-.315-2.347l-.11-1.233c-.05-.42-.041-.827-.064-1.242v-1.877a13.5,13.5,0,0,0,4.083-.891,4.478,4.478,0,0,0,2.388-2.863,2.119,2.119,0,0,0-1.95-2.484c-1.79-.073-3.735,2.512-4.288,4.019,0,.046-.1.374-.192.767,0-.616.05-1.228.1-1.854.137-1.772.329-3.566.516-5.37.037-.379.069-.754.11-1.128a13.778,13.778,0,0,0,4.2-.913,4.451,4.451,0,0,0,2.393-2.868,2.123,2.123,0,0,0-1.95-2.484c-1.79-.069-3.74,2.516-4.288,4.019,0,.055-.119.457-.224.891.087-.982.16-1.959.205-2.932a37.3,37.3,0,0,0-.082-5.023,14.2,14.2,0,0,0,4.329-.913,4.429,4.429,0,0,0,2.388-2.868,2.119,2.119,0,0,0-1.95-2.484c-1.79-.069-3.735,2.516-4.288,4.019-.037.105-.384,1.534-.489,2.05v-.059a27.54,27.54,0,0,0-.959-4.827,38.3,38.3,0,0,0-1.466-4.146c-.511-1.26-1.059-2.384-1.553-3.375-.269-.534-.525-1.014-.772-1.466h.037c.032,0-.146-2.16-.174-2.283-.315-1.571-1.827-4.42-3.653-4.626a2.119,2.119,0,0,0-2.283,2.16,4.491,4.491,0,0,0,1.927,3.2,14.935,14.935,0,0,0,4.037,1.534c.247.457.5.977.776,1.539.457,1,.986,2.128,1.47,3.4.132.338.256.7.384,1.059-.338-.553-.817-1.306-.872-1.37-1-1.247-3.653-3.069-5.347-2.429a2.123,2.123,0,0,0-1.05,2.977,4.434,4.434,0,0,0,3.2,1.95,14.589,14.589,0,0,0,4.311-.507c.274.79.534,1.607.758,2.475a26.88,26.88,0,0,1,.845,4.786v.283c-.119-.3-.913-1.913-.968-2.018-.859-1.37-3.315-3.457-5.051-3a2.119,2.119,0,0,0-1.37,2.845,4.5,4.5,0,0,0,2.95,2.283,15.034,15.034,0,0,0,4.443-.041,38.209,38.209,0,0,1-.032,4.845c-.082,1.2-.21,2.4-.352,3.612-.164-.388-.913-1.886-.959-1.986-.859-1.37-3.315-3.457-5.051-3a2.119,2.119,0,0,0-1.37,2.845,4.512,4.512,0,0,0,2.95,2.283,14.62,14.62,0,0,0,4.42-.041c-.068.548-.128,1.1-.2,1.649-.224,1.795-.457,3.6-.635,5.379-.059.617-.1,1.228-.137,1.827-.269-.575-.776-1.617-.831-1.7-.859-1.37-3.311-3.457-5.023-3a2.123,2.123,0,0,0-1.37,2.845,4.512,4.512,0,0,0,2.95,2.283,13.934,13.934,0,0,0,4.27-.023c-.059,1.018-.1,2.032-.082,3.028,0,.434,0,.872.041,1.283l.082,1.238c.091.84.169,1.621.269,2.407.05.393.105.763.16,1.146-.187-.621-.493-1.607-.53-1.694-.648-1.466-2.74-3.918-4.539-3.735a2.123,2.123,0,0,0-1.786,2.6,4.422,4.422,0,0,0,2.571,2.708,14.547,14.547,0,0,0,4.352.63c.132.941.269,1.849.416,2.7.457,2.69.913,4.918,1.288,6.471s.6,2.439.6,2.439h0a.63.63,0,0,0,1.206-.356S114.935,342.766,114.547,341.231Z" transform="translate(-71.565 -283.736)"/>
        <path id="Path_297" data-name="Path 297" d="M121.615,303.97a15.139,15.139,0,0,0,3.973-2.032,4.454,4.454,0,0,0,1.553-3.4,2.123,2.123,0,0,0-2.539-1.881c-1.744.406-2.941,3.411-3.073,5.023C121.514,301.815,121.583,303.984,121.615,303.97Z" transform="translate(-82.126 -290.734)"/>
        <path id="Path_298" data-name="Path 298" d="M76.517,360.443c-1.164-1.059-2.808-2.6-4.7-4.539-.543-.557-1.114-1.155-1.69-1.776a14.736,14.736,0,0,0,2.576-3.562,4.437,4.437,0,0,0-.155-3.731,2.119,2.119,0,0,0-3.11-.53c-1.37,1.151-1.082,4.375-.479,5.854.037.1.621,1.169.913,1.708-.352-.374-.7-.749-1.055-1.151-.516-.566-1.041-1.187-1.557-1.781l-.776-.968c-.269-.324-.484-.667-.735-1-.356-.5-.7-1.032-1.041-1.566a13.513,13.513,0,0,0,2.918-2.991,4.467,4.467,0,0,0,.411-3.708,2.119,2.119,0,0,0-3-1c-1.534.913-1.731,4.156-1.37,5.713,0,.055.128.374.265.753-.32-.53-.639-1.055-.945-1.6-.863-1.553-1.694-3.156-2.534-4.763-.174-.333-.352-.667-.53-1a14.154,14.154,0,0,0,3.009-3.069,4.4,4.4,0,0,0,.411-3.708,2.119,2.119,0,0,0-3-1c-1.534.913-1.731,4.156-1.37,5.713a8.64,8.64,0,0,0,.306.868c-.457-.868-.95-1.722-1.448-2.562A38.085,38.085,0,0,0,55,330.92a14.781,14.781,0,0,0,3.11-3.146,4.413,4.413,0,0,0,.411-3.708,2.119,2.119,0,0,0-3-1c-1.534.913-1.731,4.16-1.37,5.717.027.11.53,1.493.722,1.982l-.032-.05a28.186,28.186,0,0,0-3.466-3.493,38.327,38.327,0,0,0-3.461-2.653c-1.123-.767-2.2-1.4-3.156-1.954-.521-.3-1-.557-1.452-.795h.032c.032,0-1.315-1.722-1.416-1.827-1.128-1.137-3.973-2.667-5.571-1.854a2.119,2.119,0,0,0-.735,3.069A4.432,4.432,0,0,0,39,322.814a14.479,14.479,0,0,0,4.21-.95c.457.256.959.534,1.5.859.941.571,2,1.228,3.1,2.018.3.21.6.457.913.671-.585-.274-1.4-.635-1.484-.662-1.525-.489-4.758-.539-5.8.913a2.128,2.128,0,0,0,.767,3.064,4.447,4.447,0,0,0,3.731-.132,14.992,14.992,0,0,0,3.32-2.8c.662.507,1.329,1.046,2,1.644a27.151,27.151,0,0,1,3.343,3.525c.059.073.11.155.169.233-.269-.187-1.827-1.1-1.927-1.146-1.461-.653-4.672-1.059-5.868.279a2.123,2.123,0,0,0,.425,3.128,4.437,4.437,0,0,0,3.722.279,15.1,15.1,0,0,0,3.685-2.484,37.2,37.2,0,0,1,2.649,4.06c.594,1.041,1.151,2.119,1.7,3.2-.352-.233-1.786-1.078-1.9-1.128-1.461-.653-4.672-1.055-5.873.279a2.119,2.119,0,0,0,.429,3.128,4.436,4.436,0,0,0,3.722.283,14.636,14.636,0,0,0,3.653-2.471c.251.493.5.986.749,1.48.8,1.626,1.6,3.251,2.439,4.836.288.548.594,1.082.913,1.612-.543-.333-1.539-.913-1.63-.959-1.461-.653-4.672-1.055-5.868.279a2.123,2.123,0,0,0,.425,3.128,4.437,4.437,0,0,0,3.722.283,13.947,13.947,0,0,0,3.553-2.375c.511.881,1.037,1.749,1.6,2.571.251.352.484.726.74,1.05l.753.982c.539.653,1.037,1.265,1.553,1.859l.763.872c-.5-.42-1.3-1.069-1.37-1.119-1.37-.868-4.457-1.754-5.845-.616a2.123,2.123,0,0,0-.055,3.16,4.479,4.479,0,0,0,3.653.84,14.625,14.625,0,0,0,3.978-1.877c.626.708,1.247,1.37,1.827,2.023,1.863,2,3.493,3.589,4.649,4.685s1.827,1.708,1.827,1.708h0a.63.63,0,0,0,.808-.964S77.686,361.507,76.517,360.443Z" transform="translate(-35.247 -302.304)"/>
        <path id="Path_299" data-name="Path 299" d="M63.129,324.482a15.25,15.25,0,0,0,2.192-3.891,4.438,4.438,0,0,0-.58-3.69,2.128,2.128,0,0,0-3.156-.169c-1.233,1.3-.571,4.471.2,5.873C61.86,322.728,63.106,324.5,63.129,324.482Z" transform="translate(-49.186 -301.327)"/>
      </g>
      <g id="Group_20" data-name="Group 20" transform="translate(44.654)" opacity="0.1">
        <path id="Path_300" data-name="Path 300" d="M143.009,267.881c-.32-1.544-.744-3.758-1.133-6.434-.114-.772-.224-1.589-.324-2.434a14.317,14.317,0,0,0,4.178-1.37,4.4,4.4,0,0,0,2.069-3.105,2.119,2.119,0,0,0-2.206-2.283c-1.79.123-3.443,2.9-3.831,4.457-.023.1-.183,1.306-.251,1.927-.059-.511-.119-1.018-.174-1.548-.082-.767-.146-1.575-.21-2.361,0-.411-.041-.822-.059-1.238s0-.822,0-1.242c0-.612.046-1.247.078-1.877a13.336,13.336,0,0,0,4.11-.708,4.535,4.535,0,0,0,2.516-2.74,2.128,2.128,0,0,0-1.827-2.571c-1.786-.146-3.845,2.347-4.457,3.827-.023.046-.119.374-.233.763.055-.616.105-1.233.183-1.854.21-1.758.484-3.548.749-5.343.055-.374.105-.744.16-1.119a14.13,14.13,0,0,0,4.233-.712,4.451,4.451,0,0,0,2.516-2.74,2.123,2.123,0,0,0-1.827-2.571c-1.79-.146-3.845,2.347-4.462,3.827,0,.05-.137.457-.265.877.132-.973.247-1.95.333-2.918a37.077,37.077,0,0,0,.142-5.023,14.506,14.506,0,0,0,4.361-.717,4.442,4.442,0,0,0,2.516-2.74,2.119,2.119,0,0,0-1.827-2.566c-1.79-.151-3.845,2.347-4.462,3.822-.046.105-.457,1.521-.58,2.028a.259.259,0,0,1,0-.059,27.857,27.857,0,0,0-.749-4.863A38.069,38.069,0,0,0,141,222.06c-.457-1.279-.954-2.425-1.4-3.434-.247-.548-.484-1.041-.708-1.5h.037c.032,0-.055-2.169-.073-2.283-.247-1.58-1.649-4.494-3.42-4.777a2.119,2.119,0,0,0-2.4,2.055,4.44,4.44,0,0,0,1.781,3.279,14.342,14.342,0,0,0,3.968,1.708c.224.484.457,1,.708,1.575.425,1.018.913,2.169,1.32,3.457.114.342.224.717.338,1.073-.315-.566-.758-1.338-.813-1.407-.945-1.292-3.535-3.233-5.233-2.667a2.119,2.119,0,0,0-1.183,2.927,4.4,4.4,0,0,0,3.1,2.087,15.138,15.138,0,0,0,4.329-.311c.237.8.457,1.626.648,2.5a27.269,27.269,0,0,1,.612,4.79v.288c-.11-.311-.822-1.95-.881-2.06-.8-1.37-3.16-3.6-4.914-3.229a2.123,2.123,0,0,0-1.5,2.786,4.447,4.447,0,0,0,2.85,2.411,14.958,14.958,0,0,0,4.439.155,37.108,37.108,0,0,1-.242,4.841c-.132,1.192-.315,2.393-.511,3.594-.151-.4-.808-1.923-.872-2.028-.795-1.37-3.156-3.6-4.909-3.224a2.123,2.123,0,0,0-1.5,2.781,4.443,4.443,0,0,0,2.85,2.416,14.314,14.314,0,0,0,4.416.155c-.091.543-.178,1.091-.269,1.639-.306,1.781-.617,3.571-.868,5.343-.091.616-.155,1.224-.219,1.827-.242-.589-.7-1.648-.753-1.735-.8-1.37-3.16-3.6-4.914-3.224a2.123,2.123,0,0,0-1.5,2.781,4.442,4.442,0,0,0,2.85,2.416,13.979,13.979,0,0,0,4.265.169c-.105,1.014-.183,2.023-.215,3.019,0,.429-.041.872,0,1.283s0,.831.027,1.238c.055.845.1,1.63.164,2.416.032.4.068.772.105,1.155-.155-.63-.42-1.63-.457-1.717-.58-1.493-2.576-4.037-4.37-3.932a2.128,2.128,0,0,0-1.9,2.525,4.387,4.387,0,0,0,2.448,2.818,14.748,14.748,0,0,0,4.32.822c.091.941.192,1.859.3,2.713.338,2.713.717,4.955,1,6.526s.493,2.461.493,2.461h0a.63.63,0,1,0,1.219-.3S143.328,269.429,143.009,267.881Z" transform="translate(-133.031 -210.05)"/>
        <path id="Path_301" data-name="Path 301" d="M151.5,230.963a14.956,14.956,0,0,0,4.06-1.859,4.266,4.266,0,0,0,1.694-3.324,2.119,2.119,0,0,0-2.448-1.991c-1.763.329-3.092,3.279-3.293,4.868C151.5,228.794,151.471,230.972,151.5,230.963Z" transform="translate(-143.059 -217.501)"/>
      </g>
      <path id="Path_302" data-name="Path 302" d="M366.37,330.757c.059,14.307,11.444,25.861,11.444,25.861s11.289-11.649,11.225-25.957S377.617,304.8,377.617,304.8,366.306,316.449,366.37,330.757Z" transform="translate(-215.159 -261.531)" fill="#14a2cc"/>
      <line id="Line_64" data-name="Line 64" x1="0.219" y1="51.817" transform="translate(162.436 43.269)" fill="#14a2cc" stroke="#fff" stroke-miterlimit="10" stroke-width="0.91"/>
      <line id="Line_65" data-name="Line 65" x1="6.37" y1="5.512" transform="translate(156.143 56.174)" fill="#14a2cc" stroke="#fff" stroke-miterlimit="10" stroke-width="0.91"/>
      <line id="Line_66" data-name="Line 66" y1="11.417" x2="7.809" transform="translate(162.65 58.832)" fill="#14a2cc" stroke="#fff" stroke-miterlimit="10" stroke-width="0.91"/>
      <line id="Line_67" data-name="Line 67" x1="9.407" y1="8.32" transform="translate(153.165 66.864)" fill="#14a2cc" stroke="#fff" stroke-miterlimit="10" stroke-width="0.91"/>
      <line id="Line_68" data-name="Line 68" y1="8.302" x2="9.234" transform="translate(162.701 73.532)" fill="#14a2cc" stroke="#fff" stroke-miterlimit="10" stroke-width="0.91"/>
      <line id="Line_69" data-name="Line 69" x1="7.275" y1="5.708" transform="translate(155.449 81.866)" fill="#14a2cc" stroke="#fff" stroke-miterlimit="10" stroke-width="0.91"/>
      <path id="Path_303" data-name="Path 303" d="M343.265,391.51c5.53,6.2,14.9,6.85,14.9,6.85s.416-9.394-5.115-15.577-14.915-6.813-14.915-6.813S337.735,385.345,343.265,391.51Z" transform="translate(-199.813 -300.201)" fill="#14a2cc"/>
      <line id="Line_70" data-name="Line 70" x1="20.029" y1="22.39" transform="translate(138.338 75.751)" fill="#14a2cc" stroke="#fff" stroke-miterlimit="10" stroke-width="0.91"/>
      <line id="Line_71" data-name="Line 71" x1="4.886" y2="0.059" transform="translate(140.571 83.706)" fill="#14a2cc" stroke="#fff" stroke-miterlimit="10" stroke-width="0.91"/>
      <line id="Line_72" data-name="Line 72" x1="1.005" y1="7.955" transform="translate(147.804 79.413)" fill="#14a2cc" stroke="#fff" stroke-miterlimit="10" stroke-width="0.91"/>
      <line id="Line_73" data-name="Line 73" x1="7.279" y2="0.009" transform="translate(143.393 89.542)" fill="#14a2cc" stroke="#fff" stroke-miterlimit="10" stroke-width="0.91"/>
      <line id="Line_74" data-name="Line 74" y1="7.151" x2="0.813" transform="translate(153.289 85.222)" fill="#14a2cc" stroke="#fff" stroke-miterlimit="10" stroke-width="0.91"/>
      <line id="Line_75" data-name="Line 75" x1="5.352" y2="0.32" transform="translate(150.156 94.858)" fill="#14a2cc" stroke="#fff" stroke-miterlimit="10" stroke-width="0.91"/>
      <path id="Path_304" data-name="Path 304" d="M405.781,382.735c-5.754,5.978-5.681,15.38-5.681,15.38s9.4-.288,15.152-6.265,5.681-15.38,5.681-15.38S411.535,376.758,405.781,382.735Z" transform="translate(-233.486 -300.472)" fill="#14a2cc"/>
      <line id="Line_76" data-name="Line 76" y1="21.646" x2="20.833" transform="translate(166.614 75.998)" fill="#14a2cc" stroke="#fff" stroke-miterlimit="10" stroke-width="0.91"/>
      <line id="Line_77" data-name="Line 77" x1="0.425" y1="4.868" transform="translate(179.62 78.824)" fill="#14a2cc" stroke="#fff" stroke-miterlimit="10" stroke-width="0.91"/>
      <line id="Line_78" data-name="Line 78" y1="1.594" x2="7.859" transform="translate(176.642 85.715)" fill="#14a2cc" stroke="#fff" stroke-miterlimit="10" stroke-width="0.91"/>
      <line id="Line_79" data-name="Line 79" x1="0.553" y1="7.261" transform="translate(174.062 82.071)" fill="#14a2cc" stroke="#fff" stroke-miterlimit="10" stroke-width="0.91"/>
      <line id="Line_80" data-name="Line 80" x2="7.192" y2="0.274" transform="translate(171.984 92.15)" fill="#14a2cc" stroke="#fff" stroke-miterlimit="10" stroke-width="0.91"/>
      <line id="Line_81" data-name="Line 81" x1="0.722" y1="5.316" transform="translate(168.952 89.232)" fill="#14a2cc" stroke="#fff" stroke-miterlimit="10" stroke-width="0.91"/>
      <g id="Group_21" data-name="Group 21" transform="translate(138.313 43.269)" opacity="0.1">
        <path id="Path_305" data-name="Path 305" d="M366.37,330.757c.059,14.307,11.444,25.861,11.444,25.861s11.289-11.649,11.225-25.957S377.617,304.8,377.617,304.8,366.306,316.449,366.37,330.757Z" transform="translate(-353.472 -304.8)"/>
        <line id="Line_82" data-name="Line 82" x1="0.219" y1="51.817" transform="translate(24.123)"/>
        <line id="Line_83" data-name="Line 83" x1="6.37" y1="5.512" transform="translate(17.83 12.905)"/>
        <line id="Line_84" data-name="Line 84" y1="11.417" x2="7.809" transform="translate(24.337 15.563)"/>
        <line id="Line_85" data-name="Line 85" x1="9.407" y1="8.32" transform="translate(14.852 23.596)"/>
        <line id="Line_86" data-name="Line 86" y1="8.302" x2="9.234" transform="translate(24.387 30.263)"/>
        <line id="Line_87" data-name="Line 87" x1="7.275" y1="5.708" transform="translate(17.136 38.597)"/>
        <path id="Path_306" data-name="Path 306" d="M343.265,391.51c5.53,6.2,14.9,6.85,14.9,6.85s.416-9.394-5.115-15.577-14.915-6.813-14.915-6.813S337.735,385.345,343.265,391.51Z" transform="translate(-338.126 -343.469)"/>
        <line id="Line_88" data-name="Line 88" x1="20.029" y1="22.39" transform="translate(0.025 32.482)"/>
        <line id="Line_89" data-name="Line 89" x1="4.886" y2="0.059" transform="translate(2.258 40.437)"/>
        <line id="Line_90" data-name="Line 90" x1="1.005" y1="7.955" transform="translate(9.491 36.145)"/>
        <line id="Line_91" data-name="Line 91" x1="7.279" y2="0.009" transform="translate(5.08 46.273)"/>
        <line id="Line_92" data-name="Line 92" y1="7.151" x2="0.813" transform="translate(14.976 41.953)"/>
        <line id="Line_93" data-name="Line 93" x1="5.352" y2="0.32" transform="translate(11.843 51.589)"/>
        <path id="Path_307" data-name="Path 307" d="M405.781,382.735c-5.754,5.978-5.681,15.38-5.681,15.38s9.4-.288,15.152-6.265,5.681-15.38,5.681-15.38S411.535,376.758,405.781,382.735Z" transform="translate(-371.799 -343.741)"/>
        <line id="Line_94" data-name="Line 94" y1="21.646" x2="20.833" transform="translate(28.301 32.729)"/>
        <line id="Line_95" data-name="Line 95" x1="0.425" y1="4.868" transform="translate(41.307 35.556)"/>
        <line id="Line_96" data-name="Line 96" y1="1.594" x2="7.859" transform="translate(38.329 42.447)"/>
        <line id="Line_97" data-name="Line 97" x1="0.553" y1="7.261" transform="translate(35.749 38.802)"/>
        <line id="Line_98" data-name="Line 98" x2="7.192" y2="0.274" transform="translate(33.671 48.881)"/>
        <line id="Line_99" data-name="Line 99" x1="0.722" y1="5.316" transform="translate(30.639 45.963)"/>
      </g>
    </g>
    <g id="freepik--Resume--inject-93" transform="translate(77.051 81.117)">
      <rect id="Rectangle_34" data-name="Rectangle 34" width="112.649" height="144.994" transform="translate(0 0)" fill="#fff" stroke="#263238" stroke-linecap="round" stroke-linejoin="round" stroke-width="0.987"/>
      <rect id="Rectangle_35" data-name="Rectangle 35" width="17.97" height="144.994" transform="translate(0 0)" fill="#14a2cc"/>
      <rect id="Rectangle_36" data-name="Rectangle 36" width="34.546" height="4.064" transform="translate(53.073 21.422)" fill="#14a2cc" stroke="#263238" stroke-linecap="round" stroke-linejoin="round" stroke-width="0.987"/>
      <rect id="Rectangle_37" data-name="Rectangle 37" width="94.698" height="4.064" transform="translate(14.175 56.051)" fill="#14a2cc"/>
      <rect id="Rectangle_38" data-name="Rectangle 38" width="94.698" height="4.064" transform="translate(14.175 111.909)" fill="#14a2cc"/>
      <rect id="Rectangle_39" data-name="Rectangle 39" width="21.774" height="4.064" transform="translate(53.073 28.423)" fill="#14a2cc" stroke="#263238" stroke-linecap="round" stroke-linejoin="round" stroke-width="0.987"/>
      <rect id="Rectangle_40" data-name="Rectangle 40" width="21.774" height="4.064" transform="translate(53.073 35.277)" fill="#14a2cc" stroke="#263238" stroke-linecap="round" stroke-linejoin="round" stroke-width="0.987"/>
      <rect id="Rectangle_41" data-name="Rectangle 41" width="2.242" height="2.242" transform="translate(47.835 64.59)" fill="#14a2cc" stroke="#263238" stroke-linecap="round" stroke-linejoin="round" stroke-width="0.987"/>
      <rect id="Rectangle_42" data-name="Rectangle 42" width="2.242" height="2.242" transform="translate(47.835 93.428)" fill="#14a2cc" stroke="#263238" stroke-linecap="round" stroke-linejoin="round" stroke-width="0.987"/>
      <rect id="Rectangle_43" data-name="Rectangle 43" width="2.242" height="2.242" transform="translate(79.477 64.59)" fill="#14a2cc" stroke="#263238" stroke-linecap="round" stroke-linejoin="round" stroke-width="0.987"/>
      <rect id="Rectangle_44" data-name="Rectangle 44" width="2.242" height="2.242" transform="translate(79.477 93.428)" fill="#14a2cc" stroke="#263238" stroke-linecap="round" stroke-linejoin="round" stroke-width="0.987"/>
      <rect id="Rectangle_45" data-name="Rectangle 45" width="112.649" height="7.375" transform="translate(0 0)" fill="#263238" stroke="#263238" stroke-linecap="round" stroke-linejoin="round" stroke-width="0.987"/>
      <path id="Path_308" data-name="Path 308" d="M263.478,249.109H243.649a.639.639,0,0,1-.639-.639h0a.639.639,0,0,1,.639-.639h19.828a.639.639,0,0,1,.639.639h0A.639.639,0,0,1,263.478,249.109Z" transform="translate(-189.937 -182.961)" fill="#263238"/>
      <path id="Path_309" data-name="Path 309" d="M263.478,256.113H243.649a.644.644,0,0,1-.639-.644h0a.639.639,0,0,1,.639-.639h19.828a.639.639,0,0,1,.639.639h0a.644.644,0,0,1-.639.644Z" transform="translate(-189.937 -186.765)" fill="#263238"/>
      <path id="Path_310" data-name="Path 310" d="M263.478,263.119H243.649a.639.639,0,0,1-.639-.639h0a.639.639,0,0,1,.639-.639h19.828a.639.639,0,0,1,.639.639h0A.639.639,0,0,1,263.478,263.119Z" transform="translate(-189.937 -190.574)" fill="#263238"/>
      <path id="Path_311" data-name="Path 311" d="M263.478,270.119H243.649a.639.639,0,0,1-.639-.639h0a.639.639,0,0,1,.639-.639h19.828a.639.639,0,0,1,.639.639h0A.639.639,0,0,1,263.478,270.119Z" transform="translate(-189.937 -194.377)" fill="#263238"/>
      <path id="Path_312" data-name="Path 312" d="M263.478,277.119H243.649a.639.639,0,0,1-.639-.639h0a.639.639,0,0,1,.639-.639h19.828a.639.639,0,0,1,.639.639h0A.639.639,0,0,1,263.478,277.119Z" transform="translate(-189.937 -198.18)" fill="#263238"/>
      <path id="Path_313" data-name="Path 313" d="M329.158,249.109H309.329a.639.639,0,0,1-.639-.639h0a.639.639,0,0,1,.639-.639h19.828a.639.639,0,0,1,.639.639h0A.639.639,0,0,1,329.158,249.109Z" transform="translate(-225.623 -182.961)" fill="#263238"/>
      <path id="Path_314" data-name="Path 314" d="M329.158,256.113H309.329a.644.644,0,0,1-.639-.644h0a.639.639,0,0,1,.639-.639h19.828a.639.639,0,0,1,.639.639h0a.644.644,0,0,1-.639.644Z" transform="translate(-225.623 -186.765)" fill="#263238"/>
      <path id="Path_315" data-name="Path 315" d="M329.158,263.119H309.329a.639.639,0,0,1-.639-.639h0a.639.639,0,0,1,.639-.639h19.828a.639.639,0,0,1,.639.639h0A.639.639,0,0,1,329.158,263.119Z" transform="translate(-225.623 -190.574)" fill="#263238"/>
      <path id="Path_316" data-name="Path 316" d="M329.158,270.119H309.329a.639.639,0,0,1-.639-.639h0a.639.639,0,0,1,.639-.639h19.828a.639.639,0,0,1,.639.639h0A.639.639,0,0,1,329.158,270.119Z" transform="translate(-225.623 -194.377)" fill="#263238"/>
      <path id="Path_317" data-name="Path 317" d="M329.158,277.119H309.329a.639.639,0,0,1-.639-.639h0a.639.639,0,0,1,.639-.639h19.828a.639.639,0,0,1,.639.639h0A.639.639,0,0,1,329.158,277.119Z" transform="translate(-225.623 -198.18)" fill="#263238"/>
      <path id="Path_318" data-name="Path 318" d="M263.478,311.2H243.649a.644.644,0,0,1-.639-.644h0a.639.639,0,0,1,.639-.639h19.828a.639.639,0,0,1,.639.639h0a.644.644,0,0,1-.639.644Z" transform="translate(-189.937 -216.697)" fill="#263238"/>
      <path id="Path_319" data-name="Path 319" d="M263.478,318.209H243.649a.639.639,0,0,1-.639-.639h0a.639.639,0,0,1,.639-.639h19.828a.639.639,0,0,1,.639.639h0A.639.639,0,0,1,263.478,318.209Z" transform="translate(-189.937 -220.506)" fill="#263238"/>
      <path id="Path_320" data-name="Path 320" d="M263.478,325.209H243.649a.639.639,0,0,1-.639-.639h0a.639.639,0,0,1,.639-.639h19.828a.639.639,0,0,1,.639.639h0A.639.639,0,0,1,263.478,325.209Z" transform="translate(-189.937 -224.31)" fill="#263238"/>
      <path id="Path_321" data-name="Path 321" d="M263.478,332.209H243.649a.639.639,0,0,1-.639-.639h0a.639.639,0,0,1,.639-.639h19.828a.639.639,0,0,1,.639.639h0A.639.639,0,0,1,263.478,332.209Z" transform="translate(-189.937 -228.113)" fill="#263238"/>
      <path id="Path_322" data-name="Path 322" d="M263.478,339.219H243.649a.639.639,0,0,1-.639-.639h0a.639.639,0,0,1,.639-.639h19.828a.639.639,0,0,1,.639.639h0A.639.639,0,0,1,263.478,339.219Z" transform="translate(-189.937 -231.922)" fill="#263238"/>
      <path id="Path_323" data-name="Path 323" d="M329.158,311.2H309.329a.644.644,0,0,1-.639-.644h0a.639.639,0,0,1,.639-.639h19.828a.639.639,0,0,1,.639.639h0a.644.644,0,0,1-.639.644Z" transform="translate(-225.623 -216.697)" fill="#263238"/>
      <path id="Path_324" data-name="Path 324" d="M329.158,318.209H309.329a.639.639,0,0,1-.639-.639h0a.639.639,0,0,1,.639-.639h19.828a.639.639,0,0,1,.639.639h0A.639.639,0,0,1,329.158,318.209Z" transform="translate(-225.623 -220.506)" fill="#263238"/>
      <path id="Path_325" data-name="Path 325" d="M329.158,325.209H309.329a.639.639,0,0,1-.639-.639h0a.639.639,0,0,1,.639-.639h19.828a.639.639,0,0,1,.639.639h0A.639.639,0,0,1,329.158,325.209Z" transform="translate(-225.623 -224.31)" fill="#263238"/>
      <path id="Path_326" data-name="Path 326" d="M329.158,332.209H309.329a.639.639,0,0,1-.639-.639h0a.639.639,0,0,1,.639-.639h19.828a.639.639,0,0,1,.639.639h0A.639.639,0,0,1,329.158,332.209Z" transform="translate(-225.623 -228.113)" fill="#263238"/>
      <path id="Path_327" data-name="Path 327" d="M329.158,339.219H309.329a.639.639,0,0,1-.639-.639h0a.639.639,0,0,1,.639-.639h19.828a.639.639,0,0,1,.639.639h0A.639.639,0,0,1,329.158,339.219Z" transform="translate(-225.623 -231.922)" fill="#263238"/>
      <path id="Path_328" data-name="Path 328" d="M329.158,371.179H309.329a.639.639,0,0,1-.639-.639h0a.639.639,0,0,1,.639-.639h19.828a.639.639,0,0,1,.639.639h0A.639.639,0,0,1,329.158,371.179Z" transform="translate(-225.623 -249.287)" fill="#263238"/>
      <path id="Path_329" data-name="Path 329" d="M329.158,378.179H309.329a.639.639,0,0,1-.639-.639h0a.639.639,0,0,1,.639-.639h19.828a.639.639,0,0,1,.639.639h0A.639.639,0,0,1,329.158,378.179Z" transform="translate(-225.623 -253.09)" fill="#263238"/>
      <path id="Path_330" data-name="Path 330" d="M329.158,385.189H309.329a.639.639,0,0,1-.639-.639h0a.639.639,0,0,1,.639-.639h19.828a.639.639,0,0,1,.639.639h0A.639.639,0,0,1,329.158,385.189Z" transform="translate(-225.623 -256.899)" fill="#263238"/>
      <rect id="Rectangle_46" data-name="Rectangle 46" width="21.107" height="1.279" rx="0.639" transform="translate(83.067 130.208)" fill="#263238"/>
      <path id="Path_331" data-name="Path 331" d="M329.158,399.189H309.329a.639.639,0,0,1-.639-.639h0a.639.639,0,0,1,.639-.639h19.828a.639.639,0,0,1,.639.639h0A.639.639,0,0,1,329.158,399.189Z" transform="translate(-225.623 -264.506)" fill="#263238"/>
      <path id="Path_332" data-name="Path 332" d="M288.477,291.25a2.557,2.557,0,0,0-2.521,2.133H282.9a2.557,2.557,0,0,0-5.023,0h-3.06a2.557,2.557,0,0,0-5.023,0h-3.1a2.553,2.553,0,0,0-5.023,0H258.6a2.553,2.553,0,0,0-5.023,0h-3.064a2.553,2.553,0,0,0-5.023,0h-3.064a2.557,2.557,0,1,0,0,.854h3.064a2.553,2.553,0,0,0,5.023,0h3.064a2.553,2.553,0,0,0,5.023,0h3.064a2.553,2.553,0,0,0,5.023,0h3.064a2.557,2.557,0,0,0,5.023,0h3.06a2.557,2.557,0,0,0,5.023,0h3.06a2.557,2.557,0,1,0,2.521-2.987Z" transform="translate(-186.861 -206.553)" fill="#263238"/>
      <path id="Path_333" data-name="Path 333" d="M213.555,370.42a4.306,4.306,0,1,0,3.047,1.263A4.311,4.311,0,0,0,213.555,370.42Zm0,6.457a2.151,2.151,0,1,1,2.146-2.146,2.151,2.151,0,0,1-2.146,2.146Z" transform="translate(-171.588 -249.569)" fill="#14a2cc" stroke="#263238" stroke-linecap="round" stroke-linejoin="round" stroke-width="0.987"/>
      <path id="Path_334" data-name="Path 334" d="M219.99,376.443l2.055,1a4.306,4.306,0,0,0-3.325-7.023v2.16a2.146,2.146,0,0,1,1.265,3.863Z" transform="translate(-176.739 -249.569)" fill="#263238" stroke="#263238" stroke-linecap="round" stroke-linejoin="round" stroke-width="0.987"/>
      <path id="Path_335" data-name="Path 335" d="M217.117,398.56h-4.11a1.023,1.023,0,0,1-1.028-1.023h0a1.028,1.028,0,0,1,1.028-1.027h4.11a1.028,1.028,0,0,1,1.027,1.027h0a1.023,1.023,0,0,1-1.027,1.023Z" transform="translate(-173.077 -263.745)" fill="#14a2cc" stroke="#263238" stroke-linecap="round" stroke-linejoin="round" stroke-width="0.987"/>
      <path id="Path_336" data-name="Path 336" d="M241.691,370.42a4.306,4.306,0,1,0,3.05,1.261A4.311,4.311,0,0,0,241.691,370.42Zm0,6.457a2.146,2.146,0,1,1,1.521-.627,2.151,2.151,0,0,1-1.521.627Z" transform="translate(-186.878 -249.569)" fill="#14a2cc" stroke="#263238" stroke-linecap="round" stroke-linejoin="round" stroke-width="0.987"/>
      <path id="Path_337" data-name="Path 337" d="M251.135,374.279a4.32,4.32,0,0,0-4.265-3.859v2.16A2.151,2.151,0,0,1,249,374.731a2.279,2.279,0,0,1-.027.247Z" transform="translate(-192.034 -249.569)" fill="#263238" stroke="#263238" stroke-linecap="round" stroke-linejoin="round" stroke-width="0.987"/>
      <path id="Path_338" data-name="Path 338" d="M245.207,398.56H241.1a1.023,1.023,0,0,1-1.027-1.023h0a1.027,1.027,0,0,1,1.027-1.027h4.11a1.027,1.027,0,0,1,1.027,1.027h0a1.023,1.023,0,0,1-1.027,1.023Z" transform="translate(-188.34 -263.745)" fill="#14a2cc" stroke="#263238" stroke-linecap="round" stroke-linejoin="round" stroke-width="0.987"/>
      <path id="Path_339" data-name="Path 339" d="M269.991,370.42a4.306,4.306,0,1,0,3.05,1.261A4.311,4.311,0,0,0,269.991,370.42Zm0,6.457a2.146,2.146,0,1,1,1.521-.627A2.151,2.151,0,0,1,269.991,376.877Z" transform="translate(-202.254 -249.569)" fill="#14a2cc" stroke="#263238" stroke-linecap="round" stroke-linejoin="round" stroke-width="0.987"/>
      <path id="Path_340" data-name="Path 340" d="M271.166,370.42v2.16a2.151,2.151,0,1,1-1.658,3.525l-1.708,1.333a4.306,4.306,0,1,0,3.366-7.019Z" transform="translate(-203.406 -249.569)" fill="#263238" stroke="#263238" stroke-linecap="round" stroke-linejoin="round" stroke-width="0.987"/>
      <path id="Path_341" data-name="Path 341" d="M273.507,398.56H269.4a1.023,1.023,0,0,1-1.027-1.023h0a1.023,1.023,0,0,1,1.027-1.028h4.11a1.028,1.028,0,0,1,1.028,1.027h0a1.023,1.023,0,0,1-1.028,1.023Z" transform="translate(-203.716 -263.745)" fill="#14a2cc" stroke="#263238" stroke-linecap="round" stroke-linejoin="round" stroke-width="0.987"/>
    </g>
    <g id="freepik--Character--inject-93" transform="translate(75.322 96.945)">
      <circle id="Ellipse_14" data-name="Ellipse 14" cx="19.289" cy="19.289" r="19.289" transform="translate(5.917)" fill="#fff"/>
      <path id="Path_342" data-name="Path 342" d="M184.779,416.439s2.786,4.188,2.4,5.845-2.831,1.146-3.991-.639-4.11-4.452-3.576-5.6S183.737,415.421,184.779,416.439Z" transform="translate(-153.727 -289.835)" fill="#fff" stroke="#263238" stroke-linecap="round" stroke-linejoin="round" stroke-width="1.023"/>
      <path id="Path_343" data-name="Path 343" d="M161.357,416.719s-3.366,5-2.827,6.361,2.283.959,3.617-.274a55.806,55.806,0,0,0,4-4.694S163.905,415.353,161.357,416.719Z" transform="translate(-142.275 -290.347)" fill="#fff" stroke="#263238" stroke-linecap="round" stroke-linejoin="round" stroke-width="1.023"/>
      <path id="Path_344" data-name="Path 344" d="M158.6,425.395a4.151,4.151,0,0,0,2.639-.516c1.534-.776,4.21-4.279,4.21-4.279" transform="translate(-142.345 -292.662)" fill="none" stroke="#263238" stroke-linecap="round" stroke-linejoin="round" stroke-width="0.767"/>
      <path id="Path_345" data-name="Path 345" d="M181.74,418.65a20.068,20.068,0,0,0,3.1,4.293c1.639,1.553,2.443,2,3.521,1.11" transform="translate(-154.918 -291.602)" fill="none" stroke="#263238" stroke-linecap="round" stroke-linejoin="round" stroke-width="0.767"/>
      <path id="Path_346" data-name="Path 346" d="M151.088,280.65s-2.945,6.01-2.813,8.467S148.946,304,149.75,308.1s1.594,14.3,2.142,18.376,4.06,13.631,4.06,13.631-.539,2.187-.137,2.868,4.653,1.8,4.786,1.393a10.831,10.831,0,0,0,.913-2.868c.11-1.228-1.872-14.339-1.069-17.207s.959-22.148,1.069-24.135-.032-5.48-.032-5.48a1.256,1.256,0,0,0,1.343-.406c.534-.685,2.306,17.878,2.845,22.249s-.671,5.6-1.073,8.329-1.338,11.6-1.338,12.7-1.206,4.64-.671,5.325,1.671.571,2.137.7a4.9,4.9,0,0,0,3.023-.356c.534-.137.986-2.114.986-2.114s4.3-12.156,5.105-17.212,2.142-14.435,1.877-20.171-1.877-17.353-1.877-17.353l-.4-3.416Z" transform="translate(-136.732 -216.622)" fill="#263238" stroke="#263238" stroke-linecap="round" stroke-linejoin="round" stroke-width="1.023"/>
      <path id="Path_347" data-name="Path 347" d="M150.309,295.87a7.794,7.794,0,0,0,1.945,5.571" transform="translate(-137.835 -224.891)" fill="none" stroke="#fff" stroke-linecap="round" stroke-linejoin="round" stroke-width="0.507"/>
      <path id="Path_348" data-name="Path 348" d="M150.6,306.37s1.3,2.206,2.854,2.461" transform="translate(-137.998 -230.596)" fill="none" stroke="#fff" stroke-linecap="round" stroke-linejoin="round" stroke-width="0.507"/>
      <path id="Path_349" data-name="Path 349" d="M170.811,387.13a33.537,33.537,0,0,0-2.073,6.736c-.247,2.379,2.073,1.452,2.594,3.037s-3.11,1.457-2.461,1.849a10.427,10.427,0,0,0,2.589.662" transform="translate(-147.843 -274.476)" fill="none" stroke="#fff" stroke-linecap="round" stroke-linejoin="round" stroke-width="0.512"/>
      <path id="Path_350" data-name="Path 350" d="M181,373.686c.388-.132,4.795-.913,4.274-3.3s-3.11-2.512-2.74-5.284,4.4-8.855,4.4-10.572-2.85-8.115-3.11-12.079" transform="translate(-154.515 -250.2)" fill="none" stroke="#fff" stroke-linecap="round" stroke-linejoin="round" stroke-width="0.512"/>
      <path id="Path_351" data-name="Path 351" d="M190.828,295.31s-2.982,4.274-3.37,4.923,3.5-2.85,3.5-2.85" transform="translate(-158.009 -224.587)" fill="none" stroke="#fff" stroke-linecap="round" stroke-linejoin="round" stroke-width="0.507"/>
      <path id="Path_352" data-name="Path 352" d="M177.79,292s.324,3.124.324,3.767v3.557" transform="translate(-152.771 -222.789)" fill="none" stroke="#fff" stroke-linecap="round" stroke-linejoin="round" stroke-width="0.507"/>
      <path id="Path_353" data-name="Path 353" d="M178.5,298.416s1.4-.215,1.722-1.292a13.363,13.363,0,0,0,.219-3.233" transform="translate(-153.157 -223.815)" fill="none" stroke="#fff" stroke-linecap="round" stroke-linejoin="round" stroke-width="0.507"/>
      <path id="Path_354" data-name="Path 354" d="M175.4,199.457a35.029,35.029,0,0,1-2.009-8.572c-.132-1.338-1.607-.941-1.607-.941s-3.2,1.877-3.2,2.283,1.475,10.316,1.74,12.056a22.376,22.376,0,0,1,.269,3.082s-5.626-6.028-7.1-7.5a17.708,17.708,0,0,0-2.968-2.667,9.24,9.24,0,0,0-2.79-1.082c-2.411-.8-4.955-2.681-7.9-2.548a17.536,17.536,0,0,0-5.626,1.343s-4.283,2.009-7.234,3.347a5.262,5.262,0,0,0-.973.566c-.484-.059-1.493.2-2.644,2.781-1.6,3.617-8.836,13.129-10.047,16.476s1.338,6.7,4.151,9.375a80.426,80.426,0,0,1,5.758,6.3l3.2-3.936a18.572,18.572,0,0,0,.457,2.6c.4,1.338,1.74,2.813,7.1,3.2s17.4,1.123,17.011-1.607c-.553-3.882-.269-16.344-.534-19.691a56.457,56.457,0,0,1,.132-6.439,16.145,16.145,0,0,0,2.671,2.8c1.206.8,6.3,4.567,8.311,5.379s4.822-.534,6.028-3.2S177.011,204.147,175.4,199.457Zm-43.666,22.235c-.539-2.142-.8-2.945-.8-2.945s3.434-3.7,5.087-5.672c.224,5.293.365,11.083.21,11.933a19.87,19.87,0,0,0,.1,4.274C135.432,228.053,132.195,223.536,131.738,221.691Z" transform="translate(-123.004 -167.308)" fill="#14a2cc" stroke="#263238" stroke-linecap="round" stroke-linejoin="round" stroke-width="1.013"/>
      <path id="Path_355" data-name="Path 355" d="M175.4,199.457a35.029,35.029,0,0,1-2.009-8.572c-.132-1.338-1.607-.941-1.607-.941s-3.2,1.877-3.2,2.283,1.475,10.316,1.74,12.056a22.376,22.376,0,0,1,.269,3.082s-5.626-6.028-7.1-7.5a17.708,17.708,0,0,0-2.968-2.667,9.24,9.24,0,0,0-2.79-1.082c-2.411-.8-4.955-2.681-7.9-2.548a17.536,17.536,0,0,0-5.626,1.343s-4.283,2.009-7.234,3.347a5.262,5.262,0,0,0-.973.566c-.484-.059-1.493.2-2.644,2.781-1.6,3.617-8.836,13.129-10.047,16.476s1.338,6.7,4.151,9.375a80.426,80.426,0,0,1,5.758,6.3l3.2-3.936a18.572,18.572,0,0,0,.457,2.6c.4,1.338,1.74,2.813,7.1,3.2s17.4,1.123,17.011-1.607c-.553-3.882-.269-16.344-.534-19.691a56.457,56.457,0,0,1,.132-6.439,16.145,16.145,0,0,0,2.671,2.8c1.206.8,6.3,4.567,8.311,5.379s4.822-.534,6.028-3.2S177.011,204.147,175.4,199.457Zm-43.666,22.235c-.539-2.142-.8-2.945-.8-2.945s3.434-3.7,5.087-5.672c.224,5.293.365,11.083.21,11.933a19.87,19.87,0,0,0,.1,4.274C135.432,228.053,132.195,223.536,131.738,221.691Z" transform="translate(-123.004 -167.308)" opacity="0.1"/>
      <path id="Path_356" data-name="Path 356" d="M155.14,234.624a26.9,26.9,0,0,0,2.206-4.014" transform="translate(-140.465 -189.433)" fill="none" stroke="#263238" stroke-linecap="round" stroke-linejoin="round" stroke-width="0.76"/>
      <path id="Path_357" data-name="Path 357" d="M160.977,231.46a5.137,5.137,0,0,1-1.3,1.685" transform="translate(-142.931 -189.895)" fill="none" stroke="#263238" stroke-linecap="round" stroke-linejoin="round" stroke-width="0.76"/>
      <path id="Path_358" data-name="Path 358" d="M227.19,228.15a5.845,5.845,0,0,0,1.827,4.11" transform="translate(-179.612 -188.096)" fill="none" stroke="#263238" stroke-linecap="round" stroke-linejoin="round" stroke-width="1.013"/>
      <path id="Path_359" data-name="Path 359" d="M228.322,232.88a5.9,5.9,0,0,0,.781,3.5" transform="translate(-180.215 -190.666)" fill="none" stroke="#263238" stroke-linecap="round" stroke-linejoin="round" stroke-width="1.013"/>
      <path id="Path_360" data-name="Path 360" d="M136.3,252.328s-.986-.936-3.42-.53" transform="translate(-128.37 -200.89)" fill="none" stroke="#263238" stroke-linecap="round" stroke-linejoin="round" stroke-width="0.76"/>
      <path id="Path_361" data-name="Path 361" d="M129.93,250.057s.676-1.082,3.238-.274" transform="translate(-126.767 -199.688)" fill="none" stroke="#263238" stroke-linecap="round" stroke-linejoin="round" stroke-width="0.76"/>
      <path id="Path_362" data-name="Path 362" d="M208.166,220.28c-.539.132-2.836,4.051-2.836,4.051l5.539-1.484" transform="translate(-167.735 -183.82)" fill="none" stroke="#263238" stroke-linecap="round" stroke-linejoin="round" stroke-width="0.76"/>
      <path id="Path_363" data-name="Path 363" d="M176.294,209.048a3.044,3.044,0,0,0,3.37.781,4,4,0,0,0,2.74-4.667C182.034,203.6,174.221,204.9,176.294,209.048Z" transform="translate(-151.769 -175.26)" fill="#fff" stroke="#263238" stroke-linecap="round" stroke-linejoin="round" stroke-width="1.013"/>
      <path id="Path_364" data-name="Path 364" d="M169.686,194.237s-1.566,1.041-1.772,1.982a14.282,14.282,0,0,0,.726,5c.416,1.041,1.776,3.439,1.776,3.439s4.69-2.708,5.023-2.918,3.653,1.667,4.379,1.37-1.772-6.672-2.918-8.024S171.353,192.982,169.686,194.237Z" transform="translate(-147.38 -169.322)" fill="#fff" stroke="#263238" stroke-linecap="round" stroke-linejoin="round" stroke-width="1.013"/>
      <path id="Path_365" data-name="Path 365" d="M170,187.46s.105,1.667.315,4.169a8.043,8.043,0,0,0,2.425,5.626c1.37,1.146,3.334,1.772,3.854,1.146a8.719,8.719,0,0,0,.913-4.795c-.233-1.566-.521-4.9-.521-4.9Z" transform="translate(-148.539 -165.988)" fill="#fff" stroke="#263238" stroke-linecap="round" stroke-linejoin="round" stroke-width="1.013"/>
      <path id="Path_366" data-name="Path 366" d="M177.307,191.657c-.155-1.457-.3-2.945-.3-2.945L170,187.46s.105,1.667.315,4.169a10.718,10.718,0,0,0,.79,3.366Z" transform="translate(-148.539 -165.988)" fill="#14a2cc" opacity="0.5"/>
      <path id="Path_367" data-name="Path 367" d="M162.709,181.095s-1.562-1.562-1.877-.21.941,3.443,2.713,2.918v-1.247Z" transform="translate(-143.531 -162.116)" fill="#fff" stroke="#263238" stroke-linecap="round" stroke-linejoin="round" stroke-width="1.013"/>
      <path id="Path_368" data-name="Path 368" d="M162.709,181.095s-1.562-1.562-1.877-.21.941,3.443,2.713,2.918v-1.247Z" transform="translate(-143.531 -162.116)" fill="#14a2cc" stroke="#263238" stroke-linecap="round" stroke-linejoin="round" stroke-width="1.013" opacity="0.5"/>
      <path id="Path_369" data-name="Path 369" d="M160.915,164.006s2.608,6.982,4.9,8.339,6.877,2.6,8.129-2.283-2.082-11.987-3.229-14.074-5.421-2.708-8.129-.626S159.262,159.416,160.915,164.006Z" transform="translate(-143.107 -147.849)" fill="#fff" stroke="#263238" stroke-linecap="round" stroke-linejoin="round" stroke-width="1.013"/>
      <path id="Path_370" data-name="Path 370" d="M163.813,158.084a8.927,8.927,0,0,1,3.525-.822l2.6-2.187a6.451,6.451,0,0,0-7.329.269c-2.713,2.087-3.338,4.064-1.671,8.654,0,0,2.608,6.982,4.9,8.339a9.375,9.375,0,0,0,2.612,1.046,36.772,36.772,0,0,1-3.343-4.845c-.822-1.763-1.174-5.4-2.233-7.517S162.169,158.906,163.813,158.084Z" transform="translate(-143.115 -147.841)" fill="#14a2cc" opacity="0.5"/>
      <path id="Path_371" data-name="Path 371" d="M179.8,171.25s1.041,1.877.626,2.283a1.082,1.082,0,0,1-1.041.21" transform="translate(-153.635 -157.18)" fill="none" stroke="#263238" stroke-linecap="round" stroke-linejoin="round" stroke-width="1.013"/>
      <path id="Path_372" data-name="Path 372" d="M169.79,169.081a1.642,1.642,0,0,1,1.772-1.251" transform="translate(-148.425 -155.322)" fill="none" stroke="#263238" stroke-linecap="round" stroke-linejoin="round" stroke-width="2.027"/>
      <path id="Path_373" data-name="Path 373" d="M171.85,172.566a1.114,1.114,0,0,0,1.562-.626" transform="translate(-149.544 -157.555)" fill="none" stroke="#263238" stroke-linecap="round" stroke-linejoin="round" stroke-width="1.013"/>
      <path id="Path_374" data-name="Path 374" d="M182.8,170.736a1.119,1.119,0,0,0,1.566-.626" transform="translate(-155.493 -156.561)" fill="none" stroke="#263238" stroke-linecap="round" stroke-linejoin="round" stroke-width="1.013"/>
      <path id="Path_375" data-name="Path 375" d="M180.72,165.683a1.562,1.562,0,0,1,2.137-.087" transform="translate(-154.363 -153.901)" fill="none" stroke="#263238" stroke-linecap="round" stroke-linejoin="round" stroke-width="2.027"/>
      <path id="Path_376" data-name="Path 376" d="M174.176,162.49c-1.215-.53-4.11-1.7-5.078-1.21-1.251.626-4.484,2.818-4.484,4.484,0,0-2.082-2.813-2.082-3.859s.831-1.37.105-2.708-1.776-1.461-1.461-3.023c.288-1.448,3.169-2.982,4.567-3.2a4.713,4.713,0,0,0,3.128,1.114c2.283,0,4.169-1.466,4.169-3.283s-1.868-3.279-4.169-3.279a5.06,5.06,0,0,0-1.512.224c-2.183-.16-2.6,1.457-4.11,2.343s-2.461,3.5-2.461,3.5h.064c-1.105,1.617-1.1,3.567.1,6.85,0,0,2.608,6.982,4.9,8.339s6.877,2.6,8.129-2.283A11.311,11.311,0,0,0,174.176,162.49Z" transform="translate(-143.124 -144.292)" fill="#263238" stroke="#263238" stroke-linecap="round" stroke-linejoin="round" stroke-width="1.013"/>
      <path id="Path_377" data-name="Path 377" d="M181.584,180.06s-1.562,2.187-3.334.731" transform="translate(-153.021 -161.967)" fill="none" stroke="#fff" stroke-linecap="round" stroke-linejoin="round" stroke-width="1.013"/>
      <path id="Path_378" data-name="Path 378" d="M148.7,276.84a6.153,6.153,0,0,1,1.607,1.47,26.788,26.788,0,0,0,1.744,2.146s1.47.132,1.338.8-.4,1.069-1.073,1.069-2.142-1.338-2.142-1.338l-2.142,3.347a8.567,8.567,0,0,1-2.681-3.347Z" transform="translate(-135.145 -214.551)" fill="#fff" stroke="#263238" stroke-linecap="round" stroke-linejoin="round" stroke-width="1.013"/>
      <circle id="Ellipse_15" data-name="Ellipse 15" cx="19.289" cy="19.289" r="19.289" transform="translate(5.917)" fill="none" stroke="#263238" stroke-linecap="round" stroke-linejoin="round" stroke-width="2.027"/>
      <path id="Path_379" data-name="Path 379" d="M213.629,174.459s-1.343-.137-1.607.667a9.619,9.619,0,0,0-.671,2.146c0,.539.132.936.8,1.069s1.073-.8,1.073-.8Z" transform="translate(-171.006 -158.919)" fill="#fff" stroke="#263238" stroke-linecap="round" stroke-linejoin="round" stroke-width="1.013"/>
      <path id="Path_380" data-name="Path 380" d="M216.127,172.234s-.667,3.617-.667,4.69a4.055,4.055,0,0,0,.8,2.283,1.667,1.667,0,0,0,.936.534l.671-.8a1.961,1.961,0,0,0,.265,2.411c1.069,1.338,1.877,1.206,2.813.8s1.206-.936.8-2.411-.667-3.886-.936-5.357-1.206-2.009-1.74-2.009S217.077,171.832,216.127,172.234Z" transform="translate(-173.239 -157.634)" fill="#fff" stroke="#263238" stroke-linecap="round" stroke-linejoin="round" stroke-width="1.013"/>
      <path id="Path_381" data-name="Path 381" d="M215.821,182.847s-.237-.831.772-.95,2.676-.3,2.676-.3" transform="translate(-173.422 -162.804)" fill="none" stroke="#263238" stroke-linecap="round" stroke-linejoin="round" stroke-width="0.507"/>
      <path id="Path_382" data-name="Path 382" d="M216.11,179.061a13.474,13.474,0,0,1,3.151-.479" transform="translate(-173.592 -161.155)" fill="none" stroke="#263238" stroke-linecap="round" stroke-linejoin="round" stroke-width="0.507"/>
      <path id="Path_383" data-name="Path 383" d="M216.5,175.717a15.411,15.411,0,0,1,2.617-.237" transform="translate(-173.804 -159.479)" fill="none" stroke="#263238" stroke-linecap="round" stroke-linejoin="round" stroke-width="0.507"/>
      <path id="Path_384" data-name="Path 384" d="M218.19,185.76a1.548,1.548,0,0,0,1.37.361" transform="translate(-174.722 -165.064)" fill="none" stroke="#263238" stroke-linecap="round" stroke-linejoin="round" stroke-width="0.507"/>
    </g>
  </g>
</svg>
