<?xml version="1.0" encoding="UTF-8"?>
<!DOCTYPE svg PUBLIC "-//W3C//DTD SVG 1.1//EN" "http://www.w3.org/Graphics/SVG/1.1/DTD/svg11.dtd">
<svg version="1.2" width="162mm" height="114mm" viewBox="0 0 16200 11400" preserveAspectRatio="xMidYMid" fill-rule="evenodd" stroke-width="28.222" stroke-linejoin="round" xmlns="http://www.w3.org/2000/svg" xmlns:ooo="http://xml.openoffice.org/svg/export" xmlns:xlink="http://www.w3.org/1999/xlink" xmlns:presentation="http://sun.com/xmlns/staroffice/presentation" xmlns:smil="http://www.w3.org/2001/SMIL20/" xmlns:anim="urn:oasis:names:tc:opendocument:xmlns:animation:1.0" xml:space="preserve">
 <defs class="ClipPathGroup">
  <clipPath id="presentation_clip_path" clipPathUnits="userSpaceOnUse">
   <rect x="0" y="0" width="16200" height="11400"/>
  </clipPath>
  <clipPath id="presentation_clip_path_shrink" clipPathUnits="userSpaceOnUse">
   <rect x="16" y="11" width="16168" height="11378"/>
  </clipPath>
 </defs>
 <defs class="TextShapeIndex">
  <g ooo:slide="id1" ooo:id-list="id3 id4 id5 id6 id7 id8 id9 id10 id11 id12"/>
 </defs>
 <defs class="EmbeddedBulletChars">
  <g id="bullet-char-template-57356" transform="scale(0.00048828125,-0.00048828125)">
   <path d="M 580,1141 L 1163,571 580,0 -4,571 580,1141 Z"/>
  </g>
  <g id="bullet-char-template-57354" transform="scale(0.00048828125,-0.00048828125)">
   <path d="M 8,1128 L 1137,1128 1137,0 8,0 8,1128 Z"/>
  </g>
  <g id="bullet-char-template-10146" transform="scale(0.00048828125,-0.00048828125)">
   <path d="M 174,0 L 602,739 174,1481 1456,739 174,0 Z M 1358,739 L 309,1346 659,739 1358,739 Z"/>
  </g>
  <g id="bullet-char-template-10132" transform="scale(0.00048828125,-0.00048828125)">
   <path d="M 2015,739 L 1276,0 717,0 1260,543 174,543 174,936 1260,936 717,1481 1274,1481 2015,739 Z"/>
  </g>
  <g id="bullet-char-template-10007" transform="scale(0.00048828125,-0.00048828125)">
   <path d="M 0,-2 C -7,14 -16,27 -25,37 L 356,567 C 262,823 215,952 215,954 215,979 228,992 255,992 264,992 276,990 289,987 310,991 331,999 354,1012 L 381,999 492,748 772,1049 836,1024 860,1049 C 881,1039 901,1025 922,1006 886,937 835,863 770,784 769,783 710,716 594,584 L 774,223 C 774,196 753,168 711,139 L 727,119 C 717,90 699,76 672,76 641,76 570,178 457,381 L 164,-76 C 142,-110 111,-127 72,-127 30,-127 9,-110 8,-76 1,-67 -2,-52 -2,-32 -2,-23 -1,-13 0,-2 Z"/>
  </g>
  <g id="bullet-char-template-10004" transform="scale(0.00048828125,-0.00048828125)">
   <path d="M 285,-33 C 182,-33 111,30 74,156 52,228 41,333 41,471 41,549 55,616 82,672 116,743 169,778 240,778 293,778 328,747 346,684 L 369,508 C 377,444 397,411 428,410 L 1163,1116 C 1174,1127 1196,1133 1229,1133 1271,1133 1292,1118 1292,1087 L 1292,965 C 1292,929 1282,901 1262,881 L 442,47 C 390,-6 338,-33 285,-33 Z"/>
  </g>
  <g id="bullet-char-template-9679" transform="scale(0.00048828125,-0.00048828125)">
   <path d="M 813,0 C 632,0 489,54 383,161 276,268 223,411 223,592 223,773 276,916 383,1023 489,1130 632,1184 813,1184 992,1184 1136,1130 1245,1023 1353,916 1407,772 1407,592 1407,412 1353,268 1245,161 1136,54 992,0 813,0 Z"/>
  </g>
  <g id="bullet-char-template-8226" transform="scale(0.00048828125,-0.00048828125)">
   <path d="M 346,457 C 273,457 209,483 155,535 101,586 74,649 74,723 74,796 101,859 155,911 209,963 273,989 346,989 419,989 480,963 531,910 582,859 608,796 608,723 608,648 583,586 532,535 482,483 420,457 346,457 Z"/>
  </g>
  <g id="bullet-char-template-8211" transform="scale(0.00048828125,-0.00048828125)">
   <path d="M -4,459 L 1135,459 1135,606 -4,606 -4,459 Z"/>
  </g>
  <g id="bullet-char-template-61548" transform="scale(0.00048828125,-0.00048828125)">
   <path d="M 173,740 C 173,903 231,1043 346,1159 462,1274 601,1332 765,1332 928,1332 1067,1274 1183,1159 1299,1043 1357,903 1357,740 1357,577 1299,437 1183,322 1067,206 928,148 765,148 601,148 462,206 346,322 231,437 173,577 173,740 Z"/>
  </g>
 </defs>
 <g>
  <g id="id2" class="Master_Slide">
   <g id="bg-id2" class="Background"/>
   <g id="bo-id2" class="BackgroundObjects"/>
  </g>
 </g>
 <g class="SlideGroup">
  <g>
   <g id="container-id1">
    <g id="id1" class="Slide" clip-path="url(#presentation_clip_path)">
     <g class="Page">
      <g class="Group">
       <g class="com.sun.star.drawing.PolyPolygonShape">
        <g id="id3">
         <rect class="BoundingBox" stroke="none" fill="none" x="816" y="1648" width="10665" height="6912"/>
         <path fill="rgb(30,75,134)" stroke="none" d="M 11480,8558 L 10148,8558 8010,4260 5717,8558 816,8558 1931,7435 5085,7406 7983,1648 11480,8558 Z"/>
        </g>
       </g>
       <g class="com.sun.star.drawing.PolyPolygonShape">
        <g id="id4">
         <rect class="BoundingBox" stroke="none" fill="none" x="784" y="1816" width="1178" height="6742"/>
         <path fill="rgb(30,75,134)" stroke="none" d="M 784,1816 L 1961,1816 1961,8556 784,8556 784,1816 Z"/>
        </g>
       </g>
       <g class="com.sun.star.drawing.ClosedBezierShape">
        <g id="id5">
         <rect class="BoundingBox" stroke="none" fill="none" x="10340" y="1744" width="5161" height="6829"/>
         <path fill="rgb(30,75,134)" stroke="none" d="M 13217,1744 C 12444,1751 11114,1758 10340,1765 10340,2141 10340,2518 10340,2895 11169,2901 12730,2827 13512,2901 13801,2931 14009,3034 14128,3211 14604,3906 14137,4641 13240,4596 12668,4612 12096,4626 11521,4641 11530,5009 11537,5381 11544,5749 12105,5749 12661,5749 13217,5749 13867,5715 14318,5931 14304,6724 14265,7144 13991,7404 13554,7404 L 10725,7410 10812,8556 C 11892,8565 12489,8570 13327,8572 15302,8484 16069,6720 14847,5128 16227,3957 15295,1796 13217,1744 Z"/>
        </g>
       </g>
       <g class="com.sun.star.drawing.PolyPolygonShape">
        <g id="id6">
         <rect class="BoundingBox" stroke="none" fill="none" x="7579" y="5708" width="270" height="264"/>
         <path fill="rgb(94,153,0)" stroke="none" d="M 7580,5709 L 7848,5709 7848,5971 7580,5971 7580,5709 Z"/>
        </g>
       </g>
       <g class="com.sun.star.drawing.PolyPolygonShape">
        <g id="id7">
         <rect class="BoundingBox" stroke="none" fill="none" x="7930" y="5708" width="269" height="264"/>
         <path fill="rgb(94,153,0)" stroke="none" d="M 7930,5709 L 8198,5709 8198,5971 7930,5971 7930,5709 Z"/>
        </g>
       </g>
       <g class="com.sun.star.drawing.PolyPolygonShape">
        <g id="id8">
         <rect class="BoundingBox" stroke="none" fill="none" x="7579" y="6042" width="270" height="264"/>
         <path fill="rgb(94,153,0)" stroke="none" d="M 7580,6043 L 7848,6043 7848,6305 7580,6305 7580,6043 Z"/>
        </g>
       </g>
       <g class="com.sun.star.drawing.PolyPolygonShape">
        <g id="id9">
         <rect class="BoundingBox" stroke="none" fill="none" x="7930" y="6042" width="269" height="264"/>
         <path fill="rgb(94,153,0)" stroke="none" d="M 7930,6043 L 8198,6043 8198,6305 7930,6305 7930,6043 Z"/>
        </g>
       </g>
       <g class="com.sun.star.drawing.PolyPolygonShape">
        <g id="id10">
         <rect class="BoundingBox" stroke="none" fill="none" x="6618" y="6668" width="1952" height="105"/>
         <path fill="rgb(30,75,134)" stroke="none" d="M 6619,6668 L 8569,6668 8569,6771 6619,6771 6619,6668 Z"/>
        </g>
       </g>
       <g class="com.sun.star.drawing.LineShape">
        <g id="id11">
         <rect class="BoundingBox" stroke="none" fill="none" x="750" y="9056" width="14435" height="20"/>
         <path fill="none" stroke="rgb(30,75,134)" stroke-width="18" stroke-linejoin="miter" d="M 750,9065 L 15183,9065"/>
        </g>
       </g>
       <g class="com.sun.star.drawing.ClosedBezierShape">
        <g id="id12">
         <rect class="BoundingBox" stroke="none" fill="none" x="820" y="9419" width="14340" height="730"/>
         <path fill="rgb(27,25,24)" stroke="none" d="M 1112,10148 L 821,10148 821,9419 931,9419 931,10052 1112,10052 1112,10148 Z M 1112,10148 L 1112,10148 Z M 1991,10148 L 1881,10148 1858,10011 1720,10011 1698,10148 1588,10148 1588,10148 1732,9419 1849,9419 1991,10148 Z M 1991,10148 L 1991,10148 Z M 1844,9915 L 1789,9587 1734,9915 1844,9915 Z M 1844,9915 L 1844,9915 Z M 2867,10148 L 2771,10148 2592,9691 C 2597,9713 2599,9731 2599,9742 L 2599,10148 2492,10148 2492,9419 2588,9419 2766,9868 C 2762,9848 2760,9830 2760,9816 L 2760,9419 2867,9419 2867,10148 Z M 2867,10148 L 2867,10148 Z M 3764,10011 C 3764,10054 3751,10087 3725,10112 3700,10137 3664,10148 3620,10148 L 3396,10148 3396,9419 3620,9419 C 3664,9419 3700,9431 3725,9455 3751,9480 3764,9513 3764,9556 L 3764,10011 Z M 3764,10011 L 3764,10011 Z M 3652,9993 L 3652,9574 C 3652,9534 3632,9511 3588,9511 L 3506,9511 3506,10056 3586,10056 C 3632,10056 3652,10036 3652,9993 Z M 3652,9993 L 3652,9993 Z M 5305,10148 L 5195,10148 5174,10011 5035,10011 5012,10148 4902,10148 4902,10148 5046,9419 5163,9419 5305,10148 Z M 5305,10148 L 5305,10148 Z M 5158,9915 L 5103,9587 5048,9915 5158,9915 Z M 5158,9915 L 5158,9915 Z M 6181,10148 L 6085,10148 5907,9691 C 5911,9713 5914,9731 5914,9742 L 5914,10148 5806,10148 5806,9419 5904,9419 6081,9868 C 6076,9848 6074,9830 6074,9816 L 6074,9419 6181,9419 6181,10148 Z M 6181,10148 L 6181,10148 Z M 7079,10011 C 7079,10054 7065,10087 7040,10112 7014,10137 6978,10148 6934,10148 L 6710,10148 6710,9419 6934,9419 C 6978,9419 7014,9431 7040,9455 7065,9480 7079,9513 7079,9556 L 7079,10011 Z M 7079,10011 L 7079,10011 Z M 6966,9993 L 6966,9574 C 6966,9534 6946,9511 6902,9511 L 6820,9511 6820,10056 6900,10056 C 6946,10056 6966,10036 6966,9993 Z M 6966,9993 L 6966,9993 Z M 8605,10083 C 8605,10128 8582,10148 8537,10148 L 8241,10148 8241,9419 8537,9419 C 8580,9419 8601,9442 8601,9487 L 8601,9675 C 8601,9700 8594,9720 8578,9733 8575,9733 8557,9747 8521,9769 8557,9791 8578,9803 8580,9805 8596,9821 8605,9839 8605,9865 L 8605,10083 Z M 8605,10083 L 8605,10083 Z M 8491,9688 L 8491,9511 8353,9511 8353,9726 8438,9726 8491,9688 Z M 8491,9688 L 8491,9688 Z M 8493,10058 L 8493,9848 8440,9814 8353,9814 8353,10058 8493,10058 Z M 8493,10058 L 8493,10058 Z M 9502,10083 C 9502,10128 9480,10148 9434,10148 L 9198,10148 C 9155,10148 9132,10128 9132,10083 L 9132,9419 9242,9419 9242,10056 9390,10056 9390,9419 9502,9419 9502,10083 Z M 9502,10083 L 9502,10083 Z M 10143,10148 L 10031,10148 10031,9419 10143,9419 10143,10148 Z M 10143,10148 L 10143,10148 Z M 10963,10148 L 10672,10148 10672,9419 10784,9419 10784,10052 10963,10052 10963,10148 Z M 10963,10148 L 10963,10148 Z M 11839,10011 C 11839,10054 11828,10087 11800,10112 11775,10137 11741,10148 11697,10148 L 11469,10148 11469,9419 11697,9419 C 11741,9419 11775,9431 11800,9455 11828,9480 11839,9513 11839,9556 L 11839,10011 Z M 11839,10011 L 11839,10011 Z M 11729,9993 L 11729,9574 C 11729,9534 11707,9511 11663,9511 L 11581,9511 11581,10056 11661,10056 C 11707,10056 11729,10036 11729,9993 Z M 11729,9993 L 11729,9993 Z M 12478,10148 L 12366,10148 12366,9419 12478,9419 12478,10148 Z M 12478,10148 L 12478,10148 Z M 13382,10148 L 13286,10148 13107,9691 C 13112,9713 13114,9731 13114,9742 L 13114,10148 13007,10148 13007,9419 13105,9419 13281,9868 C 13277,9848 13274,9830 13274,9816 L 13274,9419 13382,9419 13382,10148 Z M 13382,10148 L 13382,10148 Z M 14277,10083 C 14277,10128 14254,10148 14208,10148 L 13977,10148 C 13931,10148 13911,10128 13911,10083 L 13911,9487 C 13911,9442 13934,9419 13977,9419 L 14208,9419 C 14254,9419 14277,9442 14277,9487 L 14277,9644 14165,9644 14165,9511 14021,9511 14021,10056 14165,10056 14165,9850 14082,9850 14082,9758 14277,9758 14277,10083 Z M 14277,10083 L 14277,10083 Z M 15158,10083 C 15158,10128 15138,10148 15092,10148 L 14870,10148 C 14824,10148 14803,10128 14803,10083 L 14803,9908 14913,9908 14913,10058 15048,10058 15048,9913 14826,9706 C 14810,9693 14803,9673 14803,9650 L 14803,9487 C 14803,9442 14824,9419 14870,9419 L 15092,9419 C 15138,9419 15158,9442 15158,9484 L 15158,9650 15048,9650 15048,9511 14913,9511 14913,9644 15135,9848 C 15151,9863 15158,9883 15158,9908 L 15158,10083 Z"/>
        </g>
       </g>
      </g>
     </g>
    </g>
   </g>
  </g>
 </g>
</svg>