<?xml version="1.0" encoding="UTF-8"?>
<!DOCTYPE svg PUBLIC "-//W3C//DTD SVG 1.1//EN" "http://www.w3.org/Graphics/SVG/1.1/DTD/svg11.dtd">
<svg version="1.2" width="220mm" height="110mm" viewBox="0 0 22000 11000" preserveAspectRatio="xMidYMid" fill-rule="evenodd" stroke-width="28.222" stroke-linejoin="round" xmlns="http://www.w3.org/2000/svg" xmlns:ooo="http://xml.openoffice.org/svg/export" xmlns:xlink="http://www.w3.org/1999/xlink" xmlns:presentation="http://sun.com/xmlns/staroffice/presentation" xmlns:smil="http://www.w3.org/2001/SMIL20/" xmlns:anim="urn:oasis:names:tc:opendocument:xmlns:animation:1.0" xml:space="preserve">
 <defs class="ClipPathGroup">
  <clipPath id="presentation_clip_path" clipPathUnits="userSpaceOnUse">
   <rect x="0" y="0" width="22000" height="11000"/>
  </clipPath>
  <clipPath id="presentation_clip_path_shrink" clipPathUnits="userSpaceOnUse">
   <rect x="22" y="11" width="21956" height="10978"/>
  </clipPath>
 </defs>
 <defs class="TextShapeIndex">
  <g ooo:slide="id1" ooo:id-list="id3 id4 id5 id6 id7 id8 id9 id10 id11 id12 id13 id14 id15 id16 id17 id18 id19 id20 id21 id22 id23 id24 id25 id26 id27 id28 id29 id30"/>
 </defs>
 <defs class="EmbeddedBulletChars">
  <g id="bullet-char-template-57356" transform="scale(0.00048828125,-0.00048828125)">
   <path d="M 580,1141 L 1163,571 580,0 -4,571 580,1141 Z"/>
  </g>
  <g id="bullet-char-template-57354" transform="scale(0.00048828125,-0.00048828125)">
   <path d="M 8,1128 L 1137,1128 1137,0 8,0 8,1128 Z"/>
  </g>
  <g id="bullet-char-template-10146" transform="scale(0.00048828125,-0.00048828125)">
   <path d="M 174,0 L 602,739 174,1481 1456,739 174,0 Z M 1358,739 L 309,1346 659,739 1358,739 Z"/>
  </g>
  <g id="bullet-char-template-10132" transform="scale(0.00048828125,-0.00048828125)">
   <path d="M 2015,739 L 1276,0 717,0 1260,543 174,543 174,936 1260,936 717,1481 1274,1481 2015,739 Z"/>
  </g>
  <g id="bullet-char-template-10007" transform="scale(0.00048828125,-0.00048828125)">
   <path d="M 0,-2 C -7,14 -16,27 -25,37 L 356,567 C 262,823 215,952 215,954 215,979 228,992 255,992 264,992 276,990 289,987 310,991 331,999 354,1012 L 381,999 492,748 772,1049 836,1024 860,1049 C 881,1039 901,1025 922,1006 886,937 835,863 770,784 769,783 710,716 594,584 L 774,223 C 774,196 753,168 711,139 L 727,119 C 717,90 699,76 672,76 641,76 570,178 457,381 L 164,-76 C 142,-110 111,-127 72,-127 30,-127 9,-110 8,-76 1,-67 -2,-52 -2,-32 -2,-23 -1,-13 0,-2 Z"/>
  </g>
  <g id="bullet-char-template-10004" transform="scale(0.00048828125,-0.00048828125)">
   <path d="M 285,-33 C 182,-33 111,30 74,156 52,228 41,333 41,471 41,549 55,616 82,672 116,743 169,778 240,778 293,778 328,747 346,684 L 369,508 C 377,444 397,411 428,410 L 1163,1116 C 1174,1127 1196,1133 1229,1133 1271,1133 1292,1118 1292,1087 L 1292,965 C 1292,929 1282,901 1262,881 L 442,47 C 390,-6 338,-33 285,-33 Z"/>
  </g>
  <g id="bullet-char-template-9679" transform="scale(0.00048828125,-0.00048828125)">
   <path d="M 813,0 C 632,0 489,54 383,161 276,268 223,411 223,592 223,773 276,916 383,1023 489,1130 632,1184 813,1184 992,1184 1136,1130 1245,1023 1353,916 1407,772 1407,592 1407,412 1353,268 1245,161 1136,54 992,0 813,0 Z"/>
  </g>
  <g id="bullet-char-template-8226" transform="scale(0.00048828125,-0.00048828125)">
   <path d="M 346,457 C 273,457 209,483 155,535 101,586 74,649 74,723 74,796 101,859 155,911 209,963 273,989 346,989 419,989 480,963 531,910 582,859 608,796 608,723 608,648 583,586 532,535 482,483 420,457 346,457 Z"/>
  </g>
  <g id="bullet-char-template-8211" transform="scale(0.00048828125,-0.00048828125)">
   <path d="M -4,459 L 1135,459 1135,606 -4,606 -4,459 Z"/>
  </g>
  <g id="bullet-char-template-61548" transform="scale(0.00048828125,-0.00048828125)">
   <path d="M 173,740 C 173,903 231,1043 346,1159 462,1274 601,1332 765,1332 928,1332 1067,1274 1183,1159 1299,1043 1357,903 1357,740 1357,577 1299,437 1183,322 1067,206 928,148 765,148 601,148 462,206 346,322 231,437 173,577 173,740 Z"/>
  </g>
 </defs>
 <g>
  <g id="id2" class="Master_Slide">
   <g id="bg-id2" class="Background"/>
   <g id="bo-id2" class="BackgroundObjects"/>
  </g>
 </g>
 <g class="SlideGroup">
  <g>
   <g id="container-id1">
    <g id="id1" class="Slide" clip-path="url(#presentation_clip_path)">
     <g class="Page">
      <g class="Group">
       <g class="com.sun.star.drawing.ClosedBezierShape">
        <g id="id3">
         <rect class="BoundingBox" stroke="none" fill="none" x="14176" y="3807" width="2335" height="3191"/>
         <path fill="rgb(27,25,24)" stroke="none" d="M 14920,3809 L 14924,4969 C 14924,5126 14951,5245 15008,5327 15063,5409 15190,5457 15389,5473 15508,5473 15619,5439 15726,5368 15832,5299 15918,5213 15982,5108 16046,5003 16079,4903 16079,4808 L 16073,4080 16509,4219 16509,6198 C 16509,6317 16477,6430 16413,6530 16348,6630 16261,6716 16152,6785 16043,6855 15919,6908 15785,6942 15651,6979 15516,6997 15376,6997 15108,6997 14885,6958 14704,6881 14522,6806 14389,6718 14304,6616 14218,6514 14177,6427 14177,6351 14177,6276 14202,6205 14250,6139 14297,6074 14359,6016 14436,5966 14513,5917 14602,5876 14704,5846 14804,5815 14902,5801 14997,5801 L 15260,6128 C 15199,6133 15108,6145 14986,6164 14865,6183 14742,6218 14618,6269 14497,6320 14436,6387 14436,6469 14439,6500 14463,6546 14502,6607 14543,6667 14615,6725 14718,6778 14822,6833 14958,6859 15124,6861 15296,6861 15458,6831 15612,6772 15764,6713 15887,6629 15980,6520 16071,6409 16118,6283 16118,6140 L 16118,5353 C 16095,5387 16030,5431 15921,5482 15812,5533 15637,5560 15396,5560 15244,5560 15103,5533 14970,5480 14838,5426 14731,5347 14649,5245 14566,5144 14525,5028 14525,4898 L 14525,3807 14920,3809 Z"/>
        </g>
       </g>
       <g class="com.sun.star.drawing.ClosedBezierShape">
        <g id="id4">
         <rect class="BoundingBox" stroke="none" fill="none" x="13220" y="2211" width="946" height="3523"/>
         <path fill="rgb(27,25,24)" stroke="none" d="M 14164,3356 L 14164,5733 C 14159,5733 14139,5725 14109,5711 14078,5696 14043,5680 14002,5660 13962,5640 13918,5620 13876,5601 13832,5581 13809,5572 13805,5572 L 13805,3360 C 13798,3206 13769,3060 13719,2927 13671,2793 13614,2682 13553,2592 13490,2505 13422,2422 13351,2347 13279,2273 13237,2227 13220,2211 L 13666,2211 C 13782,2320 13880,2444 13957,2586 14034,2727 14086,2864 14118,2997 14148,3133 14164,3251 14164,3356 Z"/>
        </g>
       </g>
       <g class="com.sun.star.drawing.ClosedBezierShape">
        <g id="id5">
         <rect class="BoundingBox" stroke="none" fill="none" x="8775" y="4046" width="2753" height="2776"/>
         <path fill="rgb(27,25,24)" stroke="none" d="M 11526,5975 C 11526,6117 11492,6211 11422,6260 11351,6310 11261,6334 11152,6334 11070,6334 10999,6323 10938,6301 10875,6279 10784,6241 10668,6187 10552,6133 10450,6093 10362,6066 10277,6038 10182,6025 10084,6025 9933,6025 9773,6058 9601,6121 9426,6186 9267,6278 9122,6397 8977,6517 8865,6658 8782,6821 8777,6800 8775,6768 8775,6722 8775,6592 8818,6450 8904,6297 8991,6142 9117,6012 9279,5905 9442,5798 9630,5744 9839,5744 9994,5744 10116,5767 10203,5808 10291,5849 10404,5914 10543,6001 10682,6090 10788,6133 10863,6133 10947,6133 11029,6114 11108,6074 11186,6035 11251,5984 11297,5923 11345,5861 11369,5802 11369,5744 11369,5682 11354,5625 11324,5569 11295,5514 11253,5470 11197,5436 11144,5400 11079,5384 11008,5384 10949,5384 10879,5398 10799,5421 10722,5448 10625,5482 10511,5527 10396,5572 10302,5607 10225,5631 10150,5654 10082,5666 10023,5666 9957,5666 9878,5638 9785,5582 9690,5526 9608,5458 9538,5377 9467,5297 9431,5225 9431,5163 9431,5104 9470,5046 9544,4986 9619,4927 9697,4894 9783,4887 L 9787,4864 C 9746,4811 9712,4766 9685,4732 9658,4698 9637,4661 9622,4624 9606,4587 9599,4543 9599,4489 9601,4329 9676,4213 9824,4147 9964,4085 10135,4051 10339,4047 10352,4047 10366,4047 10380,4047 L 10382,4047 C 10525,4047 10659,4078 10754,4202 10756,4204 10757,4207 10759,4210 10766,4221 10777,4230 10788,4234 10815,4234 10845,4213 10877,4173 10911,4134 10938,4104 10958,4085 10979,4066 11017,4052 11070,4047 11113,4047 11154,4058 11199,4083 11244,4109 11285,4142 11319,4185 11356,4228 11379,4271 11390,4312 L 11172,4544 C 11170,4485 11154,4427 11126,4370 11097,4312 11058,4284 11009,4284 10997,4284 10975,4292 10945,4308 10917,4323 10900,4340 10900,4360 10900,4361 10908,4374 10924,4402 10938,4429 10952,4458 10961,4488 10972,4519 10977,4556 10977,4600 10977,4771 10915,4884 10788,4937 10661,4989 10489,5015 10269,5015 10121,5015 9998,5033 9903,5068 9808,5104 9742,5144 9703,5186 9664,5231 9646,5268 9646,5297 9649,5347 9676,5384 9724,5408 9773,5430 9808,5443 9833,5443 9892,5443 9951,5430 10012,5408 10075,5384 10166,5344 10287,5288 10409,5234 10521,5189 10623,5158 10725,5126 10825,5108 10927,5104 11085,5104 11208,5164 11297,5282 11387,5400 11447,5530 11480,5669 11512,5807 11526,5908 11526,5975 Z M 11526,5975 L 11526,5975 Z M 10716,4423 C 10716,4268 10627,4190 10448,4190 10346,4190 10248,4215 10155,4264 10060,4314 9983,4376 9923,4453 9864,4529 9833,4603 9833,4676 9833,4723 9858,4777 9908,4839 9957,4900 10030,4931 10123,4932 10184,4932 10262,4910 10359,4867 10457,4825 10541,4764 10611,4687 10681,4611 10716,4522 10716,4423 Z"/>
        </g>
       </g>
       <g class="com.sun.star.drawing.ClosedBezierShape">
        <g id="id6">
         <rect class="BoundingBox" stroke="none" fill="none" x="7320" y="4058" width="1905" height="1712"/>
         <path fill="rgb(27,25,24)" stroke="none" d="M 8927,4668 C 8927,4358 8770,4204 8453,4204 8362,4204 8269,4230 8173,4280 8076,4330 7991,4399 7915,4488 7839,4577 7776,4683 7730,4805 7683,4929 7660,5055 7660,5186 L 7660,5749 7320,5582 7320,4129 7676,4129 7676,4358 C 7706,4339 7755,4303 7823,4255 7890,4206 7973,4160 8067,4119 8164,4078 8269,4058 8380,4058 8491,4058 8595,4079 8697,4123 8800,4168 8890,4228 8968,4306 9047,4385 9109,4478 9156,4584 9201,4690 9224,4804 9224,4927 9224,5062 9192,5201 9129,5344 9065,5486 8965,5628 8825,5768 L 8423,5535 C 8448,5504 8495,5458 8561,5399 8629,5340 8689,5279 8739,5219 8793,5158 8838,5082 8874,4991 8909,4898 8927,4792 8927,4668 Z"/>
        </g>
       </g>
       <g class="com.sun.star.drawing.ClosedBezierShape">
        <g id="id7">
         <rect class="BoundingBox" stroke="none" fill="none" x="5168" y="4071" width="1803" height="1644"/>
         <path fill="rgb(27,25,24)" stroke="none" d="M 5846,4132 C 5906,4117 5974,4103 6051,4091 6130,4078 6205,4072 6278,4072 6444,4072 6577,4092 6673,4135 6768,4176 6838,4237 6881,4314 6922,4391 6947,4478 6956,4574 6966,4670 6970,4801 6970,4969 L 6970,5713 C 6863,5675 6786,5647 6741,5628 6695,5610 6661,5597 6637,5588 6637,5547 6629,5520 6611,5510 6564,5533 6512,5560 6455,5589 6398,5618 6325,5644 6233,5665 6142,5687 6033,5699 5908,5699 5787,5699 5670,5678 5552,5637 5438,5595 5345,5536 5274,5460 5202,5383 5168,5296 5168,5200 5168,5110 5211,5015 5302,4916 5392,4816 5511,4735 5665,4668 5815,4603 5980,4571 6158,4571 6255,4571 6348,4584 6435,4611 6525,4637 6593,4667 6637,4699 L 6637,4522 C 6578,4453 6523,4407 6469,4383 6418,4360 6335,4348 6223,4348 6078,4352 5964,4362 5880,4380 5796,4396 5706,4424 5608,4460 5511,4495 5431,4525 5367,4544 L 5367,4404 C 5377,4396 5390,4385 5408,4371 5547,4264 5658,4181 5846,4132 Z M 5846,4132 L 5846,4132 Z M 6637,5053 C 6637,4994 6566,4944 6421,4904 6278,4863 6176,4844 6117,4844 5965,4844 5830,4872 5706,4932 5581,4991 5485,5059 5415,5138 5343,5216 5308,5281 5308,5331 5325,5384 5367,5421 5435,5442 5502,5461 5574,5473 5653,5473 5794,5473 5924,5455 6044,5420 6164,5386 6267,5343 6357,5293 6446,5242 6514,5194 6564,5148 6612,5102 6637,5070 6637,5053 Z"/>
        </g>
       </g>
       <g class="com.sun.star.drawing.ClosedBezierShape">
        <g id="id8">
         <rect class="BoundingBox" stroke="none" fill="none" x="569" y="3232" width="4486" height="2529"/>
         <path fill="rgb(27,25,24)" stroke="none" d="M 4373,3326 C 4587,3415 4750,3524 4859,3655 4988,3810 5054,4032 5054,4315 5054,4529 5002,4724 4900,4901 4796,5079 4677,5225 4539,5340 4401,5455 4269,5545 4146,5612 4022,5677 3953,5711 3935,5711 3905,5711 3819,5647 3679,5520 3538,5393 3424,5288 3336,5204 3531,5194 3747,5135 3983,5022 4221,4913 4425,4771 4594,4599 4764,4424 4848,4240 4848,4047 4848,3946 4816,3862 4754,3796 4689,3729 4605,3679 4503,3646 4401,3612 4292,3596 4174,3596 3817,3614 3538,3722 3341,3918 3143,4113 3011,4367 2941,4681 2927,4678 2841,4646 2682,4585 2525,4525 2400,4476 2303,4439 2303,4346 2324,4252 2364,4159 2405,4064 2451,3979 2505,3899 2557,3819 2584,3778 2584,3773 2584,3723 2534,3688 2432,3667 2330,3649 2240,3639 2164,3639 1994,3639 1835,3680 1685,3763 1534,3846 1416,3952 1329,4079 1243,4207 1198,4336 1198,4464 1198,4608 1241,4748 1325,4882 1411,5017 1502,5133 1599,5231 1697,5328 1817,5436 1960,5554 2105,5672 2181,5740 2189,5759 2056,5718 1901,5656 1722,5573 1543,5491 1365,5386 1186,5260 1009,5133 861,4990 744,4829 626,4670 569,4498 569,4315 569,4106 634,3920 760,3753 889,3589 1054,3460 1256,3369 1458,3277 1665,3233 1878,3233 2047,3233 2199,3255 2332,3301 2464,3347 2585,3400 2696,3462 2807,3524 2870,3555 2880,3555 2882,3555 2938,3531 3050,3482 3161,3434 3277,3389 3395,3348 3753,3230 4031,3189 4373,3326 Z"/>
        </g>
       </g>
       <g class="com.sun.star.drawing.ClosedBezierShape">
        <g id="id9">
         <rect class="BoundingBox" stroke="none" fill="none" x="11585" y="4052" width="1803" height="1644"/>
         <path fill="rgb(27,25,24)" stroke="none" d="M 12262,4113 C 12323,4098 12391,4083 12468,4072 12547,4058 12622,4052 12695,4052 12861,4052 12993,4073 13090,4116 13185,4157 13254,4218 13297,4295 13338,4371 13363,4458 13372,4554 13383,4650 13387,4782 13387,4950 L 13387,5694 C 13279,5656 13203,5628 13158,5609 13111,5591 13077,5578 13054,5569 13054,5527 13045,5501 13027,5491 12981,5514 12929,5541 12872,5570 12815,5598 12741,5625 12650,5646 12559,5668 12450,5680 12325,5680 12203,5680 12087,5659 11969,5618 11855,5576 11762,5517 11690,5440 11619,5364 11585,5276 11585,5180 11585,5090 11628,4996 11719,4897 11808,4797 11928,4715 12082,4649 12232,4584 12396,4551 12575,4551 12672,4551 12765,4565 12852,4591 12942,4618 13010,4647 13054,4680 L 13054,4503 C 12995,4433 12940,4388 12886,4364 12834,4340 12752,4329 12640,4329 12495,4333 12380,4343 12296,4361 12212,4377 12123,4405 12025,4441 11928,4476 11848,4506 11783,4525 L 11783,4385 C 11794,4377 11807,4365 11825,4352 11964,4244 12075,4162 12262,4113 Z M 12262,4113 L 12262,4113 Z M 13054,5034 C 13054,4975 12983,4925 12838,4885 12695,4844 12593,4825 12534,4825 12382,4825 12246,4853 12123,4913 11998,4972 11901,5040 11832,5118 11760,5197 11724,5262 11724,5312 11742,5365 11783,5402 11851,5423 11919,5442 11991,5454 12069,5454 12211,5454 12341,5436 12461,5400 12581,5367 12684,5324 12774,5273 12863,5223 12931,5175 12981,5129 13029,5083 13054,5051 13054,5034 Z"/>
        </g>
       </g>
       <g class="com.sun.star.drawing.ClosedBezierShape">
        <g id="id10">
         <rect class="BoundingBox" stroke="none" fill="none" x="16732" y="4071" width="1804" height="1644"/>
         <path fill="rgb(27,25,24)" stroke="none" d="M 17410,4132 C 17471,4117 17539,4103 17616,4091 17694,4078 17769,4072 17843,4072 18009,4072 18141,4092 18238,4135 18332,4176 18402,4237 18445,4314 18486,4391 18511,4478 18520,4574 18531,4670 18534,4801 18534,4969 L 18534,5713 C 18427,5675 18350,5647 18306,5628 18259,5610 18225,5597 18202,5588 18202,5547 18193,5520 18175,5510 18129,5533 18077,5560 18020,5589 17962,5618 17889,5644 17798,5665 17707,5687 17598,5699 17473,5699 17351,5699 17235,5678 17117,5637 17003,5595 16910,5536 16838,5460 16767,5383 16733,5296 16733,5200 16733,5110 16776,5015 16867,4916 16956,4816 17076,4735 17230,4668 17380,4603 17544,4571 17723,4571 17819,4571 17912,4584 18000,4611 18089,4637 18157,4667 18202,4699 L 18202,4522 C 18143,4453 18088,4407 18034,4383 17982,4360 17900,4348 17787,4348 17643,4352 17528,4362 17444,4380 17360,4396 17271,4424 17172,4460 17076,4495 16995,4525 16931,4544 L 16931,4404 C 16942,4396 16954,4385 16972,4371 17112,4264 17222,4181 17410,4132 Z M 17410,4132 L 17410,4132 Z M 18202,5053 C 18202,4994 18130,4944 17986,4904 17843,4863 17741,4844 17682,4844 17530,4844 17394,4872 17271,4932 17146,4991 17049,5059 16979,5138 16908,5216 16872,5281 16872,5331 16890,5384 16931,5421 16999,5442 17067,5461 17138,5473 17217,5473 17358,5473 17489,5455 17609,5420 17728,5386 17832,5343 17921,5293 18011,5242 18079,5194 18129,5148 18177,5102 18202,5070 18202,5053 Z"/>
        </g>
       </g>
       <g class="com.sun.star.drawing.ClosedBezierShape">
        <g id="id11">
         <rect class="BoundingBox" stroke="none" fill="none" x="16021" y="1905" width="2020" height="1901"/>
         <path fill="rgb(27,25,24)" stroke="none" d="M 17389,2335 C 17662,2546 17857,2802 18039,3068 17900,2617 17635,2238 17160,1906 17092,2294 17105,2691 17348,3162 16827,2889 16390,2802 16021,2877 16436,3447 16861,3697 17290,3804 16954,3629 16702,3375 16454,3119 16881,3044 17337,3283 17798,3617 17487,3214 17312,2790 17389,2335 Z"/>
        </g>
       </g>
       <g class="com.sun.star.drawing.ClosedBezierShape">
        <g id="id12">
         <rect class="BoundingBox" stroke="none" fill="none" x="18162" y="1303" width="3589" height="3319"/>
         <path fill="rgb(27,25,24)" stroke="none" d="M 19498,2021 C 19001,2363 18497,2880 18163,3322 18429,2555 19076,1838 19938,1303 20038,1981 19964,2623 19392,3474 20327,3047 21099,3020 21750,3181 20983,4129 20265,4472 19498,4621 20102,4346 20515,3974 20969,3553 20215,3385 19310,3714 18475,4252 19047,3580 19610,2817 19498,2021 Z"/>
        </g>
       </g>
       <g class="com.sun.star.drawing.ClosedBezierShape">
        <g id="id13">
         <rect class="BoundingBox" stroke="none" fill="none" x="19052" y="4746" width="2020" height="1901"/>
         <path fill="rgb(27,25,24)" stroke="none" d="M 19702,6215 C 19428,6003 19233,5747 19053,5483 19190,5933 19455,6311 19930,6645 19998,6255 19986,5858 19743,5387 20263,5660 20701,5747 21071,5672 20654,5102 20229,4853 19800,4746 20136,4922 20388,5175 20636,5430 20209,5505 19753,5266 19292,4932 19603,5335 19778,5759 19702,6215 Z"/>
        </g>
       </g>
       <g class="com.sun.star.drawing.ClosedBezierShape">
        <g id="id14">
         <rect class="BoundingBox" stroke="none" fill="none" x="2917" y="5977" width="5676" height="1119"/>
         <path fill="rgb(156,158,159)" stroke="none" d="M 3719,6647 C 3728,6647 3733,6653 3733,6666 3733,6818 3729,6924 3724,6982 3722,6998 3688,7019 3620,7045 3538,7075 3452,7090 3365,7090 3232,7090 3125,7045 3041,6955 2959,6865 2918,6749 2918,6604 2918,6418 2980,6264 3106,6143 3195,6056 3309,6013 3445,6013 3531,6013 3601,6034 3651,6075 3701,6117 3726,6171 3726,6238 3726,6288 3690,6314 3617,6314 3563,6314 3535,6303 3535,6280 3535,6279 3542,6269 3552,6248 3563,6229 3568,6205 3568,6179 3568,6140 3558,6109 3531,6087 3506,6063 3474,6052 3431,6052 3338,6052 3259,6099 3198,6193 3132,6292 3100,6419 3100,6577 3100,6719 3131,6830 3190,6907 3249,6983 3331,7023 3436,7023 3483,7023 3515,7020 3529,7016 3556,7005 3568,6983 3568,6949 3568,6945 3568,6935 3568,6918 3568,6902 3568,6887 3568,6877 3568,6880 3568,6862 3568,6824 3568,6784 3568,6743 3568,6698 3568,6658 3583,6639 3611,6639 3619,6639 3629,6641 3645,6645 3661,6648 3674,6650 3685,6650 3690,6650 3695,6650 3703,6648 3710,6647 3715,6647 3719,6647 Z M 3719,6647 L 3719,6647 Z M 4321,6077 L 4323,6091 C 4325,6106 4328,6114 4335,6114 4337,6114 4348,6105 4371,6087 4400,6068 4426,6052 4455,6041 4496,6024 4539,6015 4584,6015 4644,6015 4695,6029 4728,6058 4764,6086 4782,6125 4782,6176 4782,6236 4750,6301 4689,6371 4623,6443 4532,6509 4416,6570 4387,6583 4373,6592 4373,6596 4373,6596 4375,6598 4378,6601 L 4902,6949 C 4934,6971 4950,6994 4950,7017 4950,7054 4927,7073 4882,7073 4854,7073 4818,7053 4773,7013 L 4348,6633 C 4337,6623 4330,6619 4325,6619 4314,6619 4308,6627 4308,6645 4308,6645 4308,6648 4308,6655 4308,6663 4308,6672 4308,6681 4308,6695 4307,6720 4305,6753 4303,6787 4301,6812 4301,6830 4301,6893 4307,6949 4314,7001 4323,7051 4326,7072 4326,7063 4326,7070 4319,7073 4305,7073 L 4289,7073 C 4287,7073 4282,7073 4274,7073 4264,7069 4257,7067 4248,7067 4246,7067 4239,7069 4228,7073 4219,7073 4210,7073 4201,7073 4162,7073 4140,7032 4140,6949 4140,6912 4144,6822 4149,6681 4155,6539 4157,6413 4157,6307 4157,6254 4155,6202 4149,6153 4144,6105 4140,6083 4140,6086 4140,6077 4158,6068 4190,6058 4199,6056 4216,6047 4239,6034 4257,6021 4273,6015 4285,6015 4303,6015 4316,6035 4321,6077 Z M 4321,6077 L 4321,6077 Z M 4627,6213 C 4627,6133 4591,6093 4521,6093 4480,6093 4437,6103 4392,6122 4353,6142 4332,6158 4328,6170 4326,6174 4323,6208 4317,6269 4312,6348 4308,6435 4308,6527 4308,6555 4314,6568 4325,6568 4339,6568 4375,6549 4428,6511 4560,6422 4627,6323 4627,6213 Z M 4627,6213 L 4627,6213 Z M 5742,7094 C 5595,7094 5476,7044 5384,6946 5288,6842 5240,6718 5240,6577 5240,6467 5270,6363 5334,6266 5399,6170 5485,6093 5595,6035 5670,5997 5722,5978 5753,5978 5762,5978 5767,5979 5767,5985 5767,5985 5742,5997 5697,6022 5615,6068 5549,6137 5501,6232 5451,6329 5426,6438 5426,6562 5426,6709 5460,6824 5527,6911 5594,6997 5681,7039 5790,7039 5901,7039 5990,6994 6062,6904 6137,6806 6175,6682 6175,6529 6175,6403 6146,6304 6089,6232 6032,6161 5958,6125 5865,6125 5817,6125 5769,6137 5721,6164 5674,6189 5651,6202 5654,6202 5651,6201 5649,6198 5649,6196 5649,6190 5660,6179 5678,6158 5756,6077 5847,6035 5955,6035 6064,6035 6148,6072 6212,6148 6276,6224 6309,6326 6309,6458 6309,6639 6253,6791 6142,6915 6039,7035 5905,7094 5742,7094 Z M 5742,7094 L 5742,7094 Z M 7152,6720 L 7281,6230 C 7304,6142 7322,6086 7336,6062 7360,6024 7394,6006 7438,6006 7481,6006 7513,6019 7531,6046 7549,6074 7558,6120 7558,6183 7558,6292 7556,6422 7551,6573 7545,6722 7542,6816 7542,6856 7542,6908 7545,6957 7553,7001 7562,7045 7565,7064 7565,7060 7565,7067 7560,7072 7551,7072 7547,7072 7542,7072 7531,7072 7520,7072 7511,7072 7504,7072 7503,7072 7495,7072 7483,7072 7470,7072 7458,7072 7447,7072 7417,7072 7397,7059 7386,7033 7381,7022 7379,6997 7379,6961 7379,6912 7383,6812 7392,6660 7399,6508 7404,6379 7404,6276 L 7404,6224 C 7404,6171 7395,6146 7379,6146 7367,6146 7358,6158 7349,6182 7340,6220 7331,6258 7320,6295 L 7220,6675 C 7179,6827 7142,6930 7104,6988 7056,7054 6991,7088 6907,7088 6841,7088 6793,7066 6766,7023 6739,6980 6725,6909 6725,6811 6725,6766 6727,6694 6732,6596 6736,6496 6739,6419 6739,6366 6739,6247 6730,6171 6714,6142 6713,6136 6707,6128 6698,6121 6691,6114 6686,6108 6686,6105 6686,6097 6707,6081 6746,6053 6788,6025 6814,6010 6827,6010 6877,6010 6902,6096 6902,6267 6902,6303 6900,6385 6895,6511 6889,6639 6886,6747 6886,6837 6886,6948 6913,7004 6968,7004 7041,7004 7102,6909 7152,6720 Z M 7152,6720 L 7152,6720 Z M 8139,6078 L 8142,6093 C 8142,6106 8146,6114 8151,6114 8148,6114 8173,6096 8225,6062 8278,6027 8334,6009 8393,6009 8525,6009 8591,6068 8591,6184 8591,6258 8554,6335 8480,6415 8402,6499 8291,6577 8150,6647 8137,6653 8130,6661 8130,6675 8130,6687 8130,6710 8126,6746 8125,6781 8125,6808 8125,6828 8125,6890 8126,6946 8134,6998 8139,7048 8142,7069 8142,7060 8142,7066 8135,7069 8121,7069 8116,7069 8107,7069 8098,7069 8085,7069 8075,7069 8067,7069 8066,7069 8058,7069 8048,7069 8037,7069 8028,7069 8021,7069 7982,7069 7964,7023 7964,6930 7964,6920 7965,6846 7967,6709 7971,6571 7973,6438 7973,6314 7973,6258 7971,6207 7967,6158 7965,6109 7964,6087 7964,6091 7964,6083 7980,6072 8014,6059 8024,6056 8041,6047 8064,6034 8080,6024 8092,6018 8103,6018 8123,6018 8134,6038 8139,6078 Z M 8139,6078 L 8139,6078 Z M 8432,6217 C 8432,6133 8396,6091 8323,6091 8284,6091 8244,6102 8203,6125 8166,6143 8148,6158 8146,6168 8132,6223 8125,6353 8125,6558 8125,6583 8130,6596 8141,6596 8157,6596 8189,6577 8237,6542 8368,6443 8432,6335 8432,6217 Z"/>
        </g>
       </g>
       <g class="com.sun.star.drawing.ClosedBezierShape">
        <g id="id15">
         <rect class="BoundingBox" stroke="none" fill="none" x="674" y="7517" width="12736" height="1465"/>
         <path fill="rgb(27,25,24)" stroke="none" d="M 1325,7937 C 1347,7937 1359,7934 1363,7928 1366,7921 1368,7900 1368,7866 1368,7779 1366,7699 1363,7627 1359,7555 1356,7525 1356,7537 1356,7531 1361,7527 1370,7527 1374,7527 1379,7527 1386,7527 1393,7527 1399,7527 1404,7527 1415,7527 1427,7525 1441,7524 1456,7521 1466,7519 1472,7519 1490,7519 1502,7534 1508,7565 1511,7587 1513,7639 1513,7719 1513,7849 1511,7971 1509,8091 1506,8209 1504,8265 1504,8255 1504,8311 1508,8361 1515,8408 1522,8454 1525,8473 1525,8466 1525,8470 1520,8473 1506,8473 1502,8473 1495,8473 1484,8473 1472,8473 1463,8473 1456,8473 1452,8473 1447,8473 1436,8473 1429,8473 1420,8473 1413,8473 1375,8473 1356,8424 1356,8328 1356,8309 1359,8263 1363,8193 1366,8123 1368,8063 1368,8012 1368,7993 1354,7983 1327,7983 L 1075,7983 C 1075,7983 1073,7983 1068,7983 1063,7983 1057,7983 1054,7983 1037,7983 1027,7987 1023,7993 1020,7999 1018,8012 1018,8030 L 1018,8042 C 1018,8067 1016,8104 1012,8150 1011,8197 1009,8231 1009,8256 1009,8312 1012,8362 1021,8408 1029,8454 1032,8473 1032,8466 1032,8470 1025,8473 1011,8473 L 996,8473 C 996,8473 991,8473 984,8473 975,8473 968,8473 961,8473 957,8473 952,8473 943,8473 934,8473 925,8473 918,8473 880,8473 862,8436 862,8362 862,8302 864,8234 868,8163 873,8092 875,8051 875,8040 875,8004 868,7983 855,7983 848,7983 830,7986 802,7990 773,7995 746,7998 723,7998 691,7998 675,7986 675,7962 675,7936 693,7922 730,7922 743,7922 764,7925 793,7930 821,7936 843,7937 857,7937 868,7937 875,7930 875,7912 875,7909 875,7902 875,7890 873,7878 873,7869 873,7859 873,7773 871,7695 868,7626 864,7555 862,7527 862,7537 862,7531 866,7527 877,7527 878,7527 884,7527 891,7527 896,7527 903,7527 907,7527 918,7527 930,7525 946,7524 961,7521 970,7519 975,7519 993,7519 1004,7533 1011,7561 1014,7584 1018,7633 1018,7705 1018,7702 1018,7722 1018,7760 1018,7797 1018,7835 1018,7875 L 1018,7918 C 1018,7931 1027,7937 1045,7937 L 1325,7937 Z M 1325,7937 L 1325,7937 Z M 2160,7975 C 2212,7975 2255,7990 2289,8023 2321,8054 2337,8097 2337,8151 2337,8231 2307,8305 2244,8371 2171,8451 2081,8491 1974,8491 1885,8491 1811,8467 1756,8420 1701,8373 1672,8314 1672,8240 1672,8120 1747,8032 1897,7977 1940,7961 1978,7953 2010,7953 2017,7953 2019,7956 2019,7962 2019,7964 2015,7967 2006,7971 1892,8014 1833,8100 1833,8231 1833,8296 1851,8348 1885,8386 1920,8424 1963,8444 2015,8444 2078,8444 2128,8423 2167,8382 2206,8340 2226,8286 2226,8218 2226,8098 2174,8038 2069,8038 2055,8038 2040,8040 2026,8045 2012,8049 2004,8051 2004,8051 2001,8051 1999,8049 1999,8045 1999,8035 2015,8021 2046,8004 2081,7984 2119,7975 2160,7975 Z M 2160,7975 L 2160,7975 Z M 3063,8479 C 2998,8479 2966,8404 2966,8256 2966,8235 2966,8213 2966,8188 2966,8164 2966,8150 2966,8144 2966,8088 2954,8060 2929,8060 2879,8060 2823,8126 2762,8260 2721,8349 2694,8402 2682,8421 2657,8460 2627,8479 2594,8479 2525,8479 2489,8420 2489,8302 2489,8287 2489,8260 2489,8224 2489,8188 2489,8160 2489,8139 2489,8102 2487,8070 2482,8042 2478,8014 2475,8004 2475,8008 2475,7998 2485,7993 2505,7990 2523,7989 2542,7983 2560,7975 2578,7967 2591,7964 2594,7964 2614,7964 2625,7999 2625,8069 2625,8088 2623,8122 2621,8170 2619,8221 2618,8263 2618,8296 2618,8346 2628,8371 2648,8371 2662,8371 2693,8325 2736,8231 2820,8052 2907,7964 2995,7964 3063,7964 3095,8009 3095,8102 3095,8108 3095,8126 3095,8153 3095,8179 3095,8203 3095,8222 3095,8322 3106,8371 3123,8371 3132,8371 3145,8355 3161,8321 3184,8274 3207,8225 3231,8179 3304,8035 3383,7964 3463,7964 3529,7964 3563,8009 3563,8104 3563,8111 3563,8136 3563,8178 3563,8219 3563,8258 3563,8290 3563,8337 3567,8376 3577,8404 3586,8433 3590,8444 3590,8436 3545,8464 3511,8479 3488,8479 3451,8479 3431,8432 3431,8337 3431,8320 3433,8289 3434,8244 3436,8201 3436,8167 3436,8144 3436,8088 3424,8060 3399,8060 3350,8060 3291,8136 3220,8290 3186,8362 3161,8408 3147,8430 3122,8463 3095,8479 3063,8479 Z M 3063,8479 L 3063,8479 Z M 4108,7956 C 4171,7956 4221,7967 4257,7987 4292,8008 4310,8035 4310,8069 4310,8108 4285,8144 4235,8176 4182,8213 4112,8237 4028,8247 3990,8249 3955,8253 3917,8256 3896,8258 3885,8265 3885,8278 3885,8321 3905,8358 3942,8389 3980,8421 4026,8438 4080,8438 4137,8438 4192,8421 4248,8389 4303,8356 4328,8340 4325,8340 4332,8340 4335,8343 4335,8352 4335,8370 4305,8396 4241,8430 4164,8470 4083,8491 3999,8491 3921,8491 3854,8470 3804,8427 3753,8384 3728,8333 3728,8271 3728,8185 3765,8111 3838,8049 3912,7987 4001,7956 4108,7956 Z M 4108,7956 L 4108,7956 Z M 4083,7989 C 4033,7989 3989,8011 3949,8057 3910,8102 3890,8148 3890,8195 3890,8213 3903,8222 3928,8222 3994,8222 4049,8206 4096,8170 4137,8138 4157,8098 4157,8051 4157,8009 4133,7989 4083,7989 Z M 4083,7989 L 4083,7989 Z M 4986,8894 C 4986,8912 4973,8920 4947,8920 4920,8920 4907,8912 4907,8894 L 4907,7543 C 4907,7525 4920,7518 4947,7518 4973,7518 4986,7525 4986,7543 L 4986,8894 Z M 4986,8894 L 4986,8894 Z M 6180,7937 C 6200,7937 6212,7934 6216,7928 6219,7921 6221,7900 6221,7866 6221,7779 6219,7699 6216,7627 6212,7555 6210,7525 6210,7537 6210,7531 6216,7527 6225,7527 6226,7527 6232,7527 6239,7527 6246,7527 6253,7527 6257,7527 6267,7527 6280,7525 6296,7524 6309,7521 6319,7519 6326,7519 6344,7519 6355,7534 6362,7565 6366,7587 6368,7639 6368,7719 6368,7849 6366,7971 6362,8091 6360,8209 6359,8265 6359,8255 6359,8311 6362,8361 6369,8408 6376,8454 6380,8473 6380,8466 6380,8470 6373,8473 6360,8473 6357,8473 6350,8473 6339,8473 6326,8473 6316,8473 6309,8473 6307,8473 6300,8473 6291,8473 6282,8473 6275,8473 6267,8473 6230,8473 6210,8424 6210,8328 6210,8309 6212,8263 6216,8193 6219,8123 6221,8063 6221,8012 6221,7993 6208,7983 6182,7983 L 5930,7983 C 5930,7983 5926,7983 5921,7983 5917,7983 5912,7983 5906,7983 5892,7983 5881,7987 5878,7993 5872,7999 5871,8012 5871,8030 L 5871,8042 C 5871,8067 5869,8104 5867,8150 5865,8197 5864,8231 5864,8256 5864,8312 5867,8362 5874,8408 5881,8454 5885,8473 5885,8466 5885,8470 5878,8473 5865,8473 L 5851,8473 C 5849,8473 5846,8473 5838,8473 5830,8473 5821,8473 5813,8473 5812,8473 5806,8473 5796,8473 5787,8473 5779,8473 5772,8473 5735,8473 5715,8436 5715,8362 5715,8302 5717,8234 5722,8163 5726,8092 5728,8051 5728,8040 5728,8004 5722,7983 5708,7983 5703,7983 5685,7986 5656,7990 5626,7995 5601,7998 5578,7998 5544,7998 5527,7986 5527,7962 5527,7936 5545,7922 5583,7922 5597,7922 5617,7925 5645,7930 5674,7936 5695,7937 5710,7937 5722,7937 5728,7930 5728,7912 5728,7909 5728,7902 5728,7890 5728,7878 5728,7869 5728,7859 5728,7773 5726,7695 5721,7626 5717,7555 5715,7527 5715,7537 5715,7531 5721,7527 5729,7527 5731,7527 5737,7527 5744,7527 5751,7527 5756,7527 5762,7527 5772,7527 5785,7525 5799,7524 5813,7521 5824,7519 5828,7519 5846,7519 5858,7533 5864,7561 5869,7584 5871,7633 5871,7705 5871,7702 5871,7722 5871,7760 5871,7797 5871,7835 5871,7875 L 5871,7918 C 5871,7931 5880,7937 5897,7937 L 6180,7937 Z M 6180,7937 L 6180,7937 Z M 7015,7975 C 7066,7975 7109,7990 7142,8023 7175,8054 7192,8097 7192,8151 7192,8231 7159,8305 7099,8371 7025,8451 6934,8491 6827,8491 6738,8491 6664,8467 6609,8420 6553,8373 6527,8314 6527,8240 6527,8120 6602,8032 6752,7977 6793,7961 6832,7953 6864,7953 6870,7953 6873,7956 6873,7962 6873,7964 6870,7967 6861,7971 6745,8014 6687,8100 6687,8231 6687,8296 6705,8348 6739,8386 6773,8424 6818,8444 6870,8444 6932,8444 6982,8423 7022,8382 7061,8340 7079,8286 7079,8218 7079,8098 7027,8038 6923,8038 6907,8038 6893,8040 6881,8045 6866,8049 6859,8051 6859,8051 6856,8051 6854,8049 6854,8045 6854,8035 6868,8021 6898,8004 6934,7984 6972,7975 7015,7975 Z M 7015,7975 L 7015,7975 Z M 7772,7956 C 7831,7956 7880,7973 7914,8004 7948,8035 7964,8076 7964,8129 7964,8235 7905,8324 7785,8392 7737,8420 7687,8442 7629,8461 7592,8473 7554,8485 7519,8495 7494,8504 7479,8529 7472,8568 7469,8594 7465,8659 7465,8761 7465,8811 7469,8854 7476,8889 7485,8926 7488,8940 7488,8932 7488,8935 7472,8944 7440,8959 7408,8974 7388,8981 7383,8981 7347,8981 7329,8916 7329,8785 7329,8743 7333,8653 7338,8516 7345,8377 7349,8259 7349,8160 7349,8119 7345,8082 7338,8049 7333,8018 7329,8005 7329,8011 7329,8002 7340,7996 7360,7992 7381,7989 7401,7983 7422,7974 7438,7967 7447,7964 7451,7964 7463,7964 7472,7977 7478,8005 7483,8033 7488,8046 7492,8046 7492,8046 7506,8039 7535,8023 7569,8005 7599,7990 7629,7980 7678,7964 7724,7956 7772,7956 Z M 7772,7956 L 7772,7956 Z M 7663,8021 C 7617,8021 7565,8038 7508,8071 7494,8080 7488,8097 7488,8125 7488,8138 7488,8159 7488,8185 7488,8213 7488,8234 7488,8249 7488,8272 7488,8302 7488,8340 7488,8377 7488,8402 7488,8415 7488,8442 7495,8455 7513,8455 7540,8455 7583,8439 7642,8405 7703,8373 7744,8339 7769,8302 7792,8266 7805,8218 7805,8159 7805,8067 7758,8021 7663,8021 Z M 7663,8021 L 7663,8021 Z M 8441,7956 C 8505,7956 8554,7967 8589,7987 8625,8008 8643,8035 8643,8069 8643,8108 8620,8144 8570,8176 8514,8213 8445,8237 8361,8247 8325,8249 8287,8253 8251,8256 8230,8258 8219,8265 8219,8278 8219,8321 8237,8358 8275,8389 8312,8421 8359,8438 8414,8438 8470,8438 8525,8421 8580,8389 8636,8356 8663,8340 8659,8340 8666,8340 8670,8343 8670,8352 8670,8370 8638,8396 8575,8430 8498,8470 8418,8491 8334,8491 8255,8491 8189,8470 8139,8427 8089,8384 8064,8333 8064,8271 8064,8185 8100,8111 8173,8049 8246,7987 8335,7956 8441,7956 Z M 8441,7956 L 8441,7956 Z M 8418,7989 C 8368,7989 8323,8011 8284,8057 8244,8102 8225,8148 8225,8195 8225,8213 8235,8222 8260,8222 8327,8222 8384,8206 8428,8170 8470,8138 8491,8098 8491,8051 8491,8009 8466,7989 8418,7989 Z M 8418,7989 L 8418,7989 Z M 9319,8894 C 9319,8912 9306,8920 9281,8920 9254,8920 9240,8912 9240,8894 L 9240,7543 C 9240,7525 9254,7518 9281,7518 9306,7518 9319,7525 9319,7543 L 9319,8894 Z M 9319,8894 L 9319,8894 Z M 10514,7937 C 10536,7937 10548,7934 10552,7928 10555,7921 10557,7900 10557,7866 10557,7779 10555,7699 10552,7627 10548,7555 10545,7525 10545,7537 10545,7531 10550,7527 10559,7527 10563,7527 10568,7527 10575,7527 10582,7527 10588,7527 10593,7527 10604,7527 10616,7525 10631,7524 10645,7521 10656,7519 10661,7519 10679,7519 10691,7534 10697,7565 10700,7587 10702,7639 10702,7719 10702,7849 10700,7971 10698,8091 10695,8209 10693,8265 10693,8255 10693,8311 10697,8361 10704,8408 10711,8454 10715,8473 10715,8466 10715,8470 10709,8473 10695,8473 10691,8473 10684,8473 10673,8473 10661,8473 10652,8473 10645,8473 10641,8473 10636,8473 10625,8473 10618,8473 10609,8473 10602,8473 10564,8473 10545,8424 10545,8328 10545,8309 10548,8263 10552,8193 10555,8123 10557,8063 10557,8012 10557,7993 10543,7983 10516,7983 L 10264,7983 C 10264,7983 10262,7983 10257,7983 10252,7983 10246,7983 10243,7983 10227,7983 10214,7987 10210,7993 10207,7999 10203,8012 10203,8030 L 10203,8042 C 10203,8067 10203,8104 10200,8150 10198,8197 10196,8231 10196,8256 10196,8312 10200,8362 10209,8408 10216,8454 10219,8473 10219,8466 10219,8470 10212,8473 10198,8473 L 10184,8473 C 10184,8473 10178,8473 10171,8473 10162,8473 10155,8473 10148,8473 10144,8473 10139,8473 10130,8473 10121,8473 10112,8473 10105,8473 10067,8473 10050,8436 10050,8362 10050,8302 10051,8234 10055,8163 10060,8092 10062,8051 10062,8040 10062,8004 10055,7983 10042,7983 10035,7983 10017,7986 9989,7990 9960,7995 9933,7998 9910,7998 9878,7998 9860,7986 9860,7962 9860,7936 9880,7922 9917,7922 9930,7922 9951,7925 9980,7930 10009,7936 10030,7937 10044,7937 10055,7937 10062,7930 10062,7912 10062,7909 10062,7902 10062,7890 10060,7878 10060,7869 10060,7859 10060,7773 10059,7695 10055,7626 10051,7555 10050,7527 10050,7537 10050,7531 10053,7527 10064,7527 10066,7527 10071,7527 10078,7527 10084,7527 10091,7527 10094,7527 10105,7527 10118,7525 10132,7524 10148,7521 10157,7519 10162,7519 10180,7519 10191,7533 10198,7561 10202,7584 10203,7633 10203,7705 10203,7702 10203,7722 10203,7760 10203,7797 10203,7835 10203,7875 L 10203,7918 C 10203,7931 10214,7937 10234,7937 L 10514,7937 Z M 10514,7937 L 10514,7937 Z M 10997,8489 C 10908,8489 10863,8449 10863,8370 10863,8262 10931,8162 11068,8071 11188,7995 11304,7956 11417,7956 11462,7956 11494,7964 11510,7977 11528,7992 11535,8018 11535,8057 11535,8073 11535,8101 11531,8139 11530,8178 11528,8209 11528,8231 11528,8287 11531,8337 11535,8386 11540,8433 11544,8454 11544,8448 11544,8457 11530,8464 11503,8472 11474,8480 11455,8483 11440,8483 11422,8483 11412,8469 11406,8438 11403,8417 11401,8368 11401,8294 11401,8281 11401,8265 11401,8244 11399,8225 11399,8213 11399,8206 11399,8191 11397,8184 11394,8184 11392,8184 11385,8195 11374,8218 11356,8249 11335,8281 11312,8311 11210,8430 11106,8489 10997,8489 Z M 10997,8489 L 10997,8489 Z M 11347,7999 C 11304,7999 11249,8017 11185,8054 11058,8125 10993,8204 10993,8294 10993,8356 11022,8387 11079,8387 11156,8387 11233,8343 11308,8253 11369,8176 11401,8111 11401,8057 11401,8018 11383,7999 11347,7999 Z M 11347,7999 L 11347,7999 Z M 12162,7956 C 12221,7956 12270,7973 12304,8004 12338,8035 12354,8076 12354,8129 12354,8235 12295,8324 12175,8392 12128,8420 12077,8442 12019,8461 11982,8473 11944,8485 11909,8495 11883,8504 11869,8529 11864,8568 11858,8594 11855,8659 11855,8761 11855,8811 11858,8854 11867,8889 11875,8926 11878,8940 11878,8932 11878,8935 11862,8944 11830,8959 11798,8974 11778,8981 11773,8981 11737,8981 11719,8916 11719,8785 11719,8743 11723,8653 11728,8516 11735,8377 11739,8259 11739,8160 11739,8119 11735,8082 11728,8049 11723,8018 11719,8005 11719,8011 11719,8002 11730,7996 11749,7992 11771,7989 11791,7983 11812,7974 11828,7967 11837,7964 11841,7964 11853,7964 11862,7977 11867,8005 11873,8033 11878,8046 11882,8046 11882,8046 11898,8039 11925,8023 11959,8005 11989,7990 12019,7980 12068,7964 12114,7956 12162,7956 Z M 12162,7956 L 12162,7956 Z M 12053,8021 C 12007,8021 11955,8038 11898,8071 11883,8080 11878,8097 11878,8125 11878,8138 11878,8159 11878,8185 11878,8213 11878,8234 11878,8249 11878,8272 11878,8302 11878,8340 11878,8377 11878,8402 11878,8415 11878,8442 11885,8455 11903,8455 11930,8455 11973,8439 12032,8405 12093,8373 12134,8339 12159,8302 12184,8266 12195,8218 12195,8159 12195,8067 12148,8021 12053,8021 Z M 12053,8021 L 12053,8021 Z M 12934,7956 C 12995,7956 13042,7973 13076,8004 13110,8035 13128,8076 13128,8129 13128,8235 13067,8324 12949,8392 12901,8420 12849,8442 12793,8461 12756,8473 12718,8485 12681,8495 12657,8504 12641,8529 12636,8568 12631,8594 12629,8659 12629,8761 12629,8811 12632,8854 12640,8889 12647,8926 12650,8940 12650,8932 12650,8935 12634,8944 12602,8959 12570,8974 12552,8981 12545,8981 12509,8981 12491,8916 12491,8785 12491,8743 12495,8653 12502,8516 12509,8377 12511,8259 12511,8160 12511,8119 12509,8082 12502,8049 12495,8018 12491,8005 12491,8011 12491,8002 12502,7996 12523,7992 12543,7989 12565,7983 12584,7974 12600,7967 12611,7964 12615,7964 12625,7964 12634,7977 12641,8005 12647,8033 12650,8046 12654,8046 12656,8046 12670,8039 12699,8023 12731,8005 12763,7990 12793,7980 12840,7964 12888,7956 12934,7956 Z M 12934,7956 L 12934,7956 Z M 12827,8021 C 12781,8021 12729,8038 12670,8071 12657,8080 12650,8097 12650,8125 12650,8138 12650,8159 12650,8185 12650,8213 12650,8234 12650,8249 12650,8272 12650,8302 12650,8340 12650,8377 12650,8402 12650,8415 12650,8442 12659,8455 12675,8455 12702,8455 12747,8439 12806,8405 12865,8373 12908,8339 12931,8302 12956,8266 12968,8218 12968,8159 12968,8067 12920,8021 12827,8021 Z M 12827,8021 L 12827,8021 Z M 13394,8472 L 13301,8472 C 13269,8472 13254,8432 13254,8352 13254,8328 13254,8294 13258,8246 13260,8198 13262,8163 13262,8138 13262,8101 13258,8069 13254,8042 13249,8014 13246,8004 13246,8008 13246,7998 13256,7993 13276,7990 13296,7989 13313,7983 13331,7975 13351,7967 13362,7964 13365,7964 13385,7964 13396,7999 13396,8071 13396,8092 13396,8123 13392,8166 13390,8209 13388,8241 13388,8265 13388,8317 13392,8364 13399,8408 13405,8451 13408,8470 13408,8466 13408,8470 13405,8472 13394,8472 Z M 13394,8472 L 13394,8472 Z M 13394,7707 C 13394,7739 13378,7772 13344,7803 13315,7829 13290,7843 13272,7843 13260,7843 13254,7837 13254,7823 13254,7822 13258,7813 13267,7795 13276,7779 13281,7763 13281,7748 13281,7729 13276,7711 13267,7696 13258,7680 13254,7671 13254,7668 13254,7658 13265,7649 13287,7640 13304,7633 13322,7629 13338,7629 13376,7629 13394,7655 13394,7707 Z"/>
        </g>
       </g>
       <g class="com.sun.star.drawing.ClosedBezierShape">
        <g id="id16">
         <rect class="BoundingBox" stroke="none" fill="none" x="13581" y="7957" width="2699" height="537"/>
         <path fill="rgb(27,25,24)" stroke="none" d="M 13700,8480 C 13630,8480 13596,8421 13596,8303 13596,8287 13596,8262 13596,8225 13596,8190 13596,8162 13596,8142 13596,8104 13592,8070 13589,8043 13583,8015 13582,8004 13582,8008 13582,7999 13590,7993 13610,7992 13630,7989 13648,7984 13667,7975 13685,7968 13696,7964 13700,7964 13719,7964 13730,7999 13730,8069 13730,8088 13730,8123 13726,8172 13725,8222 13723,8263 13723,8294 13723,8345 13733,8373 13755,8373 13769,8373 13800,8324 13843,8229 13925,8052 14011,7964 14102,7964 14168,7964 14202,8011 14202,8107 14202,8116 14202,8142 14202,8184 14202,8225 14202,8262 14202,8293 14202,8343 14205,8383 14214,8411 14225,8439 14229,8451 14229,8444 14229,8447 14214,8454 14187,8466 14159,8479 14137,8486 14125,8486 14087,8486 14068,8439 14068,8343 14068,8322 14070,8290 14071,8246 14073,8203 14073,8169 14073,8147 14073,8089 14059,8061 14032,8061 13985,8061 13932,8129 13869,8263 13828,8351 13801,8405 13789,8423 13762,8461 13733,8480 13700,8480 Z M 13700,8480 L 13700,8480 Z M 14747,7958 C 14809,7958 14860,7967 14895,7987 14931,8008 14949,8035 14949,8069 14949,8110 14924,8147 14874,8179 14818,8215 14751,8238 14666,8249 14629,8252 14593,8253 14556,8258 14534,8259 14524,8265 14524,8280 14524,8321 14541,8359 14581,8392 14618,8424 14665,8441 14718,8441 14776,8441 14831,8424 14886,8390 14942,8356 14967,8340 14963,8340 14970,8340 14974,8345 14974,8352 14974,8371 14942,8398 14879,8432 14802,8473 14722,8492 14638,8492 14559,8492 14495,8472 14443,8429 14393,8386 14368,8333 14368,8271 14368,8187 14406,8114 14477,8051 14550,7989 14640,7958 14747,7958 Z M 14747,7958 L 14747,7958 Z M 14722,7989 C 14672,7989 14627,8012 14588,8057 14549,8104 14529,8150 14529,8198 14529,8216 14541,8225 14565,8225 14633,8225 14688,8207 14733,8172 14776,8139 14795,8100 14795,8052 14795,8011 14770,7989 14722,7989 Z M 14722,7989 L 14722,7989 Z M 15081,8373 C 15081,8328 15103,8306 15147,8306 15197,8306 15221,8318 15221,8340 15221,8343 15219,8349 15215,8361 15212,8371 15208,8380 15208,8387 15208,8433 15251,8457 15337,8457 15462,8457 15524,8426 15524,8362 15524,8311 15492,8281 15430,8272 15303,8255 15221,8238 15185,8227 15128,8206 15099,8172 15099,8125 15099,8074 15126,8035 15179,8004 15231,7973 15305,7958 15396,7958 15532,7958 15600,7995 15600,8069 15600,8100 15580,8114 15542,8114 15489,8114 15462,8107 15462,8089 15462,8088 15464,8082 15467,8073 15471,8064 15473,8055 15473,8046 15473,8009 15442,7992 15380,7992 15265,7992 15208,8021 15208,8080 15208,8132 15246,8160 15319,8167 15424,8178 15489,8185 15514,8193 15592,8215 15632,8256 15632,8315 15632,8371 15607,8414 15553,8445 15501,8478 15430,8492 15337,8492 15165,8492 15081,8452 15081,8373 Z M 15081,8373 L 15081,8373 Z M 15730,8373 C 15730,8328 15751,8306 15796,8306 15844,8306 15869,8318 15869,8340 15869,8343 15868,8349 15864,8361 15859,8371 15857,8380 15857,8387 15857,8433 15900,8457 15986,8457 16111,8457 16173,8426 16173,8362 16173,8311 16141,8281 16079,8272 15952,8255 15869,8238 15834,8227 15776,8206 15748,8172 15748,8125 15748,8074 15775,8035 15828,8004 15880,7973 15953,7958 16045,7958 16180,7958 16248,7995 16248,8069 16248,8100 16229,8114 16191,8114 16138,8114 16111,8107 16111,8089 16111,8088 16113,8082 16116,8073 16120,8064 16121,8055 16121,8046 16121,8009 16091,7992 16029,7992 15914,7992 15857,8021 15857,8080 15857,8132 15894,8160 15968,8167 16073,8178 16138,8185 16163,8193 16241,8215 16279,8256 16279,8315 16279,8371 16254,8414 16202,8445 16150,8478 16079,8492 15986,8492 15814,8492 15730,8452 15730,8373 Z"/>
        </g>
       </g>
       <g class="com.sun.star.drawing.ClosedBezierShape">
        <g id="id17">
         <rect class="BoundingBox" stroke="none" fill="none" x="14119" y="3754" width="2335" height="3191"/>
         <path fill="rgb(197,12,28)" stroke="none" d="M 14863,3756 L 14867,4916 C 14867,5073 14893,5192 14951,5273 15006,5356 15133,5403 15331,5420 15451,5420 15562,5386 15669,5315 15775,5245 15860,5160 15925,5055 15989,4950 16021,4850 16021,4755 L 16016,4027 16452,4166 16452,6145 C 16452,6264 16420,6376 16356,6477 16291,6577 16204,6663 16095,6732 15986,6802 15862,6855 15728,6889 15594,6926 15458,6943 15319,6943 15051,6943 14827,6905 14647,6828 14465,6753 14332,6664 14246,6562 14161,6461 14120,6373 14120,6298 14120,6223 14145,6152 14193,6086 14239,6021 14302,5963 14379,5913 14456,5864 14545,5823 14647,5793 14747,5762 14845,5747 14940,5747 L 15203,6075 C 15142,6080 15051,6091 14929,6111 14808,6130 14684,6165 14561,6215 14439,6267 14379,6334 14379,6416 14382,6447 14406,6493 14445,6554 14486,6614 14557,6672 14661,6725 14765,6780 14901,6806 15067,6808 15238,6808 15401,6778 15555,6719 15707,6660 15830,6576 15923,6467 16014,6356 16061,6230 16061,6087 L 16061,5300 C 16037,5334 15973,5378 15864,5429 15755,5480 15580,5507 15339,5507 15187,5507 15045,5480 14913,5427 14781,5372 14674,5294 14591,5192 14509,5090 14468,4975 14468,4845 L 14468,3754 14863,3756 Z"/>
        </g>
       </g>
       <g class="com.sun.star.drawing.ClosedBezierShape">
        <g id="id18">
         <rect class="BoundingBox" stroke="none" fill="none" x="13163" y="2158" width="946" height="3523"/>
         <path fill="rgb(197,12,28)" stroke="none" d="M 14107,3302 L 14107,5680 C 14102,5680 14082,5672 14052,5657 14021,5643 13985,5626 13944,5607 13905,5587 13860,5567 13819,5548 13775,5527 13751,5519 13748,5519 L 13748,3307 C 13741,3153 13712,3007 13662,2874 13614,2740 13557,2629 13496,2539 13433,2452 13365,2369 13294,2294 13222,2220 13179,2174 13163,2158 L 13608,2158 C 13725,2267 13823,2391 13900,2533 13977,2673 14028,2811 14061,2944 14091,3079 14107,3198 14107,3302 Z"/>
        </g>
       </g>
       <g class="com.sun.star.drawing.ClosedBezierShape">
        <g id="id19">
         <rect class="BoundingBox" stroke="none" fill="none" x="8716" y="3993" width="2753" height="2776"/>
         <path fill="rgb(197,12,28)" stroke="none" d="M 11467,5922 C 11467,6063 11433,6158 11363,6207 11292,6257 11202,6280 11093,6280 11011,6280 10940,6270 10879,6248 10816,6226 10725,6187 10609,6134 10493,6080 10391,6040 10303,6013 10218,5985 10123,5972 10025,5972 9874,5972 9714,6004 9542,6068 9367,6133 9208,6224 9063,6344 8918,6464 8806,6605 8723,6768 8718,6747 8716,6715 8716,6669 8716,6539 8759,6397 8845,6244 8932,6089 9058,5959 9220,5852 9383,5744 9571,5691 9780,5691 9935,5691 10057,5713 10144,5755 10232,5796 10345,5861 10484,5948 10623,6037 10729,6080 10804,6080 10888,6080 10970,6060 11049,6021 11127,5982 11192,5931 11238,5870 11287,5808 11310,5749 11310,5691 11310,5629 11295,5572 11265,5516 11236,5461 11194,5417 11138,5383 11085,5347 11020,5331 10949,5331 10890,5331 10820,5344 10740,5368 10663,5395 10566,5429 10452,5474 10337,5519 10243,5554 10166,5578 10091,5601 10023,5613 9964,5613 9898,5613 9819,5585 9726,5529 9631,5473 9549,5405 9479,5324 9408,5244 9372,5172 9372,5110 9372,5051 9412,4993 9485,4932 9560,4873 9639,4841 9724,4833 L 9728,4811 C 9687,4758 9653,4712 9626,4678 9599,4644 9578,4608 9563,4571 9547,4534 9540,4489 9540,4436 9542,4275 9617,4160 9765,4094 9905,4032 10076,3998 10280,3993 10293,3993 10307,3993 10321,3993 L 10323,3993 C 10466,3993 10600,4024 10695,4148 10697,4151 10698,4154 10700,4157 10707,4168 10718,4176 10729,4181 10756,4181 10786,4160 10818,4120 10852,4080 10879,4051 10899,4032 10920,4013 10958,3999 11011,3993 11054,3993 11095,4005 11140,4030 11185,4055 11226,4089 11260,4132 11297,4175 11320,4218 11331,4259 L 11113,4491 C 11111,4432 11095,4374 11067,4317 11038,4259 10999,4231 10950,4231 10938,4231 10917,4238 10886,4255 10858,4269 10841,4287 10841,4306 10841,4308 10849,4321 10865,4349 10879,4376 10893,4405 10902,4435 10913,4466 10918,4503 10918,4547 10918,4718 10856,4831 10729,4884 10602,4935 10430,4962 10210,4962 10062,4962 9939,4980 9844,5015 9749,5051 9683,5090 9644,5133 9605,5178 9587,5214 9587,5244 9590,5294 9617,5331 9665,5355 9714,5377 9749,5390 9774,5390 9833,5390 9892,5377 9953,5355 10016,5331 10107,5291 10228,5235 10350,5180 10463,5136 10564,5105 10666,5073 10766,5055 10868,5051 11026,5051 11149,5111 11238,5229 11328,5347 11388,5477 11421,5616 11453,5753 11467,5855 11467,5922 Z M 11467,5922 L 11467,5922 Z M 10657,4370 C 10657,4215 10568,4137 10389,4137 10287,4137 10189,4162 10096,4210 10001,4261 9924,4323 9864,4399 9805,4476 9774,4550 9774,4622 9774,4670 9799,4724 9849,4786 9898,4847 9971,4878 10064,4879 10125,4879 10203,4857 10300,4814 10398,4771 10482,4711 10552,4634 10622,4557 10657,4469 10657,4370 Z"/>
        </g>
       </g>
       <g class="com.sun.star.drawing.ClosedBezierShape">
        <g id="id20">
         <rect class="BoundingBox" stroke="none" fill="none" x="7263" y="4005" width="1905" height="1711"/>
         <path fill="rgb(197,12,28)" stroke="none" d="M 8870,4615 C 8870,4305 8713,4151 8396,4151 8305,4151 8212,4176 8116,4227 8019,4277 7933,4346 7858,4435 7781,4523 7719,4630 7672,4752 7626,4876 7603,5002 7603,5133 L 7603,5696 7263,5529 7263,4076 7619,4076 7619,4305 C 7649,4286 7697,4250 7765,4202 7833,4153 7915,4107 8010,4066 8107,4024 8212,4005 8323,4005 8434,4005 8537,4026 8639,4070 8743,4114 8832,4175 8911,4253 8990,4331 9052,4424 9099,4531 9143,4637 9167,4751 9167,4873 9167,5009 9134,5148 9072,5291 9008,5433 8907,5575 8768,5715 L 8366,5482 C 8391,5451 8437,5405 8504,5346 8571,5287 8632,5226 8682,5166 8736,5105 8781,5028 8816,4938 8852,4845 8870,4739 8870,4615 Z"/>
        </g>
       </g>
       <g class="com.sun.star.drawing.ClosedBezierShape">
        <g id="id21">
         <rect class="BoundingBox" stroke="none" fill="none" x="5109" y="4018" width="1803" height="1644"/>
         <path fill="rgb(197,12,28)" stroke="none" d="M 5787,4079 C 5847,4064 5915,4049 5992,4038 6071,4024 6146,4018 6219,4018 6385,4018 6518,4039 6614,4082 6709,4123 6779,4184 6822,4261 6863,4337 6888,4424 6897,4520 6907,4616 6911,4748 6911,4916 L 6911,5660 C 6804,5622 6727,5594 6682,5575 6636,5557 6602,5544 6578,5535 6578,5493 6570,5467 6552,5457 6505,5480 6453,5507 6396,5536 6339,5564 6266,5591 6175,5612 6083,5634 5974,5646 5849,5646 5728,5646 5611,5625 5494,5584 5379,5542 5286,5483 5215,5406 5143,5330 5109,5242 5109,5147 5109,5056 5152,4962 5243,4863 5333,4763 5452,4681 5606,4615 5756,4550 5921,4518 6099,4518 6196,4518 6289,4531 6376,4557 6466,4584 6534,4613 6578,4646 L 6578,4469 C 6519,4399 6464,4354 6410,4330 6359,4306 6276,4295 6164,4295 6019,4299 5905,4309 5821,4327 5737,4343 5647,4371 5549,4407 5452,4442 5372,4472 5308,4491 L 5308,4351 C 5318,4343 5331,4331 5349,4318 5488,4210 5599,4128 5787,4079 Z M 5787,4079 L 5787,4079 Z M 6578,5000 C 6578,4941 6507,4891 6362,4851 6219,4810 6117,4791 6058,4791 5906,4791 5771,4819 5647,4879 5522,4938 5426,5006 5356,5084 5284,5163 5249,5228 5249,5278 5267,5331 5308,5368 5376,5389 5443,5408 5515,5420 5594,5420 5735,5420 5865,5402 5985,5367 6105,5333 6208,5290 6298,5240 6387,5189 6455,5141 6505,5095 6553,5049 6578,5017 6578,5000 Z"/>
        </g>
       </g>
       <g class="com.sun.star.drawing.ClosedBezierShape">
        <g id="id22">
         <rect class="BoundingBox" stroke="none" fill="none" x="512" y="3178" width="4486" height="2528"/>
         <path fill="rgb(197,12,28)" stroke="none" d="M 4316,3271 C 4530,3360 4693,3469 4802,3601 4930,3756 4997,3977 4997,4261 4997,4475 4945,4670 4843,4847 4739,5024 4619,5170 4482,5285 4344,5400 4212,5491 4089,5557 3965,5622 3896,5656 3878,5656 3847,5656 3762,5592 3622,5465 3481,5338 3366,5234 3279,5149 3474,5139 3690,5080 3926,4968 4164,4859 4367,4717 4537,4544 4707,4370 4791,4185 4791,3992 4791,3891 4759,3807 4696,3741 4632,3674 4548,3624 4446,3592 4344,3558 4235,3542 4117,3542 3760,3559 3481,3667 3284,3863 3086,4058 2954,4312 2884,4627 2870,4624 2784,4591 2625,4531 2467,4470 2342,4422 2246,4385 2246,4292 2267,4197 2307,4104 2348,4010 2394,3924 2448,3844 2500,3764 2526,3723 2526,3719 2526,3669 2476,3633 2374,3612 2273,3595 2183,3584 2106,3584 1937,3584 1777,3626 1627,3708 1477,3791 1359,3897 1272,4024 1186,4153 1141,4281 1141,4410 1141,4553 1184,4693 1268,4828 1354,4962 1445,5079 1542,5176 1640,5273 1760,5381 1903,5499 2047,5618 2124,5685 2131,5705 1999,5663 1844,5601 1665,5519 1486,5436 1307,5331 1129,5206 952,5079 803,4935 687,4774 569,4615 512,4444 512,4261 512,4051 576,3865 703,3698 832,3534 996,3406 1198,3314 1400,3223 1608,3178 1820,3178 1990,3178 2142,3200 2274,3246 2407,3292 2528,3345 2639,3407 2750,3469 2812,3500 2823,3500 2825,3500 2880,3477 2993,3428 3104,3379 3220,3335 3338,3293 3695,3175 3974,3134 4316,3271 Z"/>
        </g>
       </g>
       <g class="com.sun.star.drawing.ClosedBezierShape">
        <g id="id23">
         <rect class="BoundingBox" stroke="none" fill="none" x="11527" y="3999" width="1804" height="1644"/>
         <path fill="rgb(197,12,28)" stroke="none" d="M 12205,4060 C 12266,4045 12334,4030 12411,4018 12489,4005 12565,3999 12638,3999 12804,3999 12936,4020 13033,4063 13128,4104 13197,4165 13240,4241 13281,4318 13306,4405 13315,4501 13326,4597 13330,4729 13330,4897 L 13330,5641 C 13222,5603 13145,5575 13101,5555 13054,5538 13020,5524 12997,5516 12997,5474 12988,5448 12970,5437 12924,5461 12872,5488 12815,5517 12758,5545 12684,5572 12593,5592 12502,5615 12393,5626 12268,5626 12146,5626 12030,5606 11912,5564 11798,5523 11705,5464 11633,5387 11562,5310 11528,5223 11528,5127 11528,5037 11571,4943 11662,4844 11751,4743 11871,4662 12025,4596 12175,4531 12339,4498 12518,4498 12615,4498 12707,4512 12795,4538 12884,4565 12952,4594 12997,4627 L 12997,4450 C 12938,4380 12883,4334 12829,4311 12777,4287 12695,4275 12582,4275 12438,4280 12323,4290 12239,4308 12155,4324 12066,4352 11968,4388 11871,4423 11791,4453 11726,4472 L 11726,4331 C 11737,4324 11749,4312 11767,4299 11907,4191 12018,4109 12205,4060 Z M 12205,4060 L 12205,4060 Z M 12997,4981 C 12997,4922 12926,4872 12781,4832 12638,4791 12536,4771 12477,4771 12325,4771 12189,4800 12066,4860 11941,4919 11844,4987 11774,5065 11703,5144 11667,5209 11667,5259 11685,5312 11726,5349 11794,5369 11862,5389 11934,5400 12012,5400 12153,5400 12284,5383 12404,5347 12523,5313 12627,5271 12716,5220 12806,5170 12874,5121 12924,5076 12972,5030 12997,4997 12997,4981 Z"/>
        </g>
       </g>
       <g class="com.sun.star.drawing.ClosedBezierShape">
        <g id="id24">
         <rect class="BoundingBox" stroke="none" fill="none" x="16675" y="4018" width="1804" height="1644"/>
         <path fill="rgb(197,12,28)" stroke="none" d="M 17353,4079 C 17414,4064 17482,4049 17559,4038 17637,4024 17712,4018 17786,4018 17952,4018 18084,4039 18181,4082 18275,4123 18345,4184 18388,4261 18429,4337 18454,4424 18463,4520 18474,4616 18477,4748 18477,4916 L 18477,5660 C 18370,5622 18293,5594 18248,5575 18202,5557 18168,5544 18145,5535 18145,5493 18136,5467 18118,5457 18072,5480 18020,5507 17962,5536 17905,5564 17832,5591 17741,5612 17650,5634 17541,5646 17416,5646 17294,5646 17178,5625 17060,5584 16945,5542 16852,5483 16781,5406 16710,5330 16676,5242 16676,5147 16676,5056 16718,4962 16810,4863 16899,4763 17019,4681 17172,4615 17323,4550 17487,4518 17666,4518 17762,4518 17855,4531 17943,4557 18032,4584 18100,4613 18145,4646 L 18145,4469 C 18086,4399 18030,4354 17977,4330 17925,4306 17843,4295 17730,4295 17585,4299 17471,4309 17387,4327 17303,4343 17214,4371 17115,4407 17019,4442 16938,4472 16874,4491 L 16874,4351 C 16885,4343 16897,4331 16915,4318 17054,4210 17165,4128 17353,4079 Z M 17353,4079 L 17353,4079 Z M 18145,5000 C 18145,4941 18073,4891 17929,4851 17786,4810 17684,4791 17625,4791 17473,4791 17337,4819 17214,4879 17088,4938 16992,5006 16922,5084 16851,5163 16815,5228 16815,5278 16833,5331 16874,5368 16942,5389 17010,5408 17081,5420 17160,5420 17301,5420 17432,5402 17551,5367 17671,5333 17775,5290 17864,5240 17954,5189 18021,5141 18072,5095 18120,5049 18145,5017 18145,5000 Z"/>
        </g>
       </g>
       <g class="com.sun.star.drawing.ClosedBezierShape">
        <g id="id25">
         <rect class="BoundingBox" stroke="none" fill="none" x="15964" y="1850" width="2020" height="1901"/>
         <path fill="rgb(0,119,51)" stroke="none" d="M 17332,2281 C 17605,2492 17800,2747 17982,3013 17843,2563 17578,2183 17103,1851 17035,2239 17047,2636 17290,3107 16770,2834 16332,2747 15964,2822 16379,3392 16804,3642 17233,3750 16897,3574 16645,3320 16397,3065 16824,2989 17280,3229 17741,3562 17430,3159 17255,2735 17332,2281 Z"/>
        </g>
       </g>
       <g class="com.sun.star.drawing.ClosedBezierShape">
        <g id="id26">
         <rect class="BoundingBox" stroke="none" fill="none" x="18105" y="1250" width="3589" height="3319"/>
         <path fill="rgb(0,119,51)" stroke="none" d="M 19441,1968 C 18944,2310 18440,2827 18105,3268 18372,2502 19019,1784 19880,1250 19980,1928 19907,2570 19335,3420 20270,2994 21042,2967 21693,3128 20926,4076 20207,4419 19441,4568 20045,4293 20458,3921 20912,3500 20157,3332 19253,3661 18418,4199 18990,3527 19553,2763 19441,1968 Z"/>
        </g>
       </g>
       <g class="com.sun.star.drawing.ClosedBezierShape">
        <g id="id27">
         <rect class="BoundingBox" stroke="none" fill="none" x="18995" y="4693" width="2020" height="1901"/>
         <path fill="rgb(0,119,51)" stroke="none" d="M 19644,6162 C 19371,5950 19176,5694 18996,5430 19133,5880 19398,6258 19873,6592 19941,6202 19929,5805 19686,5334 20206,5607 20644,5694 21014,5619 20597,5049 20172,4800 19743,4693 20079,4869 20331,5121 20579,5377 20152,5452 19696,5213 19235,4879 19546,5282 19721,5706 19644,6162 Z"/>
        </g>
       </g>
       <g class="com.sun.star.drawing.ClosedBezierShape">
        <g id="id28">
         <rect class="BoundingBox" stroke="none" fill="none" x="2889" y="5951" width="5675" height="1118"/>
         <path fill="rgb(27,25,24)" stroke="none" d="M 3690,6620 C 3699,6620 3704,6626 3704,6639 3704,6791 3701,6898 3695,6955 3694,6971 3660,6992 3592,7019 3509,7048 3424,7063 3336,7063 3204,7063 3097,7019 3013,6929 2930,6839 2889,6722 2889,6577 2889,6391 2952,6238 3077,6117 3166,6029 3281,5987 3417,5987 3502,5987 3572,6007 3622,6049 3672,6090 3697,6145 3697,6211 3697,6261 3661,6288 3588,6288 3535,6288 3506,6276 3506,6254 3506,6252 3513,6242 3524,6221 3535,6202 3540,6179 3540,6152 3540,6114 3529,6083 3502,6060 3477,6037 3445,6025 3402,6025 3309,6025 3231,6072 3170,6167 3104,6266 3072,6393 3072,6551 3072,6692 3102,6803 3161,6880 3220,6957 3302,6997 3408,6997 3454,6997 3486,6994 3501,6989 3527,6979 3540,6957 3540,6923 3540,6918 3540,6908 3540,6892 3540,6875 3540,6861 3540,6850 3540,6853 3540,6836 3540,6797 3540,6757 3540,6716 3540,6672 3540,6632 3554,6613 3583,6613 3590,6613 3601,6614 3617,6619 3633,6622 3645,6623 3656,6623 3661,6623 3667,6623 3674,6622 3681,6620 3686,6620 3690,6620 Z M 3690,6620 L 3690,6620 Z M 4292,6050 L 4294,6065 C 4296,6080 4300,6087 4307,6087 4308,6087 4319,6078 4342,6060 4371,6041 4398,6025 4426,6015 4468,5997 4510,5988 4555,5988 4616,5988 4666,6003 4700,6031 4736,6059 4754,6099 4754,6149 4754,6210 4721,6275 4661,6344 4594,6416 4503,6483 4387,6543 4359,6557 4344,6565 4344,6570 4344,6570 4346,6571 4350,6574 L 4873,6923 C 4905,6945 4922,6967 4922,6991 4922,7028 4898,7047 4854,7047 4825,7047 4789,7026 4745,6986 L 4319,6607 C 4308,6596 4301,6592 4296,6592 4285,6592 4280,6601 4280,6619 4280,6619 4280,6622 4280,6629 4280,6636 4280,6645 4280,6654 4280,6669 4278,6694 4276,6726 4274,6760 4273,6785 4273,6803 4273,6867 4278,6923 4285,6974 4294,7025 4298,7045 4298,7036 4298,7044 4291,7047 4276,7047 L 4260,7047 C 4258,7047 4253,7047 4246,7047 4235,7042 4228,7041 4219,7041 4217,7041 4210,7042 4199,7047 4190,7047 4182,7047 4173,7047 4133,7047 4112,7005 4112,6923 4112,6886 4115,6796 4121,6654 4126,6512 4128,6387 4128,6280 4128,6227 4126,6176 4121,6127 4115,6078 4112,6056 4112,6059 4112,6050 4130,6041 4162,6031 4171,6029 4187,6021 4210,6007 4228,5994 4244,5988 4257,5988 4274,5988 4287,6009 4292,6050 Z M 4292,6050 L 4292,6050 Z M 4598,6186 C 4598,6106 4562,6066 4493,6066 4451,6066 4409,6077 4364,6096 4325,6115 4303,6131 4300,6143 4298,6148 4294,6182 4289,6242 4283,6322 4280,6409 4280,6500 4280,6529 4285,6542 4296,6542 4310,6542 4346,6523 4400,6484 4532,6396 4598,6297 4598,6186 Z M 4598,6186 L 4598,6186 Z M 5713,7067 C 5567,7067 5447,7017 5356,6920 5259,6815 5211,6691 5211,6551 5211,6440 5241,6337 5306,6239 5370,6143 5456,6066 5567,6009 5642,5970 5694,5951 5724,5951 5733,5951 5738,5953 5738,5959 5738,5959 5713,5970 5669,5995 5586,6041 5520,6111 5472,6205 5422,6303 5397,6412 5397,6536 5397,6682 5431,6797 5499,6884 5565,6970 5653,7013 5762,7013 5872,7013 5962,6967 6033,6877 6108,6780 6146,6655 6146,6502 6146,6376 6117,6278 6060,6205 6003,6134 5930,6099 5837,6099 5788,6099 5740,6111 5692,6137 5645,6162 5622,6176 5626,6176 5622,6174 5620,6171 5620,6170 5620,6164 5631,6152 5649,6131 5728,6050 5819,6009 5926,6009 6035,6009 6119,6046 6183,6121 6248,6198 6280,6300 6280,6431 6280,6613 6225,6765 6114,6889 6010,7008 5876,7067 5713,7067 Z M 5713,7067 L 5713,7067 Z M 7124,6694 L 7252,6204 C 7276,6115 7293,6059 7308,6035 7331,5997 7365,5979 7410,5979 7453,5979 7485,5993 7503,6019 7520,6047 7529,6093 7529,6156 7529,6266 7528,6396 7522,6546 7517,6695 7513,6790 7513,6830 7513,6881 7517,6930 7524,6974 7533,7019 7537,7038 7537,7033 7537,7041 7531,7045 7522,7045 7519,7045 7513,7045 7503,7045 7492,7045 7483,7045 7476,7045 7474,7045 7467,7045 7454,7045 7442,7045 7429,7045 7419,7045 7388,7045 7369,7032 7358,7007 7352,6995 7351,6970 7351,6935 7351,6886 7354,6785 7363,6633 7370,6481 7376,6353 7376,6249 L 7376,6198 C 7376,6145 7367,6120 7351,6120 7338,6120 7329,6131 7320,6155 7311,6193 7302,6232 7292,6269 L 7192,6648 C 7150,6800 7113,6904 7075,6961 7027,7028 6963,7062 6879,7062 6813,7062 6764,7039 6738,6997 6711,6954 6696,6883 6696,6784 6696,6740 6698,6667 6704,6570 6707,6469 6711,6393 6711,6340 6711,6220 6702,6145 6686,6115 6684,6109 6679,6102 6670,6094 6662,6087 6657,6081 6657,6078 6657,6071 6679,6055 6718,6027 6759,5998 6786,5984 6798,5984 6848,5984 6873,6069 6873,6241 6873,6276 6872,6359 6866,6484 6861,6613 6857,6720 6857,6811 6857,6921 6884,6977 6940,6977 7013,6977 7074,6883 7124,6694 Z M 7124,6694 L 7124,6694 Z M 8110,6052 L 8114,6066 C 8114,6080 8117,6087 8123,6087 8119,6087 8144,6069 8196,6035 8250,6000 8305,5982 8364,5982 8496,5982 8562,6041 8562,6158 8562,6232 8525,6309 8452,6388 8373,6472 8262,6551 8121,6620 8108,6626 8101,6635 8101,6648 8101,6660 8101,6684 8098,6719 8096,6754 8096,6781 8096,6802 8096,6864 8098,6920 8105,6971 8110,7022 8114,7042 8114,7033 8114,7039 8107,7042 8092,7042 8087,7042 8078,7042 8069,7042 8057,7042 8046,7042 8039,7042 8037,7042 8030,7042 8019,7042 8008,7042 7999,7042 7992,7042 7953,7042 7935,6997 7935,6904 7935,6893 7937,6819 7939,6682 7942,6545 7944,6412 7944,6288 7944,6232 7942,6180 7939,6131 7937,6083 7935,6060 7935,6065 7935,6056 7951,6046 7985,6032 7996,6029 8012,6021 8035,6007 8051,5997 8064,5991 8075,5991 8094,5991 8105,6012 8110,6052 Z M 8110,6052 L 8110,6052 Z M 8403,6190 C 8403,6106 8368,6065 8294,6065 8255,6065 8216,6075 8175,6099 8137,6117 8119,6131 8117,6142 8103,6196 8096,6326 8096,6531 8096,6557 8101,6570 8112,6570 8128,6570 8160,6551 8209,6515 8339,6416 8403,6309 8403,6190 Z"/>
        </g>
       </g>
       <g class="com.sun.star.drawing.ClosedBezierShape">
        <g id="id29">
         <rect class="BoundingBox" stroke="none" fill="none" x="646" y="7491" width="12735" height="1465"/>
         <path fill="rgb(0,119,51)" stroke="none" d="M 1297,7911 C 1318,7911 1331,7908 1334,7902 1338,7894 1340,7874 1340,7840 1340,7753 1338,7673 1334,7600 1331,7528 1327,7499 1327,7510 1327,7504 1332,7500 1341,7500 1345,7500 1350,7500 1357,7500 1365,7500 1370,7500 1375,7500 1386,7500 1399,7499 1413,7497 1427,7494 1438,7493 1443,7493 1461,7493 1474,7507 1479,7538 1483,7561 1484,7612 1484,7692 1484,7822 1483,7944 1481,8064 1477,8182 1475,8238 1475,8228 1475,8284 1479,8334 1486,8382 1493,8427 1497,8447 1497,8439 1497,8444 1492,8447 1477,8447 1474,8447 1466,8447 1456,8447 1443,8447 1434,8447 1427,8447 1424,8447 1418,8447 1407,8447 1400,8447 1391,8447 1384,8447 1347,8447 1327,8398 1327,8302 1327,8283 1331,8237 1334,8166 1338,8097 1340,8036 1340,7986 1340,7967 1325,7956 1298,7956 L 1046,7956 C 1046,7956 1045,7956 1039,7956 1034,7956 1029,7956 1025,7956 1009,7956 998,7961 995,7967 991,7973 989,7986 989,8004 L 989,8015 C 989,8040 987,8077 984,8123 982,8170 980,8204 980,8229 980,8286 984,8336 993,8382 1000,8427 1004,8447 1004,8439 1004,8444 996,8447 982,8447 L 968,8447 C 968,8447 962,8447 955,8447 946,8447 939,8447 932,8447 928,8447 923,8447 914,8447 905,8447 896,8447 889,8447 852,8447 834,8410 834,8336 834,8275 836,8207 839,8136 844,8066 846,8024 846,8014 846,7977 839,7956 827,7956 819,7956 802,7959 773,7964 744,7968 718,7971 694,7971 662,7971 646,7959 646,7936 646,7909 664,7896 701,7896 714,7896 735,7899 764,7903 793,7909 814,7911 828,7911 839,7911 846,7903 846,7885 846,7882 846,7875 846,7863 844,7851 844,7843 844,7832 844,7747 843,7668 839,7599 836,7528 834,7500 834,7510 834,7504 837,7500 848,7500 850,7500 855,7500 862,7500 868,7500 875,7500 878,7500 889,7500 902,7499 918,7497 932,7494 941,7493 946,7493 964,7493 975,7506 982,7534 986,7558 989,7606 989,7679 989,7676 989,7695 989,7733 989,7770 989,7809 989,7849 L 989,7891 C 989,7905 998,7911 1016,7911 L 1297,7911 Z M 1297,7911 L 1297,7911 Z M 2131,7949 C 2183,7949 2226,7964 2260,7996 2292,8027 2308,8070 2308,8125 2308,8204 2278,8278 2215,8345 2142,8424 2053,8464 1946,8464 1856,8464 1783,8441 1727,8393 1672,8346 1643,8287 1643,8213 1643,8094 1719,8005 1869,7950 1912,7934 1949,7927 1981,7927 1988,7927 1990,7930 1990,7936 1990,7937 1987,7940 1978,7944 1863,7987 1804,8073 1804,8204 1804,8269 1822,8321 1856,8359 1892,8398 1935,8417 1987,8417 2049,8417 2099,8396 2139,8355 2178,8314 2198,8259 2198,8191 2198,8071 2146,8011 2040,8011 2026,8011 2012,8014 1997,8018 1983,8023 1976,8024 1976,8024 1972,8024 1971,8023 1971,8018 1971,8008 1987,7995 2017,7977 2053,7958 2090,7949 2131,7949 Z M 2131,7949 L 2131,7949 Z M 3034,8452 C 2970,8452 2938,8377 2938,8229 2938,8209 2938,8187 2938,8162 2938,8138 2938,8123 2938,8117 2938,8061 2925,8033 2900,8033 2850,8033 2795,8100 2734,8234 2693,8322 2666,8376 2653,8395 2628,8433 2598,8452 2566,8452 2496,8452 2460,8393 2460,8275 2460,8260 2460,8234 2460,8197 2460,8162 2460,8133 2460,8113 2460,8076 2458,8043 2453,8015 2450,7987 2446,7977 2446,7981 2446,7971 2457,7967 2476,7964 2494,7962 2514,7956 2532,7949 2550,7940 2562,7937 2566,7937 2585,7937 2596,7973 2596,8042 2596,8061 2594,8095 2593,8144 2591,8194 2589,8237 2589,8269 2589,8320 2600,8345 2619,8345 2634,8345 2664,8299 2707,8204 2791,8026 2879,7937 2966,7937 3034,7937 3066,7983 3066,8076 3066,8082 3066,8100 3066,8126 3066,8153 3066,8176 3066,8195 3066,8296 3077,8345 3095,8345 3104,8345 3116,8328 3132,8294 3156,8247 3179,8198 3202,8153 3275,8008 3354,7937 3434,7937 3501,7937 3535,7983 3535,8077 3535,8085 3535,8110 3535,8151 3535,8193 3535,8231 3535,8263 3535,8311 3538,8349 3549,8377 3558,8407 3561,8417 3561,8410 3517,8438 3483,8452 3459,8452 3422,8452 3402,8405 3402,8311 3402,8293 3404,8262 3406,8218 3408,8175 3408,8141 3408,8117 3408,8061 3395,8033 3370,8033 3322,8033 3263,8110 3191,8263 3157,8336 3132,8382 3118,8404 3093,8436 3066,8452 3034,8452 Z M 3034,8452 L 3034,8452 Z M 4080,7930 C 4142,7930 4192,7940 4228,7961 4264,7981 4282,8008 4282,8042 4282,8082 4257,8117 4207,8150 4153,8187 4083,8210 3999,8221 3962,8222 3926,8227 3888,8229 3867,8231 3856,8238 3856,8252 3856,8294 3876,8331 3913,8362 3951,8395 3997,8411 4051,8411 4108,8411 4164,8395 4219,8362 4274,8330 4300,8314 4296,8314 4303,8314 4307,8317 4307,8325 4307,8343 4276,8370 4212,8404 4135,8444 4055,8464 3971,8464 3892,8464 3826,8444 3776,8401 3724,8358 3699,8306 3699,8244 3699,8159 3736,8085 3810,8023 3883,7961 3972,7930 4080,7930 Z M 4080,7930 L 4080,7930 Z M 4055,7962 C 4005,7962 3960,7984 3921,8030 3881,8076 3862,8122 3862,8169 3862,8187 3874,8195 3899,8195 3965,8195 4021,8179 4067,8144 4108,8111 4128,8071 4128,8024 4128,7983 4105,7962 4055,7962 Z M 4055,7962 L 4055,7962 Z M 4957,8867 C 4957,8885 4945,8894 4918,8894 4891,8894 4879,8885 4879,8867 L 4879,7516 C 4879,7499 4891,7491 4918,7491 4945,7491 4957,7499 4957,7516 L 4957,8867 Z M 4957,8867 L 4957,8867 Z M 6151,7911 C 6171,7911 6183,7908 6187,7902 6191,7894 6192,7874 6192,7840 6192,7753 6191,7673 6187,7600 6183,7528 6182,7499 6182,7510 6182,7504 6187,7500 6196,7500 6198,7500 6203,7500 6210,7500 6217,7500 6225,7500 6228,7500 6239,7500 6251,7499 6267,7497 6280,7494 6291,7493 6298,7493 6316,7493 6326,7507 6334,7538 6337,7561 6339,7612 6339,7692 6339,7822 6337,7944 6334,8064 6332,8182 6330,8238 6330,8228 6330,8284 6334,8334 6341,8382 6348,8427 6351,8447 6351,8439 6351,8444 6344,8447 6332,8447 6328,8447 6321,8447 6310,8447 6298,8447 6287,8447 6280,8447 6278,8447 6271,8447 6262,8447 6253,8447 6246,8447 6239,8447 6201,8447 6182,8398 6182,8302 6182,8283 6183,8237 6187,8166 6191,8097 6192,8036 6192,7986 6192,7967 6180,7956 6153,7956 L 5901,7956 C 5901,7956 5897,7956 5892,7956 5889,7956 5883,7956 5878,7956 5864,7956 5853,7961 5849,7967 5844,7973 5842,7986 5842,8004 L 5842,8015 C 5842,8040 5840,8077 5838,8123 5837,8170 5835,8204 5835,8229 5835,8286 5838,8336 5846,8382 5853,8427 5856,8447 5856,8439 5856,8444 5849,8447 5837,8447 L 5822,8447 C 5821,8447 5817,8447 5810,8447 5801,8447 5792,8447 5785,8447 5783,8447 5778,8447 5767,8447 5758,8447 5751,8447 5744,8447 5706,8447 5687,8410 5687,8336 5687,8275 5688,8207 5694,8136 5697,8066 5699,8024 5699,8014 5699,7977 5694,7956 5679,7956 5674,7956 5656,7959 5628,7964 5597,7968 5572,7971 5549,7971 5515,7971 5499,7959 5499,7936 5499,7909 5517,7896 5554,7896 5569,7896 5588,7899 5617,7903 5645,7909 5667,7911 5681,7911 5694,7911 5699,7903 5699,7885 5699,7882 5699,7875 5699,7863 5699,7851 5699,7843 5699,7832 5699,7747 5697,7668 5692,7599 5688,7528 5687,7500 5687,7510 5687,7504 5692,7500 5701,7500 5703,7500 5708,7500 5715,7500 5722,7500 5728,7500 5733,7500 5744,7500 5756,7499 5771,7497 5785,7494 5796,7493 5799,7493 5817,7493 5830,7506 5835,7534 5840,7558 5842,7606 5842,7679 5842,7676 5842,7695 5842,7733 5842,7770 5842,7809 5842,7849 L 5842,7891 C 5842,7905 5851,7911 5869,7911 L 6151,7911 Z M 6151,7911 L 6151,7911 Z M 6986,7949 C 7038,7949 7081,7964 7113,7996 7147,8027 7163,8070 7163,8125 7163,8204 7131,8278 7070,8345 6997,8424 6906,8464 6798,8464 6709,8464 6636,8441 6580,8393 6525,8346 6498,8287 6498,8213 6498,8094 6573,8005 6723,7950 6764,7934 6804,7927 6836,7927 6841,7927 6845,7930 6845,7936 6845,7937 6841,7940 6832,7944 6716,7987 6659,8073 6659,8204 6659,8269 6677,8321 6711,8359 6745,8398 6789,8417 6841,8417 6904,8417 6954,8396 6993,8355 7032,8314 7050,8259 7050,8191 7050,8071 6999,8011 6895,8011 6879,8011 6864,8014 6852,8018 6838,8023 6830,8024 6830,8024 6827,8024 6825,8023 6825,8018 6825,8008 6839,7995 6870,7977 6906,7958 6943,7949 6986,7949 Z M 6986,7949 L 6986,7949 Z M 7744,7930 C 7803,7930 7851,7946 7885,7977 7919,8008 7935,8049 7935,8102 7935,8209 7876,8297 7756,8365 7708,8393 7658,8415 7601,8435 7563,8447 7526,8458 7490,8469 7465,8478 7451,8503 7444,8541 7440,8568 7436,8633 7436,8734 7436,8785 7440,8827 7447,8863 7456,8900 7460,8913 7460,8906 7460,8909 7444,8918 7411,8932 7379,8947 7360,8954 7354,8954 7318,8954 7301,8889 7301,8758 7301,8717 7304,8627 7310,8489 7317,8351 7320,8232 7320,8133 7320,8092 7317,8055 7310,8023 7304,7992 7301,7978 7301,7984 7301,7975 7311,7970 7331,7965 7352,7962 7372,7956 7394,7947 7410,7940 7419,7937 7422,7937 7435,7937 7444,7950 7449,7978 7454,8007 7460,8020 7463,8020 7463,8020 7478,8012 7506,7996 7540,7978 7570,7964 7601,7953 7649,7937 7696,7930 7744,7930 Z M 7744,7930 L 7744,7930 Z M 7635,7995 C 7588,7995 7537,8011 7479,8045 7465,8054 7460,8070 7460,8098 7460,8111 7460,8132 7460,8159 7460,8187 7460,8207 7460,8222 7460,8246 7460,8275 7460,8314 7460,8351 7460,8376 7460,8389 7460,8415 7467,8429 7485,8429 7511,8429 7554,8413 7613,8379 7674,8346 7715,8312 7740,8275 7764,8240 7776,8191 7776,8132 7776,8040 7730,7995 7635,7995 Z M 7635,7995 L 7635,7995 Z M 8412,7930 C 8477,7930 8525,7940 8561,7961 8596,7981 8614,8008 8614,8042 8614,8082 8591,8117 8541,8150 8486,8187 8416,8210 8332,8221 8296,8222 8259,8227 8223,8229 8201,8231 8191,8238 8191,8252 8191,8294 8209,8331 8246,8362 8284,8395 8330,8411 8386,8411 8441,8411 8496,8395 8552,8362 8607,8330 8634,8314 8630,8314 8638,8314 8641,8317 8641,8325 8641,8343 8609,8370 8546,8404 8470,8444 8389,8464 8305,8464 8226,8464 8160,8444 8110,8401 8060,8358 8035,8306 8035,8244 8035,8159 8071,8085 8144,8023 8218,7961 8307,7930 8412,7930 Z M 8412,7930 L 8412,7930 Z M 8389,7962 C 8339,7962 8294,7984 8255,8030 8216,8076 8196,8122 8196,8169 8196,8187 8207,8195 8232,8195 8298,8195 8355,8179 8400,8144 8441,8111 8462,8071 8462,8024 8462,7983 8437,7962 8389,7962 Z M 8389,7962 L 8389,7962 Z M 9290,8867 C 9290,8885 9277,8894 9252,8894 9226,8894 9211,8885 9211,8867 L 9211,7516 C 9211,7499 9226,7491 9252,7491 9277,7491 9290,7499 9290,7516 L 9290,8867 Z M 9290,8867 L 9290,8867 Z M 10486,7911 C 10507,7911 10520,7908 10523,7902 10527,7894 10529,7874 10529,7840 10529,7753 10527,7673 10523,7600 10520,7528 10516,7499 10516,7510 10516,7504 10521,7500 10530,7500 10534,7500 10539,7500 10547,7500 10554,7500 10559,7500 10564,7500 10575,7500 10588,7499 10602,7497 10616,7494 10627,7493 10632,7493 10650,7493 10663,7507 10668,7538 10672,7561 10673,7612 10673,7692 10673,7822 10672,7944 10670,8064 10666,8182 10664,8238 10664,8228 10664,8284 10668,8334 10675,8382 10682,8427 10686,8447 10686,8439 10686,8444 10681,8447 10666,8447 10663,8447 10656,8447 10645,8447 10632,8447 10623,8447 10616,8447 10613,8447 10607,8447 10597,8447 10589,8447 10580,8447 10573,8447 10536,8447 10516,8398 10516,8302 10516,8283 10520,8237 10523,8166 10527,8097 10529,8036 10529,7986 10529,7967 10514,7956 10488,7956 L 10236,7956 C 10236,7956 10234,7956 10228,7956 10223,7956 10218,7956 10214,7956 10198,7956 10185,7961 10182,7967 10178,7973 10175,7986 10175,8004 L 10175,8015 C 10175,8040 10175,8077 10171,8123 10169,8170 10168,8204 10168,8229 10168,8286 10171,8336 10180,8382 10187,8427 10191,8447 10191,8439 10191,8444 10184,8447 10169,8447 L 10155,8447 C 10155,8447 10150,8447 10143,8447 10134,8447 10126,8447 10119,8447 10116,8447 10110,8447 10101,8447 10093,8447 10084,8447 10076,8447 10039,8447 10021,8410 10021,8336 10021,8275 10023,8207 10026,8136 10032,8066 10034,8024 10034,8014 10034,7977 10026,7956 10014,7956 10007,7956 9989,7959 9960,7964 9932,7968 9905,7971 9882,7971 9849,7971 9832,7959 9832,7936 9832,7909 9851,7896 9889,7896 9901,7896 9923,7899 9951,7903 9980,7909 10001,7911 10016,7911 10026,7911 10034,7903 10034,7885 10034,7882 10034,7875 10034,7863 10032,7851 10032,7843 10032,7832 10032,7747 10030,7668 10026,7599 10023,7528 10021,7500 10021,7510 10021,7504 10025,7500 10035,7500 10037,7500 10042,7500 10050,7500 10055,7500 10062,7500 10066,7500 10076,7500 10089,7499 10103,7497 10119,7494 10128,7493 10134,7493 10151,7493 10162,7506 10169,7534 10173,7558 10175,7606 10175,7679 10175,7676 10175,7695 10175,7733 10175,7770 10175,7809 10175,7849 L 10175,7891 C 10175,7905 10185,7911 10205,7911 L 10486,7911 Z M 10486,7911 L 10486,7911 Z M 10968,8463 C 10879,8463 10834,8423 10834,8343 10834,8235 10902,8135 11040,8045 11160,7968 11276,7930 11388,7930 11433,7930 11465,7937 11481,7950 11499,7965 11506,7992 11506,8030 11506,8046 11506,8074 11503,8113 11501,8151 11499,8182 11499,8204 11499,8260 11503,8311 11506,8359 11512,8407 11515,8427 11515,8421 11515,8430 11501,8438 11474,8445 11446,8454 11426,8457 11412,8457 11394,8457 11383,8442 11378,8411 11374,8390 11372,8342 11372,8268 11372,8255 11372,8238 11372,8218 11371,8198 11371,8187 11371,8179 11371,8164 11369,8157 11365,8157 11363,8157 11356,8169 11345,8191 11328,8222 11306,8255 11283,8284 11181,8404 11077,8463 10968,8463 Z M 10968,8463 L 10968,8463 Z M 11319,7973 C 11276,7973 11220,7990 11156,8027 11029,8098 10965,8178 10965,8268 10965,8330 10993,8361 11051,8361 11127,8361 11204,8317 11279,8227 11340,8150 11372,8085 11372,8030 11372,7992 11354,7973 11319,7973 Z M 11319,7973 L 11319,7973 Z M 12134,7930 C 12193,7930 12241,7946 12275,7977 12309,8008 12325,8049 12325,8102 12325,8209 12266,8297 12146,8365 12100,8393 12048,8415 11991,8435 11953,8447 11916,8458 11880,8469 11855,8478 11841,8503 11835,8541 11830,8568 11826,8633 11826,8734 11826,8785 11830,8827 11839,8863 11846,8900 11850,8913 11850,8906 11850,8909 11833,8918 11801,8932 11769,8947 11749,8954 11744,8954 11708,8954 11690,8889 11690,8758 11690,8717 11694,8627 11699,8489 11707,8351 11710,8232 11710,8133 11710,8092 11707,8055 11699,8023 11694,7992 11690,7978 11690,7984 11690,7975 11701,7970 11721,7965 11742,7962 11762,7956 11783,7947 11799,7940 11808,7937 11812,7937 11825,7937 11833,7950 11839,7978 11844,8007 11850,8020 11853,8020 11853,8020 11869,8012 11896,7996 11930,7978 11960,7964 11991,7953 12039,7937 12085,7930 12134,7930 Z M 12134,7930 L 12134,7930 Z M 12025,7995 C 11978,7995 11926,8011 11869,8045 11855,8054 11850,8070 11850,8098 11850,8111 11850,8132 11850,8159 11850,8187 11850,8207 11850,8222 11850,8246 11850,8275 11850,8314 11850,8351 11850,8376 11850,8389 11850,8415 11857,8429 11875,8429 11901,8429 11944,8413 12003,8379 12064,8346 12105,8312 12130,8275 12155,8240 12166,8191 12166,8132 12166,8040 12119,7995 12025,7995 Z M 12025,7995 L 12025,7995 Z M 12906,7930 C 12967,7930 13013,7946 13047,7977 13081,8008 13099,8049 13099,8102 13099,8209 13038,8297 12920,8365 12872,8393 12820,8415 12765,8435 12727,8447 12690,8458 12652,8469 12629,8478 12613,8503 12607,8541 12602,8568 12600,8633 12600,8734 12600,8785 12604,8827 12611,8863 12618,8900 12622,8913 12622,8906 12622,8909 12606,8918 12573,8932 12541,8947 12523,8954 12516,8954 12480,8954 12463,8889 12463,8758 12463,8717 12466,8627 12473,8489 12480,8351 12482,8232 12482,8133 12482,8092 12480,8055 12473,8023 12466,7992 12463,7978 12463,7984 12463,7975 12473,7970 12495,7965 12514,7962 12536,7956 12556,7947 12572,7940 12582,7937 12586,7937 12597,7937 12606,7950 12613,7978 12618,8007 12622,8020 12625,8020 12627,8020 12641,8012 12670,7996 12702,7978 12734,7964 12765,7953 12811,7937 12859,7930 12906,7930 Z M 12906,7930 L 12906,7930 Z M 12799,7995 C 12752,7995 12700,8011 12641,8045 12629,8054 12622,8070 12622,8098 12622,8111 12622,8132 12622,8159 12622,8187 12622,8207 12622,8222 12622,8246 12622,8275 12622,8314 12622,8351 12622,8376 12622,8389 12622,8415 12631,8429 12647,8429 12674,8429 12718,8413 12777,8379 12836,8346 12879,8312 12902,8275 12927,8240 12940,8191 12940,8132 12940,8040 12892,7995 12799,7995 Z M 12799,7995 L 12799,7995 Z M 13365,8445 L 13272,8445 C 13240,8445 13226,8405 13226,8325 13226,8302 13226,8268 13229,8219 13231,8172 13233,8136 13233,8111 13233,8074 13229,8042 13226,8015 13220,7987 13217,7977 13217,7981 13217,7971 13228,7967 13247,7964 13267,7962 13285,7956 13303,7949 13322,7940 13333,7937 13337,7937 13356,7937 13367,7973 13367,8045 13367,8066 13367,8097 13363,8139 13362,8182 13360,8215 13360,8238 13360,8290 13363,8337 13371,8382 13376,8424 13380,8444 13380,8439 13380,8444 13376,8445 13365,8445 Z M 13365,8445 L 13365,8445 Z M 13365,7680 C 13365,7713 13349,7745 13315,7776 13287,7803 13262,7816 13244,7816 13231,7816 13226,7810 13226,7797 13226,7795 13229,7787 13238,7769 13247,7753 13253,7736 13253,7722 13253,7702 13247,7685 13238,7670 13229,7654 13226,7645 13226,7642 13226,7631 13237,7623 13258,7614 13276,7606 13294,7602 13310,7602 13347,7602 13365,7629 13365,7680 Z"/>
        </g>
       </g>
       <g class="com.sun.star.drawing.ClosedBezierShape">
        <g id="id30">
         <rect class="BoundingBox" stroke="none" fill="none" x="13552" y="7931" width="2700" height="536"/>
         <path fill="rgb(0,119,51)" stroke="none" d="M 13671,8454 C 13601,8454 13567,8395 13567,8277 13567,8260 13567,8235 13567,8198 13567,8163 13567,8135 13567,8116 13567,8077 13564,8043 13560,8017 13555,7989 13553,7977 13553,7981 13553,7973 13562,7967 13582,7965 13601,7962 13619,7958 13639,7949 13657,7942 13667,7937 13671,7937 13691,7937 13701,7973 13701,8042 13701,8061 13701,8097 13698,8145 13696,8195 13694,8237 13694,8268 13694,8318 13705,8346 13726,8346 13741,8346 13771,8297 13814,8203 13896,8026 13982,7937 14073,7937 14139,7937 14173,7984 14173,8080 14173,8089 14173,8116 14173,8157 14173,8198 14173,8235 14173,8266 14173,8317 14177,8356 14186,8384 14196,8413 14200,8424 14200,8417 14200,8420 14186,8427 14159,8439 14130,8452 14109,8460 14096,8460 14059,8460 14039,8413 14039,8317 14039,8296 14041,8263 14043,8219 14044,8176 14044,8142 14044,8120 14044,8063 14030,8035 14003,8035 13957,8035 13903,8102 13841,8237 13800,8324 13773,8379 13760,8396 13733,8435 13705,8454 13671,8454 Z M 13671,8454 L 13671,8454 Z M 14718,7931 C 14781,7931 14831,7940 14867,7961 14902,7981 14920,8008 14920,8042 14920,8083 14895,8120 14845,8153 14790,8188 14722,8212 14638,8222 14600,8225 14565,8227 14527,8231 14506,8232 14495,8238 14495,8253 14495,8294 14513,8333 14552,8365 14590,8398 14636,8414 14690,8414 14747,8414 14802,8398 14858,8364 14913,8330 14938,8314 14935,8314 14942,8314 14945,8318 14945,8325 14945,8345 14913,8371 14851,8405 14774,8447 14693,8466 14609,8466 14531,8466 14466,8445 14414,8402 14364,8359 14339,8306 14339,8244 14339,8160 14377,8088 14448,8024 14522,7962 14611,7931 14718,7931 Z M 14718,7931 L 14718,7931 Z M 14693,7962 C 14643,7962 14599,7986 14559,8030 14520,8077 14500,8123 14500,8172 14500,8190 14513,8198 14536,8198 14604,8198 14659,8181 14704,8145 14747,8113 14767,8073 14767,8026 14767,7984 14742,7962 14693,7962 Z M 14693,7962 L 14693,7962 Z M 15053,8346 C 15053,8302 15074,8280 15119,8280 15169,8280 15192,8291 15192,8314 15192,8317 15190,8322 15187,8334 15183,8345 15179,8353 15179,8361 15179,8407 15222,8430 15308,8430 15433,8430 15496,8399 15496,8336 15496,8284 15464,8255 15401,8246 15274,8228 15192,8212 15156,8200 15099,8179 15070,8145 15070,8098 15070,8048 15097,8008 15151,7977 15203,7946 15276,7931 15367,7931 15503,7931 15571,7968 15571,8042 15571,8073 15551,8088 15514,8088 15460,8088 15433,8080 15433,8063 15433,8061 15435,8055 15439,8046 15442,8038 15444,8029 15444,8020 15444,7983 15414,7965 15351,7965 15237,7965 15179,7995 15179,8054 15179,8105 15217,8133 15290,8141 15396,8151 15460,8159 15485,8166 15564,8188 15603,8229 15603,8289 15603,8345 15578,8387 15524,8418 15473,8451 15401,8466 15308,8466 15137,8466 15053,8426 15053,8346 Z M 15053,8346 L 15053,8346 Z M 15701,8346 C 15701,8302 15723,8280 15768,8280 15816,8280 15841,8291 15841,8314 15841,8317 15839,8322 15835,8334 15830,8345 15828,8353 15828,8361 15828,8407 15871,8430 15957,8430 16082,8430 16145,8399 16145,8336 16145,8284 16113,8255 16050,8246 15923,8228 15841,8212 15805,8200 15748,8179 15719,8145 15719,8098 15719,8048 15746,8008 15800,7977 15852,7946 15925,7931 16016,7931 16152,7931 16220,7968 16220,8042 16220,8073 16200,8088 16163,8088 16109,8088 16082,8080 16082,8063 16082,8061 16084,8055 16087,8046 16091,8038 16093,8029 16093,8020 16093,7983 16062,7965 16000,7965 15886,7965 15828,7995 15828,8054 15828,8105 15866,8133 15939,8141 16045,8151 16109,8159 16134,8166 16213,8188 16250,8229 16250,8289 16250,8345 16225,8387 16173,8418 16121,8451 16050,8466 15957,8466 15785,8466 15701,8426 15701,8346 Z"/>
        </g>
       </g>
      </g>
     </g>
    </g>
   </g>
  </g>
 </g>
</svg>